M48
;DRILL file {KiCad (5.0.0-rc2-dev-491-g430239499)} date 09/21/18 18:59:52
;FORMAT={-:-/ absolute / inch / decimal}
FMAT,2
INCH,TZ
T1C0.0098
T2C0.0118
T3C0.0138
T4C0.0157
T5C0.0394
%
G90
G05
M72
T1
X5.324Y-4.036
X5.35Y-3.292
X5.35Y-3.368
X5.35Y-3.608
X5.352Y-3.448
X5.352Y-3.526
X5.352Y-3.686
X5.352Y-3.768
X5.352Y-3.84
X5.352Y-3.92
X5.358Y-4.036
X5.392Y-3.92
X5.394Y-4.036
X5.404Y-3.366
X5.406Y-3.288
X5.406Y-3.446
X5.406Y-3.524
X5.406Y-3.762
X5.408Y-3.682
X5.408Y-3.84
X5.41Y-3.604
X5.536Y-4.825
X5.538Y-4.876
X5.538Y-4.925
X5.54Y-4.995
X5.54Y-5.06
X5.652Y-4.624
X5.652Y-4.674
X5.665Y-5.1055
X5.665Y-5.1505
X5.665Y-5.175
X5.665Y-5.2105
X5.67Y-4.555
X5.715Y-5.27
X5.715Y-5.3094
X5.715Y-5.3487
X5.715Y-5.3881
X5.715Y-5.4275
X5.715Y-5.4669
X5.715Y-5.5062
X5.73Y-3.052
X5.73Y-3.092
X5.732Y-3.17
X5.7525Y-3.1437
X5.7544Y-5.27
X5.7544Y-5.3094
X5.7544Y-5.3487
X5.7544Y-5.3881
X5.7544Y-5.4275
X5.7544Y-5.4669
X5.7544Y-5.5062
X5.776Y-4.496
X5.7937Y-5.27
X5.7937Y-5.3094
X5.7937Y-5.3487
X5.7937Y-5.3881
X5.7937Y-5.4275
X5.7937Y-5.4669
X5.7937Y-5.5062
X5.7937Y-5.5456
X5.7937Y-5.585
X5.7937Y-5.6243
X5.824Y-4.472
X5.8287Y-5.27
X5.8287Y-5.4275
X5.8287Y-5.4669
X5.8287Y-5.5062
X5.876Y-4.45
X5.9169Y-5.27
X5.9169Y-5.4275
X5.9169Y-5.4669
X5.9169Y-5.5062
X5.924Y-4.612
X5.9562Y-5.27
X5.9562Y-5.3094
X5.9562Y-5.3487
X5.9562Y-5.3881
X5.9562Y-5.4275
X5.9562Y-5.4669
X5.9562Y-5.5062
X5.9562Y-5.5456
X5.9562Y-5.585
X5.9562Y-5.6243
X5.9956Y-5.27
X5.9956Y-5.3094
X5.9956Y-5.3487
X5.9956Y-5.3881
X5.9956Y-5.4275
X5.9956Y-5.4669
X5.9956Y-5.5062
X5.998Y-5.136
X6.025Y-3.425
X6.035Y-5.27
X6.035Y-5.3094
X6.035Y-5.3487
X6.035Y-5.3881
X6.035Y-5.4275
X6.035Y-5.4669
X6.035Y-5.5062
X6.05Y-3.4
X6.076Y-5.142
X6.2195Y-5.478
X6.22Y-3.262
X6.225Y-3.575
X6.2255Y-5.141
X6.2595Y-5.478
X6.275Y-3.55
X6.275Y-5.265
X6.288Y-3.262
X6.294Y-2.73
X6.294Y-2.79
X6.31Y-5.49
X6.328Y-2.73
X6.328Y-2.79
X6.376Y-5.484
X6.394Y-5.112
X6.4085Y-5.484
X6.4275Y-2.5725
X6.43Y-4.974
X6.432Y-5.024
X6.44Y-5.245
X6.442Y-5.484
X6.502Y-3.306
X6.525Y-4.4
X6.54Y-3.334
X6.55Y-4.375
X6.55Y-4.925
X6.575Y-4.9
X6.608Y-4.91
X6.634Y-5.514
X6.696Y-3.136
X6.724Y-4.878
X6.724Y-5.078
X6.875Y-2.96
X6.875Y-2.985
X6.94Y-5.178
X6.96Y-4.185
X6.96Y-4.225
X6.96Y-4.265
X6.968Y-4.322
X7.004Y-3.712
X7.026Y-4.322
X7.088Y-4.576
X7.1Y-4.608
X7.1Y-4.642
X7.1075Y-4.2575
X7.118Y-4.888
X7.16Y-4.1996
X7.178Y-4.596
X7.226Y-4.862
X7.234Y-2.314
X7.254Y-3.08
X7.254Y-4.468
X7.288Y-3.06
X7.438Y-2.302
X7.455Y-4.145
X7.455Y-4.2041
X7.455Y-4.2631
X7.4871Y-4.145
X7.4871Y-4.2041
X7.4871Y-4.2631
X7.59Y-4.898
T2
X6.465Y-2.48
X6.585Y-2.4725
X6.6475Y-2.4175
X7.285Y-4.05
X7.285Y-4.12
X7.41Y-4.12
X7.415Y-4.05
T3
X6.14Y-2.675
X6.175Y-2.675
T4
X5.295Y-4.195
X5.295Y-4.3131
X5.295Y-4.4312
X5.295Y-4.5493
X5.295Y-4.6674
X5.295Y-4.7856
X5.295Y-4.9037
X5.295Y-5.0218
X5.295Y-5.1399
X5.295Y-5.258
X5.295Y-5.3761
X5.295Y-5.4942
X5.3Y-2.1062
X5.3Y-2.2243
X5.3Y-2.3424
X5.3Y-2.4606
X5.3Y-2.5787
X5.3Y-2.6968
X5.3Y-2.8149
X5.3Y-2.933
X5.3Y-3.0511
X5.3Y-3.1692
X5.3685Y-5.117
X5.3935Y-5.1465
X5.4195Y-5.117
X5.525Y-1.87
X5.6431Y-1.87
X5.7612Y-1.87
X5.8793Y-1.87
X5.938Y-3.789
X5.938Y-3.8481
X5.938Y-3.9071
X5.938Y-3.9662
X5.945Y-4.07
X5.945Y-4.115
X5.9971Y-3.789
X5.9971Y-3.8481
X5.9971Y-3.9071
X5.9971Y-3.9662
X5.9974Y-1.87
X6.Y-4.07
X6.Y-4.115
X6.015Y-2.705
X6.015Y-4.695
X6.015Y-4.8131
X6.015Y-4.9312
X6.04Y-4.67
X6.04Y-4.725
X6.04Y-4.7881
X6.04Y-4.8431
X6.04Y-4.9062
X6.04Y-4.9612
X6.0561Y-3.789
X6.0561Y-3.8481
X6.0561Y-3.9071
X6.0561Y-3.9662
X6.065Y-4.695
X6.065Y-4.8131
X6.065Y-4.9312
X6.075Y-2.76
X6.1156Y-1.87
X6.1331Y-4.695
X6.1331Y-4.8131
X6.1331Y-4.9312
X6.1581Y-4.67
X6.1581Y-4.725
X6.1581Y-4.7881
X6.1581Y-4.8431
X6.1581Y-4.9062
X6.1581Y-4.9612
X6.1831Y-4.695
X6.1831Y-4.8131
X6.1831Y-4.9312
X6.2Y-2.125
X6.2Y-2.165
X6.2337Y-1.87
X6.2512Y-4.695
X6.2512Y-4.8131
X6.2512Y-4.9312
X6.2555Y-5.725
X6.27Y-2.125
X6.27Y-2.165
X6.2762Y-4.67
X6.2762Y-4.725
X6.2762Y-4.7881
X6.2762Y-4.8431
X6.2762Y-4.9062
X6.2762Y-4.9612
X6.3012Y-4.695
X6.3012Y-4.8131
X6.3012Y-4.9312
X6.34Y-2.125
X6.34Y-2.165
X6.3518Y-1.87
X6.3736Y-5.725
X6.39Y-2.15
X6.39Y-2.205
X6.425Y-5.29
X6.455Y-2.73
X6.46Y-5.29
X6.465Y-2.01
X6.465Y-2.06
X6.469Y-4.23
X6.4699Y-1.87
X6.47Y-3.92
X6.49Y-5.33
X6.49Y-5.365
X6.4917Y-5.725
X6.509Y-4.23
X6.51Y-2.79
X6.51Y-3.92
X6.525Y-2.01
X6.525Y-2.06
X6.525Y-5.54
X6.525Y-5.605
X6.549Y-4.23
X6.55Y-3.92
X6.585Y-2.01
X6.585Y-2.06
X6.587Y-4.23
X6.588Y-1.87
X6.59Y-3.92
X6.6098Y-5.725
X6.625Y-3.92
X6.627Y-4.23
X6.63Y-3.485
X6.66Y-3.92
X6.667Y-4.23
X6.675Y-2.14
X6.675Y-2.2
X6.69Y-2.94
X6.69Y-3.55
X6.695Y-3.02
X6.7061Y-1.87
X6.7279Y-5.725
X6.745Y-2.11
X6.745Y-2.165
X6.745Y-2.885
X6.745Y-3.075
X6.75Y-3.51
X6.775Y-4.065
X6.775Y-4.125
X6.79Y-3.51
X6.795Y-4.965
X6.8Y-2.55
X6.8242Y-1.87
X6.825Y-2.11
X6.825Y-2.165
X6.835Y-4.015
X6.835Y-4.175
X6.84Y-3.185
X6.8461Y-5.725
X6.85Y-2.55
X6.9Y-3.135
X6.9Y-3.185
X6.905Y-3.39
X6.905Y-3.455
X6.91Y-2.11
X6.91Y-2.165
X6.91Y-3.995
X6.925Y-1.915
X6.925Y-1.995
X6.925Y-4.69
X6.935Y-5.02
X6.9642Y-5.725
X6.965Y-4.75
X6.965Y-4.945
X6.97Y-2.33
X6.97Y-2.3875
X6.97Y-2.445
X6.975Y-5.57
X6.99Y-2.045
X6.995Y-2.64
X6.995Y-2.795
X7.Y-3.97
X7.Y-5.07
X7.01Y-5.135
X7.01Y-5.18
X7.025Y-2.33
X7.025Y-2.3875
X7.025Y-2.445
X7.025Y-4.75
X7.025Y-4.945
X7.04Y-5.57
X7.065Y-3.17
X7.065Y-3.22
X7.07Y-2.775
X7.07Y-2.92
X7.0823Y-5.725
X7.0825Y-2.33
X7.0825Y-2.3875
X7.0825Y-2.445
X7.09Y-5.135
X7.095Y-4.005
X7.12Y-3.17
X7.12Y-3.22
X7.15Y-2.64
X7.15Y-2.795
X7.16Y-4.005
X7.165Y-5.14
X7.2004Y-5.725
X7.225Y-3.895
X7.225Y-3.94
X7.225Y-5.19
X7.2485Y-4.9405
X7.285Y-3.86
X7.285Y-5.03
X7.305Y-4.565
X7.31Y-5.355
X7.31Y-5.385
X7.3185Y-5.725
X7.325Y-5.57
X7.325Y-5.61
X7.345Y-3.86
X7.345Y-3.9
X7.345Y-3.945
X7.345Y-4.98
X7.355Y-5.355
X7.355Y-5.385
X7.37Y-4.51
X7.37Y-4.625
X7.38Y-1.92
X7.38Y-1.985
X7.38Y-2.15
X7.38Y-2.195
X7.38Y-2.245
X7.38Y-3.1
X7.395Y-5.57
X7.395Y-5.61
X7.415Y-3.86
X7.42Y-4.98
X7.425Y-3.1
X7.4366Y-5.725
X7.475Y-5.025
X7.48Y-3.895
X7.48Y-3.94
X7.545Y-3.15
X7.5547Y-5.725
X7.555Y-3.345
X7.56Y-4.005
X7.575Y-3.225
X7.575Y-3.28
X7.585Y-2.15
X7.585Y-2.195
X7.585Y-2.245
X7.6Y-4.005
X7.64Y-4.005
X7.64Y-4.725
X7.71Y-4.675
X7.71Y-4.78
X7.827Y-2.06
X7.827Y-2.1781
X7.827Y-2.2962
X7.827Y-2.4143
X7.827Y-2.5324
X7.827Y-2.6506
X7.827Y-2.7687
X7.827Y-2.8868
X7.827Y-3.0049
X7.827Y-3.123
X7.827Y-3.2411
X7.827Y-3.2411
X7.827Y-3.2411
X7.827Y-3.3592
X7.827Y-3.3592
X7.827Y-3.3592
X7.827Y-3.4773
X7.827Y-3.4773
X7.827Y-3.4773
X7.827Y-3.5954
X7.827Y-3.5954
X7.827Y-3.5954
X7.827Y-3.7135
X7.827Y-3.7135
X7.827Y-3.7135
X7.827Y-3.8317
X7.827Y-3.8317
X7.827Y-3.8317
X7.827Y-3.9498
X7.827Y-3.9498
X7.827Y-3.9498
X7.827Y-4.0679
X7.827Y-4.0679
X7.827Y-4.0679
X7.827Y-4.186
X7.827Y-4.3041
X7.827Y-4.4222
X7.827Y-4.5403
X7.827Y-4.6584
X7.827Y-4.7765
X7.827Y-4.8946
X7.827Y-5.0128
X7.827Y-5.1309
X7.827Y-5.249
X7.827Y-5.3671
X7.827Y-5.4852
T5
X7.17Y-2.4335
X5.685Y-2.05
X5.685Y-2.15
X7.1725Y-2.5465
T0
M30
