G04 #@! TF.GenerationSoftware,KiCad,Pcbnew,(5.0.0-rc2-dev-491-g430239499)*
G04 #@! TF.CreationDate,2018-09-21T18:59:49-07:00*
G04 #@! TF.ProjectId,PCB_Rev3,5043425F526576332E6B696361645F70,rev?*
G04 #@! TF.SameCoordinates,Original*
G04 #@! TF.FileFunction,Paste,Top*
G04 #@! TF.FilePolarity,Positive*
%FSLAX46Y46*%
G04 Gerber Fmt 4.6, Leading zero omitted, Abs format (unit mm)*
G04 Created by KiCad (PCBNEW (5.0.0-rc2-dev-491-g430239499)) date 09/21/18 18:59:49*
%MOMM*%
%LPD*%
G01*
G04 APERTURE LIST*
%ADD10R,2.000001X2.000001*%
%ADD11R,0.910001X0.910001*%
%ADD12R,0.599999X0.240000*%
%ADD13R,0.000003X0.150002*%
%ADD14R,0.700001X0.850001*%
%ADD15R,0.025400X0.025400*%
%ADD16R,0.349999X1.450000*%
%ADD17R,0.349999X1.799999*%
%ADD18R,0.240000X0.599999*%
%ADD19R,0.900000X1.200000*%
%ADD20R,1.200000X0.900000*%
%ADD21R,0.750000X1.200000*%
%ADD22R,1.200000X0.750000*%
%ADD23R,1.250000X1.500000*%
%ADD24R,1.500000X1.250000*%
%ADD25R,2.500000X3.300000*%
%ADD26R,3.300000X2.500000*%
%ADD27R,0.980000X3.400000*%
%ADD28R,2.000000X1.700000*%
%ADD29R,0.230000X0.350000*%
%ADD30R,0.350000X0.230000*%
%ADD31R,0.500000X0.350000*%
%ADD32R,0.250000X0.750000*%
%ADD33R,0.650000X1.560000*%
%ADD34R,1.400000X0.300000*%
%ADD35R,0.300000X1.400000*%
%ADD36R,0.750000X0.250000*%
%ADD37R,1.450000X0.450000*%
%ADD38R,1.600000X2.000000*%
%ADD39R,1.600000X4.900000*%
%ADD40R,1.500000X4.900000*%
%ADD41R,0.350000X0.350000*%
%ADD42R,0.500000X1.050000*%
%ADD43R,2.000000X0.900000*%
%ADD44R,0.900000X2.000000*%
%ADD45R,2.580000X1.000000*%
%ADD46R,0.800000X0.900000*%
G04 APERTURE END LIST*
D10*
X153440000Y-125325002D03*
X156440000Y-125325005D03*
X159440001Y-125325002D03*
X153440000Y-122325003D03*
X156440000Y-122325000D03*
X159440001Y-122325003D03*
X153440000Y-119325001D03*
X156440000Y-119325004D03*
X159440001Y-119325001D03*
D11*
X164490001Y-117475003D03*
X164490001Y-118745003D03*
X164490001Y-120015003D03*
X164490001Y-121285003D03*
X164490001Y-122555003D03*
X164490001Y-123825003D03*
X164490001Y-125095003D03*
X164490001Y-126365003D03*
X164490001Y-127635003D03*
X164490001Y-128905003D03*
X164490001Y-130175003D03*
X164465000Y-131875002D03*
X163195000Y-131875002D03*
X161925000Y-131875002D03*
X160655000Y-131875002D03*
X159385000Y-131875002D03*
X158115000Y-131875002D03*
X156845000Y-131875002D03*
X155575000Y-131875002D03*
X154305000Y-131875002D03*
X153035000Y-131875002D03*
X151765000Y-131875002D03*
X150495000Y-131875002D03*
X149225000Y-131875002D03*
X147955000Y-131875002D03*
X146685000Y-131875002D03*
X145415000Y-131875002D03*
X145389999Y-130175003D03*
X145389999Y-128905003D03*
X145389999Y-127635003D03*
X145389999Y-126365003D03*
X145389999Y-125095003D03*
X145389999Y-123825003D03*
X145389999Y-122555003D03*
X145389999Y-121285003D03*
X145389999Y-120015003D03*
X145389999Y-118745003D03*
X145389999Y-117475003D03*
X145415000Y-115775001D03*
X146685000Y-115775001D03*
X147955000Y-115775001D03*
X149225000Y-115775001D03*
X150495000Y-115775001D03*
X151765000Y-115775001D03*
X153035000Y-115775001D03*
X154305000Y-115775001D03*
X155575000Y-115775001D03*
X156845000Y-115775001D03*
X158115000Y-115775001D03*
X159385000Y-115775001D03*
X160655000Y-115775001D03*
X161925000Y-115775001D03*
X163195000Y-115775001D03*
X164465000Y-115775001D03*
D12*
X164390499Y-61253500D03*
X164390499Y-60753501D03*
D13*
X164390499Y-60003500D03*
D14*
X164390499Y-60003500D03*
D13*
X164390499Y-60003500D03*
D15*
X165290500Y-59753500D03*
D16*
X165290500Y-59753500D03*
D15*
X165790499Y-59928501D03*
D17*
X165790499Y-59928501D03*
D15*
X166290498Y-59753500D03*
D16*
X166290498Y-59753500D03*
D13*
X167190499Y-60003500D03*
D14*
X167190499Y-60003500D03*
D13*
X167190499Y-60003500D03*
D12*
X167190499Y-60753501D03*
X167190499Y-61253500D03*
D18*
X166540497Y-61678500D03*
X166040499Y-61678500D03*
X165540497Y-61678500D03*
X165040498Y-61678500D03*
D19*
X193929000Y-105875000D03*
X193929000Y-103675000D03*
D20*
X179682500Y-48679100D03*
X177482500Y-48679100D03*
X179725500Y-50647600D03*
X177525500Y-50647600D03*
X189407800Y-116001800D03*
X187207800Y-116001800D03*
X191398800Y-116001800D03*
X193598800Y-116001800D03*
X190246000Y-84963000D03*
X188046000Y-84963000D03*
D21*
X188341000Y-101661000D03*
X188341000Y-99761000D03*
X185039000Y-99700000D03*
X185039000Y-101600000D03*
X183515000Y-103632000D03*
X183515000Y-101732000D03*
X186563000Y-103693000D03*
X186563000Y-101793000D03*
X189992000Y-101793000D03*
X189992000Y-103693000D03*
D22*
X175514000Y-103251000D03*
X173614000Y-103251000D03*
X173609000Y-104775000D03*
X175509000Y-104775000D03*
D21*
X187769500Y-138117500D03*
X187769500Y-140017500D03*
X186118500Y-140017500D03*
X186118500Y-138117500D03*
D23*
X184086500Y-137985500D03*
X184086500Y-135485500D03*
D22*
X188465500Y-127698500D03*
X186565500Y-127698500D03*
D21*
X177985500Y-138176000D03*
X177985500Y-140076000D03*
D22*
X180088500Y-131762500D03*
X181988500Y-131762500D03*
X173855442Y-86183407D03*
X171955442Y-86183407D03*
D21*
X176911000Y-122237500D03*
X176911000Y-124137500D03*
D22*
X171955442Y-87707407D03*
X173855442Y-87707407D03*
D21*
X178435000Y-124206000D03*
X178435000Y-122306000D03*
X171323000Y-76642000D03*
X171323000Y-74742000D03*
D24*
X190627000Y-82677000D03*
X188127000Y-82677000D03*
D21*
X182372000Y-82865000D03*
X182372000Y-80965000D03*
D22*
X188087000Y-80010000D03*
X189987000Y-80010000D03*
X156469000Y-70866000D03*
X158369000Y-70866000D03*
X158369000Y-69342000D03*
X156469000Y-69342000D03*
D23*
X158178500Y-59416000D03*
X158178500Y-56916000D03*
X160274000Y-56872500D03*
X160274000Y-59372500D03*
D21*
X162242500Y-59502000D03*
X162242500Y-57602000D03*
D22*
X171191000Y-64706500D03*
X169291000Y-64706500D03*
D21*
X169545000Y-57599500D03*
X169545000Y-59499500D03*
D23*
X175514000Y-56852500D03*
X175514000Y-59352500D03*
X173418500Y-56832500D03*
X173418500Y-59332500D03*
X171323000Y-59372500D03*
X171323000Y-56872500D03*
D25*
X150431500Y-64643000D03*
X143631500Y-64643000D03*
D26*
X152146000Y-52064500D03*
X152146000Y-58864500D03*
D27*
X166920000Y-54864000D03*
X164550000Y-54864000D03*
D19*
X192151000Y-103675000D03*
X192151000Y-105875000D03*
X177800000Y-104605000D03*
X177800000Y-102405000D03*
D20*
X186204500Y-134810500D03*
X188404500Y-134810500D03*
D19*
X180657500Y-140398500D03*
X180657500Y-142598500D03*
X178117500Y-133118500D03*
X178117500Y-135318500D03*
D20*
X171577000Y-79629000D03*
X173777000Y-79629000D03*
X179916000Y-127508000D03*
X177716000Y-127508000D03*
D19*
X169926000Y-88433000D03*
X169926000Y-86233000D03*
D20*
X177419000Y-119126000D03*
X179619000Y-119126000D03*
X182159000Y-79121000D03*
X179959000Y-79121000D03*
D19*
X152775720Y-70124968D03*
X152775720Y-72324968D03*
X162179000Y-70782000D03*
X162179000Y-72982000D03*
X163957000Y-70823468D03*
X163957000Y-73023468D03*
D28*
X158178500Y-62230000D03*
X154178500Y-62230000D03*
D19*
X150934220Y-70145468D03*
X150934220Y-72345468D03*
X162242500Y-61531500D03*
X162242500Y-63731500D03*
D20*
X171259500Y-63055500D03*
X173459500Y-63055500D03*
X173439000Y-61404500D03*
X171239000Y-61404500D03*
X167068500Y-64706500D03*
X164868500Y-64706500D03*
D29*
X188322000Y-108540000D03*
X187892000Y-108540000D03*
X187462000Y-108540000D03*
X187032000Y-108540000D03*
X186602000Y-108540000D03*
X186172000Y-108540000D03*
X185742000Y-108540000D03*
X185312000Y-108540000D03*
X188322000Y-106090000D03*
X187892000Y-106090000D03*
X187462000Y-106090000D03*
X187032000Y-106090000D03*
X186602000Y-106090000D03*
X186172000Y-106090000D03*
X185742000Y-106090000D03*
D30*
X188292000Y-107960000D03*
X185342000Y-107960000D03*
X188292000Y-107530000D03*
X185342000Y-107530000D03*
X188292000Y-107100000D03*
X185342000Y-107100000D03*
X188292000Y-106670000D03*
X185342000Y-106670000D03*
D29*
X185312000Y-106090000D03*
D31*
X175759000Y-108163000D03*
X175759000Y-107513000D03*
X175759000Y-106863000D03*
X175759000Y-106213000D03*
X177809000Y-106213000D03*
X177809000Y-106863000D03*
X177809000Y-107513000D03*
X177809000Y-108163000D03*
D32*
X188138500Y-129704500D03*
X187638500Y-129704500D03*
X187138500Y-129704500D03*
X186638500Y-129704500D03*
X186638500Y-132804500D03*
X187138500Y-132804500D03*
X187638500Y-132804500D03*
X188138500Y-132804500D03*
D33*
X180911500Y-138018500D03*
X181861500Y-138018500D03*
X179961500Y-138018500D03*
X179961500Y-135318500D03*
X180911500Y-135318500D03*
X181861500Y-135318500D03*
D34*
X170456500Y-84312000D03*
X170456500Y-83812000D03*
X170456500Y-83312000D03*
X170456500Y-82812000D03*
X170456500Y-82312000D03*
X174856500Y-82312000D03*
X174856500Y-82812000D03*
X174856500Y-83312000D03*
X174856500Y-83812000D03*
X174856500Y-84312000D03*
D35*
X180292500Y-125517000D03*
X180792500Y-125517000D03*
X181292500Y-125517000D03*
X181792500Y-125517000D03*
X182292500Y-125517000D03*
X182292500Y-121117000D03*
X181792500Y-121117000D03*
X181292500Y-121117000D03*
X180792500Y-121117000D03*
X180292500Y-121117000D03*
D36*
X176149000Y-74946000D03*
X176149000Y-75446000D03*
X176149000Y-75946000D03*
X176149000Y-76446000D03*
X173049000Y-76446000D03*
X173049000Y-75946000D03*
X173049000Y-75446000D03*
X173049000Y-74946000D03*
D33*
X186052500Y-79993500D03*
X185102500Y-79993500D03*
X184152500Y-79993500D03*
X184152500Y-82693500D03*
X186052500Y-82693500D03*
X185102500Y-82693500D03*
D37*
X155252220Y-74668968D03*
X155252220Y-74018968D03*
X155252220Y-73368968D03*
X155252220Y-72718968D03*
X159652220Y-72718968D03*
X159652220Y-73368968D03*
X159652220Y-74018968D03*
X159652220Y-74668968D03*
D38*
X168342832Y-105532168D03*
X168342832Y-101532168D03*
X165354000Y-101537000D03*
X165354000Y-105537000D03*
D21*
X163576000Y-135829000D03*
X163576000Y-137729000D03*
X161925000Y-137795000D03*
X161925000Y-135895000D03*
X158496000Y-135895000D03*
X158496000Y-137795000D03*
D39*
X144975000Y-143256000D03*
X153475000Y-143256000D03*
D40*
X149225000Y-143256000D03*
D39*
X153475000Y-143256000D03*
X144975000Y-143256000D03*
D19*
X156845000Y-137795000D03*
X156845000Y-135595000D03*
X160274000Y-138049000D03*
X160274000Y-135849000D03*
D41*
X149225000Y-136194800D03*
D42*
X148600000Y-135869799D03*
D41*
X149225000Y-135544798D03*
D42*
X149850000Y-135869799D03*
D19*
X181864000Y-105451000D03*
X181864000Y-103251000D03*
X180213000Y-103251000D03*
X180213000Y-105451000D03*
D43*
X173988000Y-120036000D03*
X173988000Y-124036000D03*
X173988000Y-128036000D03*
X173988000Y-132036000D03*
X170788000Y-122036000D03*
X170788000Y-126036000D03*
X170788000Y-130036000D03*
X170788000Y-134036000D03*
X173988000Y-136036000D03*
X170788000Y-138036000D03*
X195988000Y-120036000D03*
X195988000Y-124036000D03*
X195988000Y-128036000D03*
X195988000Y-132036000D03*
X192788000Y-122036000D03*
X192788000Y-126036000D03*
X192788000Y-130036000D03*
X192788000Y-134036000D03*
X195988000Y-136036000D03*
X192788000Y-138036000D03*
D44*
X191630000Y-72261000D03*
X189630000Y-69061000D03*
X187630000Y-72261000D03*
X183630000Y-72261000D03*
X179630000Y-72261000D03*
X175630000Y-72261000D03*
X185630000Y-69061000D03*
X181630000Y-69061000D03*
X177630000Y-69061000D03*
X173630000Y-69061000D03*
X191630000Y-94261000D03*
X189630000Y-91061000D03*
X187630000Y-94261000D03*
X183630000Y-94261000D03*
X179630000Y-94261000D03*
X175630000Y-94261000D03*
X185630000Y-91061000D03*
X181630000Y-91061000D03*
X177630000Y-91061000D03*
X173630000Y-91061000D03*
D20*
X136992000Y-122618500D03*
X139192000Y-122618500D03*
D22*
X163952000Y-142240000D03*
X162052000Y-142240000D03*
D45*
X143362000Y-108519000D03*
X139192000Y-108519000D03*
X143362000Y-106519000D03*
X139192000Y-106519000D03*
X143362000Y-104519000D03*
X139192000Y-104519000D03*
X143362000Y-102519000D03*
X139192000Y-102519000D03*
X143362000Y-100519000D03*
X139192000Y-100519000D03*
X143362000Y-98519000D03*
X139192000Y-98519000D03*
X143362000Y-96519000D03*
X139192000Y-96519000D03*
X143362000Y-94519000D03*
X139192000Y-94519000D03*
X143362000Y-92519000D03*
X139192000Y-92519000D03*
X143362000Y-90519000D03*
X139192000Y-90519000D03*
X143362000Y-88519000D03*
X139192000Y-88519000D03*
X143362000Y-86519000D03*
X139192000Y-86519000D03*
X143362000Y-84519000D03*
X139192000Y-84519000D03*
X143362000Y-82519000D03*
X139192000Y-82519000D03*
X143362000Y-80519000D03*
X139192000Y-80519000D03*
X143362000Y-78519000D03*
X139192000Y-78519000D03*
X143362000Y-76519000D03*
X139192000Y-76519000D03*
X143362000Y-74519000D03*
X139192000Y-74519000D03*
D20*
X136992000Y-128524000D03*
X139192000Y-128524000D03*
X139192000Y-126873000D03*
X136992000Y-126873000D03*
X164125000Y-140716000D03*
X161925000Y-140716000D03*
X137033000Y-125222000D03*
X139233000Y-125222000D03*
X183664500Y-48641000D03*
X185864500Y-48641000D03*
X189026800Y-48666400D03*
X191226800Y-48666400D03*
X185905500Y-50546000D03*
X183705500Y-50546000D03*
X189082500Y-50546000D03*
X191282500Y-50546000D03*
X183743600Y-57048400D03*
X185943600Y-57048400D03*
X188942800Y-57048400D03*
X191142800Y-57048400D03*
D46*
X184785000Y-52975000D03*
X185735000Y-54975000D03*
X183835000Y-54975000D03*
X189194400Y-54949600D03*
X191094400Y-54949600D03*
X190144400Y-52949600D03*
M02*
