G04 #@! TF.GenerationSoftware,KiCad,Pcbnew,(5.0.0-rc2-dev-491-g430239499)*
G04 #@! TF.CreationDate,2018-09-21T18:59:49-07:00*
G04 #@! TF.ProjectId,PCB_Rev3,5043425F526576332E6B696361645F70,rev?*
G04 #@! TF.SameCoordinates,Original*
G04 #@! TF.FileFunction,Legend,Bot*
G04 #@! TF.FilePolarity,Positive*
%FSLAX46Y46*%
G04 Gerber Fmt 4.6, Leading zero omitted, Abs format (unit mm)*
G04 Created by KiCad (PCBNEW (5.0.0-rc2-dev-491-g430239499)) date 09/21/18 18:59:49*
%MOMM*%
%LPD*%
G01*
G04 APERTURE LIST*
%ADD10C,0.300000*%
G04 APERTURE END LIST*
D10*
X197631357Y-67490971D02*
X197631357Y-65990971D01*
X196917071Y-67490971D02*
X196917071Y-65990971D01*
X196417071Y-67062400D01*
X195917071Y-65990971D01*
X195917071Y-67490971D01*
X195202785Y-65990971D02*
X195202785Y-67205257D01*
X195131357Y-67348114D01*
X195059928Y-67419542D01*
X194917071Y-67490971D01*
X194631357Y-67490971D01*
X194488500Y-67419542D01*
X194417071Y-67348114D01*
X194345642Y-67205257D01*
X194345642Y-65990971D01*
X193631357Y-67348114D02*
X193559928Y-67419542D01*
X193631357Y-67490971D01*
X193702785Y-67419542D01*
X193631357Y-67348114D01*
X193631357Y-67490971D01*
X193631357Y-66562400D02*
X193559928Y-66633828D01*
X193631357Y-66705257D01*
X193702785Y-66633828D01*
X193631357Y-66562400D01*
X193631357Y-66705257D01*
X191059928Y-67490971D02*
X191774214Y-67490971D01*
X191774214Y-65990971D01*
X190631357Y-67419542D02*
X190417071Y-67490971D01*
X190059928Y-67490971D01*
X189917071Y-67419542D01*
X189845642Y-67348114D01*
X189774214Y-67205257D01*
X189774214Y-67062400D01*
X189845642Y-66919542D01*
X189917071Y-66848114D01*
X190059928Y-66776685D01*
X190345642Y-66705257D01*
X190488500Y-66633828D01*
X190559928Y-66562400D01*
X190631357Y-66419542D01*
X190631357Y-66276685D01*
X190559928Y-66133828D01*
X190488500Y-66062400D01*
X190345642Y-65990971D01*
X189988500Y-65990971D01*
X189774214Y-66062400D01*
X189131357Y-67490971D02*
X189131357Y-65990971D01*
X188631357Y-67062400D01*
X188131357Y-65990971D01*
X188131357Y-67490971D01*
X187345642Y-67490971D02*
X187059928Y-67490971D01*
X186917071Y-67419542D01*
X186845642Y-67348114D01*
X186702785Y-67133828D01*
X186631357Y-66848114D01*
X186631357Y-66276685D01*
X186702785Y-66133828D01*
X186774214Y-66062400D01*
X186917071Y-65990971D01*
X187202785Y-65990971D01*
X187345642Y-66062400D01*
X187417071Y-66133828D01*
X187488500Y-66276685D01*
X187488500Y-66633828D01*
X187417071Y-66776685D01*
X187345642Y-66848114D01*
X187202785Y-66919542D01*
X186917071Y-66919542D01*
X186774214Y-66848114D01*
X186702785Y-66776685D01*
X186631357Y-66633828D01*
X185988500Y-67490971D02*
X185988500Y-65990971D01*
X185631357Y-65990971D01*
X185417071Y-66062400D01*
X185274214Y-66205257D01*
X185202785Y-66348114D01*
X185131357Y-66633828D01*
X185131357Y-66848114D01*
X185202785Y-67133828D01*
X185274214Y-67276685D01*
X185417071Y-67419542D01*
X185631357Y-67490971D01*
X185988500Y-67490971D01*
X184559928Y-67419542D02*
X184345642Y-67490971D01*
X183988500Y-67490971D01*
X183845642Y-67419542D01*
X183774214Y-67348114D01*
X183702785Y-67205257D01*
X183702785Y-67062400D01*
X183774214Y-66919542D01*
X183845642Y-66848114D01*
X183988500Y-66776685D01*
X184274214Y-66705257D01*
X184417071Y-66633828D01*
X184488500Y-66562400D01*
X184559928Y-66419542D01*
X184559928Y-66276685D01*
X184488500Y-66133828D01*
X184417071Y-66062400D01*
X184274214Y-65990971D01*
X183917071Y-65990971D01*
X183702785Y-66062400D01*
X182274214Y-67490971D02*
X183131357Y-67490971D01*
X182702785Y-67490971D02*
X182702785Y-65990971D01*
X182845642Y-66205257D01*
X182988500Y-66348114D01*
X183131357Y-66419542D01*
X196845642Y-68612400D02*
X196988500Y-68540971D01*
X197202785Y-68540971D01*
X197417071Y-68612400D01*
X197559928Y-68755257D01*
X197631357Y-68898114D01*
X197702785Y-69183828D01*
X197702785Y-69398114D01*
X197631357Y-69683828D01*
X197559928Y-69826685D01*
X197417071Y-69969542D01*
X197202785Y-70040971D01*
X197059928Y-70040971D01*
X196845642Y-69969542D01*
X196774214Y-69898114D01*
X196774214Y-69398114D01*
X197059928Y-69398114D01*
X196131357Y-70040971D02*
X196131357Y-68540971D01*
X195559928Y-68540971D01*
X195417071Y-68612400D01*
X195345642Y-68683828D01*
X195274214Y-68826685D01*
X195274214Y-69040971D01*
X195345642Y-69183828D01*
X195417071Y-69255257D01*
X195559928Y-69326685D01*
X196131357Y-69326685D01*
X194702785Y-69969542D02*
X194488500Y-70040971D01*
X194131357Y-70040971D01*
X193988500Y-69969542D01*
X193917071Y-69898114D01*
X193845642Y-69755257D01*
X193845642Y-69612400D01*
X193917071Y-69469542D01*
X193988500Y-69398114D01*
X194131357Y-69326685D01*
X194417071Y-69255257D01*
X194559928Y-69183828D01*
X194631357Y-69112400D01*
X194702785Y-68969542D01*
X194702785Y-68826685D01*
X194631357Y-68683828D01*
X194559928Y-68612400D01*
X194417071Y-68540971D01*
X194059928Y-68540971D01*
X193845642Y-68612400D01*
X193202785Y-69898114D02*
X193131357Y-69969542D01*
X193202785Y-70040971D01*
X193274214Y-69969542D01*
X193202785Y-69898114D01*
X193202785Y-70040971D01*
X193202785Y-69112400D02*
X193131357Y-69183828D01*
X193202785Y-69255257D01*
X193274214Y-69183828D01*
X193202785Y-69112400D01*
X193202785Y-69255257D01*
X191345642Y-70040971D02*
X191345642Y-68540971D01*
X190845642Y-69612400D01*
X190345642Y-68540971D01*
X190345642Y-70040971D01*
X189702785Y-69612400D02*
X188988500Y-69612400D01*
X189845642Y-70040971D02*
X189345642Y-68540971D01*
X188845642Y-70040971D01*
X188488500Y-68540971D02*
X187488500Y-70040971D01*
X187488500Y-68540971D02*
X188488500Y-70040971D01*
X185774214Y-70040971D02*
X185774214Y-68540971D01*
X185274214Y-69612400D01*
X184774214Y-68540971D01*
X184774214Y-70040971D01*
X183845642Y-69183828D02*
X183988500Y-69112400D01*
X184059928Y-69040971D01*
X184131357Y-68898114D01*
X184131357Y-68826685D01*
X184059928Y-68683828D01*
X183988500Y-68612400D01*
X183845642Y-68540971D01*
X183559928Y-68540971D01*
X183417071Y-68612400D01*
X183345642Y-68683828D01*
X183274214Y-68826685D01*
X183274214Y-68898114D01*
X183345642Y-69040971D01*
X183417071Y-69112400D01*
X183559928Y-69183828D01*
X183845642Y-69183828D01*
X183988500Y-69255257D01*
X184059928Y-69326685D01*
X184131357Y-69469542D01*
X184131357Y-69755257D01*
X184059928Y-69898114D01*
X183988500Y-69969542D01*
X183845642Y-70040971D01*
X183559928Y-70040971D01*
X183417071Y-69969542D01*
X183345642Y-69898114D01*
X183274214Y-69755257D01*
X183274214Y-69469542D01*
X183345642Y-69326685D01*
X183417071Y-69255257D01*
X183559928Y-69183828D01*
X181631357Y-70183828D02*
X181774214Y-70112400D01*
X181917071Y-69969542D01*
X182131357Y-69755257D01*
X182274214Y-69683828D01*
X182417071Y-69683828D01*
X182345642Y-70040971D02*
X182488500Y-69969542D01*
X182631357Y-69826685D01*
X182702785Y-69540971D01*
X182702785Y-69040971D01*
X182631357Y-68755257D01*
X182488500Y-68612400D01*
X182345642Y-68540971D01*
X182059928Y-68540971D01*
X181917071Y-68612400D01*
X181774214Y-68755257D01*
X181702785Y-69040971D01*
X181702785Y-69540971D01*
X181774214Y-69826685D01*
X181917071Y-69969542D01*
X182059928Y-70040971D01*
X182345642Y-70040971D01*
X197131357Y-71805257D02*
X196917071Y-71876685D01*
X196845642Y-71948114D01*
X196774214Y-72090971D01*
X196774214Y-72305257D01*
X196845642Y-72448114D01*
X196917071Y-72519542D01*
X197059928Y-72590971D01*
X197631357Y-72590971D01*
X197631357Y-71090971D01*
X197131357Y-71090971D01*
X196988500Y-71162400D01*
X196917071Y-71233828D01*
X196845642Y-71376685D01*
X196845642Y-71519542D01*
X196917071Y-71662400D01*
X196988500Y-71733828D01*
X197131357Y-71805257D01*
X197631357Y-71805257D01*
X196202785Y-72162400D02*
X195488500Y-72162400D01*
X196345642Y-72590971D02*
X195845642Y-71090971D01*
X195345642Y-72590971D01*
X193988500Y-72590971D02*
X194488500Y-71876685D01*
X194845642Y-72590971D02*
X194845642Y-71090971D01*
X194274214Y-71090971D01*
X194131357Y-71162400D01*
X194059928Y-71233828D01*
X193988500Y-71376685D01*
X193988500Y-71590971D01*
X194059928Y-71733828D01*
X194131357Y-71805257D01*
X194274214Y-71876685D01*
X194845642Y-71876685D01*
X193059928Y-71090971D02*
X192774214Y-71090971D01*
X192631357Y-71162400D01*
X192488500Y-71305257D01*
X192417071Y-71590971D01*
X192417071Y-72090971D01*
X192488500Y-72376685D01*
X192631357Y-72519542D01*
X192774214Y-72590971D01*
X193059928Y-72590971D01*
X193202785Y-72519542D01*
X193345642Y-72376685D01*
X193417071Y-72090971D01*
X193417071Y-71590971D01*
X193345642Y-71305257D01*
X193202785Y-71162400D01*
X193059928Y-71090971D01*
X191774214Y-72590971D02*
X191774214Y-71090971D01*
X191274214Y-72162400D01*
X190774214Y-71090971D01*
X190774214Y-72590971D01*
X190059928Y-71805257D02*
X189559928Y-71805257D01*
X189345642Y-72590971D02*
X190059928Y-72590971D01*
X190059928Y-71090971D01*
X189345642Y-71090971D01*
X188917071Y-71090971D02*
X188059928Y-71090971D01*
X188488500Y-72590971D02*
X188488500Y-71090971D01*
X187559928Y-71805257D02*
X187059928Y-71805257D01*
X186845642Y-72590971D02*
X187559928Y-72590971D01*
X187559928Y-71090971D01*
X186845642Y-71090971D01*
X185345642Y-72590971D02*
X185845642Y-71876685D01*
X186202785Y-72590971D02*
X186202785Y-71090971D01*
X185631357Y-71090971D01*
X185488500Y-71162400D01*
X185417071Y-71233828D01*
X185345642Y-71376685D01*
X185345642Y-71590971D01*
X185417071Y-71733828D01*
X185488500Y-71805257D01*
X185631357Y-71876685D01*
X186202785Y-71876685D01*
X184702785Y-72448114D02*
X184631357Y-72519542D01*
X184702785Y-72590971D01*
X184774214Y-72519542D01*
X184702785Y-72448114D01*
X184702785Y-72590971D01*
X184702785Y-71662400D02*
X184631357Y-71733828D01*
X184702785Y-71805257D01*
X184774214Y-71733828D01*
X184702785Y-71662400D01*
X184702785Y-71805257D01*
X182345642Y-71805257D02*
X182131357Y-71876685D01*
X182059928Y-71948114D01*
X181988500Y-72090971D01*
X181988500Y-72305257D01*
X182059928Y-72448114D01*
X182131357Y-72519542D01*
X182274214Y-72590971D01*
X182845642Y-72590971D01*
X182845642Y-71090971D01*
X182345642Y-71090971D01*
X182202785Y-71162400D01*
X182131357Y-71233828D01*
X182059928Y-71376685D01*
X182059928Y-71519542D01*
X182131357Y-71662400D01*
X182202785Y-71733828D01*
X182345642Y-71805257D01*
X182845642Y-71805257D01*
X181345642Y-72590971D02*
X181345642Y-71090971D01*
X180845642Y-72162400D01*
X180345642Y-71090971D01*
X180345642Y-72590971D01*
X179631357Y-72590971D02*
X179631357Y-71090971D01*
X179059928Y-71090971D01*
X178917071Y-71162400D01*
X178845642Y-71233828D01*
X178774214Y-71376685D01*
X178774214Y-71590971D01*
X178845642Y-71733828D01*
X178917071Y-71805257D01*
X179059928Y-71876685D01*
X179631357Y-71876685D01*
X178202785Y-71233828D02*
X178131357Y-71162400D01*
X177988500Y-71090971D01*
X177631357Y-71090971D01*
X177488500Y-71162400D01*
X177417071Y-71233828D01*
X177345642Y-71376685D01*
X177345642Y-71519542D01*
X177417071Y-71733828D01*
X178274214Y-72590971D01*
X177345642Y-72590971D01*
X176488500Y-71733828D02*
X176631357Y-71662400D01*
X176702785Y-71590971D01*
X176774214Y-71448114D01*
X176774214Y-71376685D01*
X176702785Y-71233828D01*
X176631357Y-71162400D01*
X176488500Y-71090971D01*
X176202785Y-71090971D01*
X176059928Y-71162400D01*
X175988500Y-71233828D01*
X175917071Y-71376685D01*
X175917071Y-71448114D01*
X175988500Y-71590971D01*
X176059928Y-71662400D01*
X176202785Y-71733828D01*
X176488500Y-71733828D01*
X176631357Y-71805257D01*
X176702785Y-71876685D01*
X176774214Y-72019542D01*
X176774214Y-72305257D01*
X176702785Y-72448114D01*
X176631357Y-72519542D01*
X176488500Y-72590971D01*
X176202785Y-72590971D01*
X176059928Y-72519542D01*
X175988500Y-72448114D01*
X175917071Y-72305257D01*
X175917071Y-72019542D01*
X175988500Y-71876685D01*
X176059928Y-71805257D01*
X176202785Y-71733828D01*
X174988500Y-71090971D02*
X174845642Y-71090971D01*
X174702785Y-71162400D01*
X174631357Y-71233828D01*
X174559928Y-71376685D01*
X174488500Y-71662400D01*
X174488500Y-72019542D01*
X174559928Y-72305257D01*
X174631357Y-72448114D01*
X174702785Y-72519542D01*
X174845642Y-72590971D01*
X174988500Y-72590971D01*
X175131357Y-72519542D01*
X175202785Y-72448114D01*
X175274214Y-72305257D01*
X175345642Y-72019542D01*
X175345642Y-71662400D01*
X175274214Y-71376685D01*
X175202785Y-71233828D01*
X175131357Y-71162400D01*
X174988500Y-71090971D01*
X197774214Y-73640971D02*
X197417071Y-75140971D01*
X197131357Y-74069542D01*
X196845642Y-75140971D01*
X196488500Y-73640971D01*
X195917071Y-75140971D02*
X195917071Y-74140971D01*
X195917071Y-73640971D02*
X195988500Y-73712400D01*
X195917071Y-73783828D01*
X195845642Y-73712400D01*
X195917071Y-73640971D01*
X195917071Y-73783828D01*
X194702785Y-74355257D02*
X195202785Y-74355257D01*
X195202785Y-75140971D02*
X195202785Y-73640971D01*
X194488500Y-73640971D01*
X193917071Y-75140971D02*
X193917071Y-74140971D01*
X193917071Y-73640971D02*
X193988500Y-73712400D01*
X193917071Y-73783828D01*
X193845642Y-73712400D01*
X193917071Y-73640971D01*
X193917071Y-73783828D01*
X193202785Y-74998114D02*
X193131357Y-75069542D01*
X193202785Y-75140971D01*
X193274214Y-75069542D01*
X193202785Y-74998114D01*
X193202785Y-75140971D01*
X193202785Y-74212400D02*
X193131357Y-74283828D01*
X193202785Y-74355257D01*
X193274214Y-74283828D01*
X193202785Y-74212400D01*
X193202785Y-74355257D01*
X190488500Y-74998114D02*
X190559928Y-75069542D01*
X190774214Y-75140971D01*
X190917071Y-75140971D01*
X191131357Y-75069542D01*
X191274214Y-74926685D01*
X191345642Y-74783828D01*
X191417071Y-74498114D01*
X191417071Y-74283828D01*
X191345642Y-73998114D01*
X191274214Y-73855257D01*
X191131357Y-73712400D01*
X190917071Y-73640971D01*
X190774214Y-73640971D01*
X190559928Y-73712400D01*
X190488500Y-73783828D01*
X188988500Y-74998114D02*
X189059928Y-75069542D01*
X189274214Y-75140971D01*
X189417071Y-75140971D01*
X189631357Y-75069542D01*
X189774214Y-74926685D01*
X189845642Y-74783828D01*
X189917071Y-74498114D01*
X189917071Y-74283828D01*
X189845642Y-73998114D01*
X189774214Y-73855257D01*
X189631357Y-73712400D01*
X189417071Y-73640971D01*
X189274214Y-73640971D01*
X189059928Y-73712400D01*
X188988500Y-73783828D01*
X188488500Y-73640971D02*
X187559928Y-73640971D01*
X188059928Y-74212400D01*
X187845642Y-74212400D01*
X187702785Y-74283828D01*
X187631357Y-74355257D01*
X187559928Y-74498114D01*
X187559928Y-74855257D01*
X187631357Y-74998114D01*
X187702785Y-75069542D01*
X187845642Y-75140971D01*
X188274214Y-75140971D01*
X188417071Y-75069542D01*
X188488500Y-74998114D01*
X186988500Y-73783828D02*
X186917071Y-73712400D01*
X186774214Y-73640971D01*
X186417071Y-73640971D01*
X186274214Y-73712400D01*
X186202785Y-73783828D01*
X186131357Y-73926685D01*
X186131357Y-74069542D01*
X186202785Y-74283828D01*
X187059928Y-75140971D01*
X186131357Y-75140971D01*
X185559928Y-73783828D02*
X185488500Y-73712400D01*
X185345642Y-73640971D01*
X184988500Y-73640971D01*
X184845642Y-73712400D01*
X184774214Y-73783828D01*
X184702785Y-73926685D01*
X184702785Y-74069542D01*
X184774214Y-74283828D01*
X185631357Y-75140971D01*
X184702785Y-75140971D01*
X183774214Y-73640971D02*
X183631357Y-73640971D01*
X183488500Y-73712400D01*
X183417071Y-73783828D01*
X183345642Y-73926685D01*
X183274214Y-74212400D01*
X183274214Y-74569542D01*
X183345642Y-74855257D01*
X183417071Y-74998114D01*
X183488500Y-75069542D01*
X183631357Y-75140971D01*
X183774214Y-75140971D01*
X183917071Y-75069542D01*
X183988500Y-74998114D01*
X184059928Y-74855257D01*
X184131357Y-74569542D01*
X184131357Y-74212400D01*
X184059928Y-73926685D01*
X183988500Y-73783828D01*
X183917071Y-73712400D01*
X183774214Y-73640971D01*
X182631357Y-75140971D02*
X182631357Y-73640971D01*
X182131357Y-74712400D01*
X181631357Y-73640971D01*
X181631357Y-75140971D01*
X180631357Y-73640971D02*
X180345642Y-73640971D01*
X180202785Y-73712400D01*
X180059928Y-73855257D01*
X179988500Y-74140971D01*
X179988500Y-74640971D01*
X180059928Y-74926685D01*
X180202785Y-75069542D01*
X180345642Y-75140971D01*
X180631357Y-75140971D01*
X180774214Y-75069542D01*
X180917071Y-74926685D01*
X180988500Y-74640971D01*
X180988500Y-74140971D01*
X180917071Y-73855257D01*
X180774214Y-73712400D01*
X180631357Y-73640971D01*
X179345642Y-75140971D02*
X179345642Y-73640971D01*
X178988500Y-73640971D01*
X178774214Y-73712400D01*
X178631357Y-73855257D01*
X178559928Y-73998114D01*
X178488500Y-74283828D01*
X178488500Y-74498114D01*
X178559928Y-74783828D01*
X178631357Y-74926685D01*
X178774214Y-75069542D01*
X178988500Y-75140971D01*
X179345642Y-75140971D01*
X197017057Y-54525957D02*
X196802771Y-54597385D01*
X196731342Y-54668814D01*
X196659914Y-54811671D01*
X196659914Y-55025957D01*
X196731342Y-55168814D01*
X196802771Y-55240242D01*
X196945628Y-55311671D01*
X197517057Y-55311671D01*
X197517057Y-53811671D01*
X197017057Y-53811671D01*
X196874200Y-53883100D01*
X196802771Y-53954528D01*
X196731342Y-54097385D01*
X196731342Y-54240242D01*
X196802771Y-54383100D01*
X196874200Y-54454528D01*
X197017057Y-54525957D01*
X197517057Y-54525957D01*
X196017057Y-55311671D02*
X196017057Y-54311671D01*
X196017057Y-54597385D02*
X195945628Y-54454528D01*
X195874200Y-54383100D01*
X195731342Y-54311671D01*
X195588485Y-54311671D01*
X194517057Y-55240242D02*
X194659914Y-55311671D01*
X194945628Y-55311671D01*
X195088485Y-55240242D01*
X195159914Y-55097385D01*
X195159914Y-54525957D01*
X195088485Y-54383100D01*
X194945628Y-54311671D01*
X194659914Y-54311671D01*
X194517057Y-54383100D01*
X194445628Y-54525957D01*
X194445628Y-54668814D01*
X195159914Y-54811671D01*
X194017057Y-54311671D02*
X193445628Y-54311671D01*
X193802771Y-53811671D02*
X193802771Y-55097385D01*
X193731342Y-55240242D01*
X193588485Y-55311671D01*
X193445628Y-55311671D01*
X193159914Y-54311671D02*
X192588485Y-54311671D01*
X192945628Y-53811671D02*
X192945628Y-55097385D01*
X192874200Y-55240242D01*
X192731342Y-55311671D01*
X192588485Y-55311671D01*
X190159914Y-53883100D02*
X190302771Y-53811671D01*
X190517057Y-53811671D01*
X190731342Y-53883100D01*
X190874200Y-54025957D01*
X190945628Y-54168814D01*
X191017057Y-54454528D01*
X191017057Y-54668814D01*
X190945628Y-54954528D01*
X190874200Y-55097385D01*
X190731342Y-55240242D01*
X190517057Y-55311671D01*
X190374200Y-55311671D01*
X190159914Y-55240242D01*
X190088485Y-55168814D01*
X190088485Y-54668814D01*
X190374200Y-54668814D01*
X189231342Y-55311671D02*
X189374200Y-55240242D01*
X189445628Y-55097385D01*
X189445628Y-53811671D01*
X188659914Y-55311671D02*
X188659914Y-54311671D01*
X188659914Y-53811671D02*
X188731342Y-53883100D01*
X188659914Y-53954528D01*
X188588485Y-53883100D01*
X188659914Y-53811671D01*
X188659914Y-53954528D01*
X187302771Y-55311671D02*
X187302771Y-53811671D01*
X187302771Y-55240242D02*
X187445628Y-55311671D01*
X187731342Y-55311671D01*
X187874200Y-55240242D01*
X187945628Y-55168814D01*
X188017057Y-55025957D01*
X188017057Y-54597385D01*
X187945628Y-54454528D01*
X187874200Y-54383100D01*
X187731342Y-54311671D01*
X187445628Y-54311671D01*
X187302771Y-54383100D01*
X185945628Y-55311671D02*
X185945628Y-53811671D01*
X185945628Y-55240242D02*
X186088485Y-55311671D01*
X186374200Y-55311671D01*
X186517057Y-55240242D01*
X186588485Y-55168814D01*
X186659914Y-55025957D01*
X186659914Y-54597385D01*
X186588485Y-54454528D01*
X186517057Y-54383100D01*
X186374200Y-54311671D01*
X186088485Y-54311671D01*
X185945628Y-54383100D01*
X184659914Y-55240242D02*
X184802771Y-55311671D01*
X185088485Y-55311671D01*
X185231342Y-55240242D01*
X185302771Y-55097385D01*
X185302771Y-54525957D01*
X185231342Y-54383100D01*
X185088485Y-54311671D01*
X184802771Y-54311671D01*
X184659914Y-54383100D01*
X184588485Y-54525957D01*
X184588485Y-54668814D01*
X185302771Y-54811671D01*
X183945628Y-54311671D02*
X183945628Y-55311671D01*
X183945628Y-54454528D02*
X183874200Y-54383100D01*
X183731342Y-54311671D01*
X183517057Y-54311671D01*
X183374200Y-54383100D01*
X183302771Y-54525957D01*
X183302771Y-55311671D01*
X197588485Y-57790242D02*
X197374200Y-57861671D01*
X197017057Y-57861671D01*
X196874200Y-57790242D01*
X196802771Y-57718814D01*
X196731342Y-57575957D01*
X196731342Y-57433100D01*
X196802771Y-57290242D01*
X196874200Y-57218814D01*
X197017057Y-57147385D01*
X197302771Y-57075957D01*
X197445628Y-57004528D01*
X197517057Y-56933100D01*
X197588485Y-56790242D01*
X197588485Y-56647385D01*
X197517057Y-56504528D01*
X197445628Y-56433100D01*
X197302771Y-56361671D01*
X196945628Y-56361671D01*
X196731342Y-56433100D01*
X195517057Y-57790242D02*
X195659914Y-57861671D01*
X195945628Y-57861671D01*
X196088485Y-57790242D01*
X196159914Y-57647385D01*
X196159914Y-57075957D01*
X196088485Y-56933100D01*
X195945628Y-56861671D01*
X195659914Y-56861671D01*
X195517057Y-56933100D01*
X195445628Y-57075957D01*
X195445628Y-57218814D01*
X196159914Y-57361671D01*
X194802771Y-56861671D02*
X194802771Y-57861671D01*
X194802771Y-57004528D02*
X194731342Y-56933100D01*
X194588485Y-56861671D01*
X194374200Y-56861671D01*
X194231342Y-56933100D01*
X194159914Y-57075957D01*
X194159914Y-57861671D01*
X193445628Y-57861671D02*
X193445628Y-56861671D01*
X193445628Y-56361671D02*
X193517057Y-56433100D01*
X193445628Y-56504528D01*
X193374200Y-56433100D01*
X193445628Y-56361671D01*
X193445628Y-56504528D01*
X192517057Y-57861671D02*
X192659914Y-57790242D01*
X192731342Y-57718814D01*
X192802771Y-57575957D01*
X192802771Y-57147385D01*
X192731342Y-57004528D01*
X192659914Y-56933100D01*
X192517057Y-56861671D01*
X192302771Y-56861671D01*
X192159914Y-56933100D01*
X192088485Y-57004528D01*
X192017057Y-57147385D01*
X192017057Y-57575957D01*
X192088485Y-57718814D01*
X192159914Y-57790242D01*
X192302771Y-57861671D01*
X192517057Y-57861671D01*
X191374200Y-57861671D02*
X191374200Y-56861671D01*
X191374200Y-57147385D02*
X191302771Y-57004528D01*
X191231342Y-56933100D01*
X191088485Y-56861671D01*
X190945628Y-56861671D01*
X189302771Y-57861671D02*
X189302771Y-56361671D01*
X188731342Y-56361671D01*
X188588485Y-56433100D01*
X188517057Y-56504528D01*
X188445628Y-56647385D01*
X188445628Y-56861671D01*
X188517057Y-57004528D01*
X188588485Y-57075957D01*
X188731342Y-57147385D01*
X189302771Y-57147385D01*
X187802771Y-57861671D02*
X187802771Y-56861671D01*
X187802771Y-57147385D02*
X187731342Y-57004528D01*
X187659914Y-56933100D01*
X187517057Y-56861671D01*
X187374200Y-56861671D01*
X186659914Y-57861671D02*
X186802771Y-57790242D01*
X186874200Y-57718814D01*
X186945628Y-57575957D01*
X186945628Y-57147385D01*
X186874200Y-57004528D01*
X186802771Y-56933100D01*
X186659914Y-56861671D01*
X186445628Y-56861671D01*
X186302771Y-56933100D01*
X186231342Y-57004528D01*
X186159914Y-57147385D01*
X186159914Y-57575957D01*
X186231342Y-57718814D01*
X186302771Y-57790242D01*
X186445628Y-57861671D01*
X186659914Y-57861671D01*
X185517057Y-56861671D02*
X185517057Y-58147385D01*
X185588485Y-58290242D01*
X185731342Y-58361671D01*
X185802771Y-58361671D01*
X185517057Y-56361671D02*
X185588485Y-56433100D01*
X185517057Y-56504528D01*
X185445628Y-56433100D01*
X185517057Y-56361671D01*
X185517057Y-56504528D01*
X184231342Y-57790242D02*
X184374200Y-57861671D01*
X184659914Y-57861671D01*
X184802771Y-57790242D01*
X184874200Y-57647385D01*
X184874200Y-57075957D01*
X184802771Y-56933100D01*
X184659914Y-56861671D01*
X184374200Y-56861671D01*
X184231342Y-56933100D01*
X184159914Y-57075957D01*
X184159914Y-57218814D01*
X184874200Y-57361671D01*
X182874200Y-57790242D02*
X183017057Y-57861671D01*
X183302771Y-57861671D01*
X183445628Y-57790242D01*
X183517057Y-57718814D01*
X183588485Y-57575957D01*
X183588485Y-57147385D01*
X183517057Y-57004528D01*
X183445628Y-56933100D01*
X183302771Y-56861671D01*
X183017057Y-56861671D01*
X182874200Y-56933100D01*
X182445628Y-56861671D02*
X181874200Y-56861671D01*
X182231342Y-56361671D02*
X182231342Y-57647385D01*
X182159914Y-57790242D01*
X182017057Y-57861671D01*
X181874200Y-57861671D01*
X197659914Y-58911671D02*
X197302771Y-60411671D01*
X197017057Y-59340242D01*
X196731342Y-60411671D01*
X196374200Y-58911671D01*
X195802771Y-60411671D02*
X195802771Y-59411671D01*
X195802771Y-58911671D02*
X195874200Y-58983100D01*
X195802771Y-59054528D01*
X195731342Y-58983100D01*
X195802771Y-58911671D01*
X195802771Y-59054528D01*
X194588485Y-59625957D02*
X195088485Y-59625957D01*
X195088485Y-60411671D02*
X195088485Y-58911671D01*
X194374200Y-58911671D01*
X193802771Y-60411671D02*
X193802771Y-59411671D01*
X193802771Y-58911671D02*
X193874200Y-58983100D01*
X193802771Y-59054528D01*
X193731342Y-58983100D01*
X193802771Y-58911671D01*
X193802771Y-59054528D01*
X191945628Y-60411671D02*
X191945628Y-58911671D01*
X191445628Y-59983100D01*
X190945628Y-58911671D01*
X190945628Y-60411671D01*
X189588485Y-60411671D02*
X189588485Y-59625957D01*
X189659914Y-59483100D01*
X189802771Y-59411671D01*
X190088485Y-59411671D01*
X190231342Y-59483100D01*
X189588485Y-60340242D02*
X189731342Y-60411671D01*
X190088485Y-60411671D01*
X190231342Y-60340242D01*
X190302771Y-60197385D01*
X190302771Y-60054528D01*
X190231342Y-59911671D01*
X190088485Y-59840242D01*
X189731342Y-59840242D01*
X189588485Y-59768814D01*
X188874200Y-59411671D02*
X188874200Y-60911671D01*
X188874200Y-59483100D02*
X188731342Y-59411671D01*
X188445628Y-59411671D01*
X188302771Y-59483100D01*
X188231342Y-59554528D01*
X188159914Y-59697385D01*
X188159914Y-60125957D01*
X188231342Y-60268814D01*
X188302771Y-60340242D01*
X188445628Y-60411671D01*
X188731342Y-60411671D01*
X188874200Y-60340242D01*
X187517057Y-59411671D02*
X187517057Y-60911671D01*
X187517057Y-59483100D02*
X187374200Y-59411671D01*
X187088485Y-59411671D01*
X186945628Y-59483100D01*
X186874200Y-59554528D01*
X186802771Y-59697385D01*
X186802771Y-60125957D01*
X186874200Y-60268814D01*
X186945628Y-60340242D01*
X187088485Y-60411671D01*
X187374200Y-60411671D01*
X187517057Y-60340242D01*
X185588485Y-60340242D02*
X185731342Y-60411671D01*
X186017057Y-60411671D01*
X186159914Y-60340242D01*
X186231342Y-60197385D01*
X186231342Y-59625957D01*
X186159914Y-59483100D01*
X186017057Y-59411671D01*
X185731342Y-59411671D01*
X185588485Y-59483100D01*
X185517057Y-59625957D01*
X185517057Y-59768814D01*
X186231342Y-59911671D01*
X184874200Y-60411671D02*
X184874200Y-59411671D01*
X184874200Y-59697385D02*
X184802771Y-59554528D01*
X184731342Y-59483100D01*
X184588485Y-59411671D01*
X184445628Y-59411671D01*
X197517057Y-62961671D02*
X197517057Y-61461671D01*
X197159914Y-61461671D01*
X196945628Y-61533100D01*
X196802771Y-61675957D01*
X196731342Y-61818814D01*
X196659914Y-62104528D01*
X196659914Y-62318814D01*
X196731342Y-62604528D01*
X196802771Y-62747385D01*
X196945628Y-62890242D01*
X197159914Y-62961671D01*
X197517057Y-62961671D01*
X195445628Y-62890242D02*
X195588485Y-62961671D01*
X195874200Y-62961671D01*
X196017057Y-62890242D01*
X196088485Y-62747385D01*
X196088485Y-62175957D01*
X196017057Y-62033100D01*
X195874200Y-61961671D01*
X195588485Y-61961671D01*
X195445628Y-62033100D01*
X195374200Y-62175957D01*
X195374200Y-62318814D01*
X196088485Y-62461671D01*
X194874200Y-61961671D02*
X194517057Y-62961671D01*
X194159914Y-61961671D01*
X191945628Y-62175957D02*
X191731342Y-62247385D01*
X191659914Y-62318814D01*
X191588485Y-62461671D01*
X191588485Y-62675957D01*
X191659914Y-62818814D01*
X191731342Y-62890242D01*
X191874200Y-62961671D01*
X192445628Y-62961671D01*
X192445628Y-61461671D01*
X191945628Y-61461671D01*
X191802771Y-61533100D01*
X191731342Y-61604528D01*
X191659914Y-61747385D01*
X191659914Y-61890242D01*
X191731342Y-62033100D01*
X191802771Y-62104528D01*
X191945628Y-62175957D01*
X192445628Y-62175957D01*
X190731342Y-62961671D02*
X190874200Y-62890242D01*
X190945628Y-62818814D01*
X191017057Y-62675957D01*
X191017057Y-62247385D01*
X190945628Y-62104528D01*
X190874200Y-62033100D01*
X190731342Y-61961671D01*
X190517057Y-61961671D01*
X190374200Y-62033100D01*
X190302771Y-62104528D01*
X190231342Y-62247385D01*
X190231342Y-62675957D01*
X190302771Y-62818814D01*
X190374200Y-62890242D01*
X190517057Y-62961671D01*
X190731342Y-62961671D01*
X188945628Y-62961671D02*
X188945628Y-62175957D01*
X189017057Y-62033100D01*
X189159914Y-61961671D01*
X189445628Y-61961671D01*
X189588485Y-62033100D01*
X188945628Y-62890242D02*
X189088485Y-62961671D01*
X189445628Y-62961671D01*
X189588485Y-62890242D01*
X189659914Y-62747385D01*
X189659914Y-62604528D01*
X189588485Y-62461671D01*
X189445628Y-62390242D01*
X189088485Y-62390242D01*
X188945628Y-62318814D01*
X188231342Y-62961671D02*
X188231342Y-61961671D01*
X188231342Y-62247385D02*
X188159914Y-62104528D01*
X188088485Y-62033100D01*
X187945628Y-61961671D01*
X187802771Y-61961671D01*
X186659914Y-62961671D02*
X186659914Y-61461671D01*
X186659914Y-62890242D02*
X186802771Y-62961671D01*
X187088485Y-62961671D01*
X187231342Y-62890242D01*
X187302771Y-62818814D01*
X187374200Y-62675957D01*
X187374200Y-62247385D01*
X187302771Y-62104528D01*
X187231342Y-62033100D01*
X187088485Y-61961671D01*
X186802771Y-61961671D01*
X186659914Y-62033100D01*
X183945628Y-62961671D02*
X184445628Y-62247385D01*
X184802771Y-62961671D02*
X184802771Y-61461671D01*
X184231342Y-61461671D01*
X184088485Y-61533100D01*
X184017057Y-61604528D01*
X183945628Y-61747385D01*
X183945628Y-61961671D01*
X184017057Y-62104528D01*
X184088485Y-62175957D01*
X184231342Y-62247385D01*
X184802771Y-62247385D01*
X182731342Y-62890242D02*
X182874200Y-62961671D01*
X183159914Y-62961671D01*
X183302771Y-62890242D01*
X183374200Y-62747385D01*
X183374200Y-62175957D01*
X183302771Y-62033100D01*
X183159914Y-61961671D01*
X182874200Y-61961671D01*
X182731342Y-62033100D01*
X182659914Y-62175957D01*
X182659914Y-62318814D01*
X183374200Y-62461671D01*
X182159914Y-61961671D02*
X181802771Y-62961671D01*
X181445628Y-61961671D01*
X180874200Y-62818814D02*
X180802771Y-62890242D01*
X180874200Y-62961671D01*
X180945628Y-62890242D01*
X180874200Y-62818814D01*
X180874200Y-62961671D01*
X179159914Y-61461671D02*
X178231342Y-61461671D01*
X178731342Y-62033100D01*
X178517057Y-62033100D01*
X178374200Y-62104528D01*
X178302771Y-62175957D01*
X178231342Y-62318814D01*
X178231342Y-62675957D01*
X178302771Y-62818814D01*
X178374200Y-62890242D01*
X178517057Y-62961671D01*
X178945628Y-62961671D01*
X179088485Y-62890242D01*
X179159914Y-62818814D01*
M02*
