G04 #@! TF.GenerationSoftware,KiCad,Pcbnew,(5.0.0-rc2-dev-491-g430239499)*
G04 #@! TF.CreationDate,2018-09-21T18:59:49-07:00*
G04 #@! TF.ProjectId,PCB_Rev3,5043425F526576332E6B696361645F70,rev?*
G04 #@! TF.SameCoordinates,Original*
G04 #@! TF.FileFunction,Copper,L4,Bot,Signal*
G04 #@! TF.FilePolarity,Positive*
%FSLAX46Y46*%
G04 Gerber Fmt 4.6, Leading zero omitted, Abs format (unit mm)*
G04 Created by KiCad (PCBNEW (5.0.0-rc2-dev-491-g430239499)) date 09/21/18 18:59:49*
%MOMM*%
%LPD*%
G01*
G04 APERTURE LIST*
%ADD10R,1.700000X1.700000*%
%ADD11O,1.700000X1.700000*%
%ADD12R,1.600000X4.900000*%
%ADD13C,0.500000*%
%ADD14C,0.800000*%
%ADD15C,0.450000*%
%ADD16C,0.600000*%
%ADD17C,0.550000*%
%ADD18C,0.200000*%
%ADD19C,0.250000*%
%ADD20C,0.254000*%
G04 APERTURE END LIST*
D10*
X182181500Y-64681100D03*
D11*
X144399000Y-54610000D03*
D10*
X144399000Y-52070000D03*
D12*
X153475000Y-143256000D03*
X144975000Y-143256000D03*
D10*
X182118000Y-61810900D03*
D13*
X164211000Y-62992000D03*
X167259000Y-62801500D03*
X168846500Y-61404500D03*
D14*
X177038000Y-59182000D03*
X177038000Y-60642500D03*
X177038000Y-62103000D03*
X178435000Y-62103000D03*
X178435000Y-59182000D03*
X178435000Y-60642500D03*
X179895500Y-59182000D03*
X179895500Y-62103000D03*
X179895500Y-60642500D03*
D15*
X163258500Y-65341500D03*
D13*
X185039000Y-104648000D03*
X185039000Y-102870000D03*
D15*
X160274000Y-139446000D03*
X159385000Y-133731000D03*
D13*
X188341000Y-102870000D03*
X188214000Y-104648000D03*
D15*
X181864000Y-106670000D03*
X180530500Y-108140500D03*
X189357000Y-105283000D03*
X190171200Y-105283000D03*
X189357000Y-106783000D03*
X190171200Y-106783000D03*
X189357000Y-108283000D03*
X190171200Y-108283000D03*
X159867600Y-69342000D03*
X159867600Y-70866000D03*
X160731200Y-69342000D03*
X160731200Y-70866000D03*
D16*
X157480000Y-54991000D03*
X157480000Y-53975000D03*
X159258000Y-53975000D03*
X159258000Y-54991000D03*
X161036000Y-54991000D03*
X161036000Y-53975000D03*
X177673000Y-67056000D03*
X177673000Y-70993000D03*
X179578000Y-70485000D03*
X179578000Y-74168000D03*
X181610000Y-67056000D03*
X181610000Y-70993000D03*
D15*
X174625000Y-75184000D03*
X174625000Y-75819000D03*
D16*
X171323000Y-78105000D03*
X170053000Y-76708000D03*
X175260000Y-79629000D03*
X175260000Y-80899000D03*
X173736000Y-80899000D03*
X179451000Y-80518000D03*
X180848000Y-80518000D03*
X180848000Y-81788000D03*
X179451000Y-81788000D03*
X191643000Y-80010000D03*
X192405000Y-81915000D03*
X192405000Y-83312000D03*
X191897000Y-84963000D03*
X175387000Y-86106000D03*
X175387000Y-87757000D03*
X168402000Y-88519000D03*
X169926000Y-90170000D03*
X175895000Y-48641000D03*
X187452000Y-55753000D03*
X187452000Y-54610000D03*
X187452000Y-57023000D03*
X192659000Y-57023000D03*
X192659000Y-54610000D03*
X192659000Y-55753000D03*
X152781000Y-68707000D03*
X154305000Y-70104000D03*
X171323000Y-54991000D03*
X173355000Y-54991000D03*
X175514000Y-54991000D03*
X169545000Y-55880000D03*
X162306000Y-56007000D03*
X171323000Y-53594000D03*
X173355000Y-53594000D03*
X175514000Y-53594000D03*
X169545000Y-54356000D03*
X162306000Y-54610000D03*
X172720000Y-64770000D03*
X173990000Y-64770000D03*
X164211000Y-52324000D03*
X165735000Y-52324000D03*
X167259000Y-52324000D03*
X163957000Y-69342000D03*
X165354000Y-70866000D03*
X173609000Y-101981000D03*
X172085000Y-103251000D03*
X172085000Y-104775000D03*
X173609000Y-106045000D03*
D15*
X176784000Y-106299000D03*
X176784000Y-107315000D03*
X176784000Y-108331000D03*
D16*
X186563000Y-100203000D03*
X186563000Y-99060000D03*
X185039000Y-98044000D03*
X188341000Y-98044000D03*
X186563000Y-98044000D03*
X183515000Y-100076000D03*
X189992000Y-100076000D03*
X189992000Y-98933000D03*
X183515000Y-98933000D03*
X187198000Y-114554000D03*
X185547000Y-115951000D03*
X187198000Y-117475000D03*
X194056000Y-120015000D03*
X195834000Y-118745000D03*
X195834000Y-121412000D03*
X175895000Y-119126000D03*
X176911000Y-120650000D03*
X178435000Y-120650000D03*
X177800000Y-128778000D03*
X176149000Y-127508000D03*
X180086000Y-130429000D03*
X178054000Y-130429000D03*
X178054000Y-131572000D03*
X172593000Y-126111000D03*
X178816000Y-141478000D03*
X177165000Y-141478000D03*
X186055000Y-141478000D03*
X186055000Y-142494000D03*
X187833000Y-141478000D03*
X187833000Y-142494000D03*
X185674000Y-136017000D03*
X186817000Y-136017000D03*
X185674000Y-136779000D03*
X186817000Y-136779000D03*
X188468000Y-126492000D03*
X189865000Y-127635000D03*
X164338000Y-99568000D03*
X165354000Y-99568000D03*
X166370000Y-99568000D03*
X167386000Y-99568000D03*
X168275000Y-99568000D03*
X169164000Y-99568000D03*
X151003000Y-104521000D03*
X186563000Y-126492000D03*
X192024000Y-101727000D03*
X177800000Y-100838000D03*
X187452000Y-50419000D03*
X187452000Y-78740000D03*
X188595000Y-78740000D03*
D17*
X156845000Y-67945000D03*
X155956000Y-67945000D03*
D16*
X171323000Y-73279000D03*
X169926000Y-74676000D03*
X171450000Y-89154000D03*
X172466000Y-89154000D03*
X187452000Y-48768000D03*
X177546000Y-51943000D03*
X175895000Y-50673000D03*
X175514000Y-101473000D03*
X180213000Y-101727000D03*
X181864000Y-101727000D03*
X193040000Y-101727000D03*
X194056000Y-101727000D03*
X185039000Y-127762000D03*
X176911000Y-125603000D03*
X178435000Y-125603000D03*
X183515000Y-131826000D03*
X181991000Y-130556000D03*
X165735000Y-140716000D03*
X164846000Y-136271000D03*
X163195000Y-134366000D03*
X164084000Y-134366000D03*
X164846000Y-135382000D03*
X151003000Y-103378000D03*
X152400000Y-103378000D03*
X152400000Y-104521000D03*
X164312600Y-107442000D03*
X165328600Y-107442000D03*
X166344600Y-107442000D03*
X167309800Y-107442000D03*
X168325800Y-107442000D03*
X169341800Y-107442000D03*
D15*
X135940800Y-89560400D03*
X154330400Y-130606800D03*
X140665200Y-125095003D03*
X137007600Y-102514400D03*
X146710400Y-114198400D03*
X137312400Y-95554800D03*
X143560800Y-117449600D03*
X135940800Y-95707200D03*
X149250400Y-113030000D03*
X137363200Y-93522800D03*
X147929600Y-113588800D03*
X135940800Y-93624400D03*
X135890000Y-91643200D03*
X163372800Y-127609600D03*
X180035200Y-116230400D03*
X182321200Y-116738400D03*
X137414000Y-91541600D03*
X163322000Y-126339600D03*
X192786000Y-124409200D03*
X135940800Y-87579200D03*
X170789600Y-123901200D03*
X137312400Y-87528400D03*
X170789600Y-128981200D03*
X137312400Y-89509600D03*
X180340000Y-117906800D03*
X135890000Y-83616800D03*
X180340000Y-117043200D03*
X137312400Y-83515200D03*
X137261600Y-85496400D03*
X183540400Y-123494800D03*
X135890000Y-85547200D03*
X180797200Y-124155200D03*
X145592800Y-80518000D03*
X177901600Y-94284800D03*
X145542000Y-77520800D03*
X170078400Y-79654400D03*
X166116000Y-84683600D03*
X146112544Y-79849821D03*
X165150800Y-83972400D03*
X145542000Y-78536800D03*
X176987200Y-109778800D03*
X178460400Y-109778800D03*
X167843200Y-124714000D03*
X176276000Y-131521200D03*
X184251600Y-113487200D03*
X184251600Y-78232000D03*
X168503600Y-140055600D03*
X188925200Y-58470800D03*
X162407600Y-129844800D03*
X183743600Y-58775600D03*
X153670000Y-86360000D03*
X159385000Y-90170000D03*
X166370000Y-125095000D03*
X166370000Y-111125000D03*
X153035000Y-86995000D03*
X158115000Y-90805000D03*
X167005000Y-124460000D03*
X165735000Y-111760000D03*
X159715200Y-82854800D03*
X157988000Y-82854800D03*
X140716000Y-126873000D03*
X136093200Y-102514400D03*
X152349200Y-130454400D03*
X140716000Y-128524000D03*
X135229600Y-102514400D03*
X140665200Y-123850400D03*
X135940800Y-99568000D03*
X140614400Y-122555003D03*
X136956800Y-99568000D03*
X143560800Y-118719600D03*
X135940800Y-97536000D03*
X150469600Y-117144800D03*
X137363200Y-97536000D03*
D16*
X153416000Y-118618000D03*
X156416000Y-118618000D03*
X159416000Y-118618000D03*
X153416000Y-121618000D03*
X156416000Y-121618000D03*
X159416000Y-121618000D03*
X153416000Y-124618000D03*
X156416000Y-124618000D03*
X159416000Y-124618000D03*
X152781000Y-119253000D03*
X155781000Y-119253000D03*
X158781000Y-119253000D03*
X152781000Y-122253000D03*
X155781000Y-122253000D03*
X158781000Y-122253000D03*
X152781000Y-125253000D03*
X155781000Y-125253000D03*
X158781000Y-125253000D03*
X153416000Y-120015000D03*
X156416000Y-120015000D03*
X159416000Y-120015000D03*
X153416000Y-123015000D03*
X156416000Y-123015000D03*
X159416000Y-123015000D03*
X153416000Y-126015000D03*
X156416000Y-126015000D03*
X159416000Y-126015000D03*
X154051000Y-119253000D03*
X157051000Y-119253000D03*
X160051000Y-119253000D03*
X154051000Y-122253000D03*
X157051000Y-122253000D03*
X160051000Y-122253000D03*
X154051000Y-125253000D03*
X157051000Y-125253000D03*
X160051000Y-125253000D03*
D15*
X163576000Y-133223000D03*
X143891000Y-129679700D03*
X143891000Y-130822700D03*
X143891000Y-132346700D03*
X144018000Y-115697000D03*
X185115200Y-77724000D03*
D16*
X167259000Y-51054000D03*
X164211000Y-51054000D03*
X165735000Y-51054000D03*
X184111900Y-125488700D03*
D15*
X161950400Y-139293600D03*
X162775900Y-139293600D03*
X163626800Y-139293600D03*
X157975300Y-139141200D03*
X158991300Y-139141200D03*
X143891000Y-131445000D03*
D16*
X136359900Y-129971800D03*
X137655300Y-129971800D03*
X136994900Y-130721100D03*
D15*
X158127700Y-130581400D03*
D16*
X165735000Y-142367000D03*
D15*
X145161000Y-133858000D03*
X146161000Y-133858000D03*
X147161000Y-133858000D03*
X150288000Y-133858000D03*
X151288000Y-133858000D03*
X152288000Y-133858000D03*
X153288000Y-133858000D03*
X145161000Y-134858000D03*
X146161000Y-134858000D03*
X147161000Y-134858000D03*
X151288000Y-134858000D03*
X152288000Y-134858000D03*
X153288000Y-134858000D03*
X145161000Y-135858000D03*
X146161000Y-135858000D03*
X147161000Y-135858000D03*
X151288000Y-135858000D03*
X152288000Y-135858000D03*
X153288000Y-135858000D03*
X145161000Y-136858000D03*
X146161000Y-136858000D03*
X147161000Y-136858000D03*
X151288000Y-136858000D03*
X152288000Y-136858000D03*
X153288000Y-136858000D03*
X145161000Y-137858000D03*
X146161000Y-137858000D03*
X147161000Y-137858000D03*
X150288000Y-137858000D03*
X151288000Y-137858000D03*
X152288000Y-137858000D03*
X153288000Y-137858000D03*
X145161000Y-138858000D03*
X146161000Y-138858000D03*
X147161000Y-138858000D03*
X150288000Y-138858000D03*
X151288000Y-138858000D03*
X152288000Y-138858000D03*
X153288000Y-138858000D03*
X145161000Y-139858000D03*
X146161000Y-139858000D03*
X147161000Y-139858000D03*
X150288000Y-139858000D03*
X151288000Y-139858000D03*
X152288000Y-139858000D03*
X153288000Y-139858000D03*
X147161000Y-140858000D03*
X151288000Y-140858000D03*
X147161000Y-141858000D03*
X151288000Y-141858000D03*
X147161000Y-142858000D03*
X151288000Y-142858000D03*
X148050000Y-133858000D03*
X148050000Y-139858000D03*
X148050000Y-137858000D03*
X148050000Y-138858000D03*
D16*
X134620000Y-53498000D03*
X134620000Y-56498000D03*
X134620000Y-59498000D03*
X134620000Y-62498000D03*
X134620000Y-65498000D03*
X134620000Y-68498000D03*
X134620000Y-71498000D03*
X134620000Y-74498000D03*
X134620000Y-77498000D03*
X134620000Y-80498000D03*
X140335000Y-47498000D03*
X143335000Y-47498000D03*
X146335000Y-47498000D03*
X149335000Y-47498000D03*
X152335000Y-47498000D03*
X155335000Y-47498000D03*
X158335000Y-47498000D03*
X161335000Y-47498000D03*
X164335000Y-47498000D03*
X167335000Y-47498000D03*
X170335000Y-47498000D03*
X173335000Y-47498000D03*
X134493000Y-106553000D03*
X134493000Y-109553000D03*
X134493000Y-112553000D03*
X134493000Y-115553000D03*
X134493000Y-118553000D03*
X134493000Y-121553000D03*
X134493000Y-124553000D03*
X134493000Y-127553000D03*
X134493000Y-130553000D03*
X134493000Y-133553000D03*
X134493000Y-136553000D03*
X134493000Y-139553000D03*
X198805800Y-52324000D03*
X198805800Y-55324000D03*
X198805800Y-58324000D03*
X198805800Y-61324000D03*
X198805800Y-64324000D03*
X198805800Y-67324000D03*
X198805800Y-70324000D03*
X198805800Y-73324000D03*
X198805800Y-76324000D03*
X198805800Y-79324000D03*
X198805800Y-82324000D03*
X198805800Y-85324000D03*
X198805800Y-88324000D03*
X198805800Y-91324000D03*
X198805800Y-94324000D03*
X198805800Y-97324000D03*
X198805800Y-100324000D03*
X198805800Y-103324000D03*
X198805800Y-82324000D03*
X198805800Y-85324000D03*
X198805800Y-88324000D03*
X198805800Y-91324000D03*
X198805800Y-94324000D03*
X198805800Y-97324000D03*
X198805800Y-100324000D03*
X198805800Y-103324000D03*
X198805800Y-82324000D03*
X198805800Y-85324000D03*
X198805800Y-88324000D03*
X198805800Y-91324000D03*
X198805800Y-94324000D03*
X198805800Y-97324000D03*
X198805800Y-100324000D03*
X198805800Y-103324000D03*
X198805800Y-106324000D03*
X198805800Y-109324000D03*
X198805800Y-112324000D03*
X198805800Y-115324000D03*
X198805800Y-118324000D03*
X198805800Y-121324000D03*
X198805800Y-124324000D03*
X198805800Y-127324000D03*
X198805800Y-130324000D03*
X198805800Y-133324000D03*
X198805800Y-136324000D03*
X198805800Y-139324000D03*
X158889700Y-145415000D03*
X161889700Y-145415000D03*
X164889700Y-145415000D03*
X167889700Y-145415000D03*
X170889700Y-145415000D03*
X173889700Y-145415000D03*
X176889700Y-145415000D03*
X179889700Y-145415000D03*
X182889700Y-145415000D03*
X185889700Y-145415000D03*
X188889700Y-145415000D03*
X191889700Y-145415000D03*
X150825200Y-96240600D03*
X152325200Y-96240600D03*
X153825200Y-96240600D03*
X150825200Y-97740600D03*
X152325200Y-97740600D03*
X153825200Y-97740600D03*
X150825200Y-99240600D03*
X152325200Y-99240600D03*
X153825200Y-99240600D03*
X150825200Y-100740600D03*
X152325200Y-100740600D03*
X153825200Y-100740600D03*
D18*
X185039000Y-104648000D02*
X185039000Y-102870000D01*
X160274000Y-139446000D02*
X160274000Y-134620000D01*
X160274000Y-134620000D02*
X159385000Y-133731000D01*
X188214000Y-102997000D02*
X188341000Y-102870000D01*
X188214000Y-104648000D02*
X188214000Y-102997000D01*
X180530500Y-108140500D02*
X181864000Y-106807000D01*
X181864000Y-106807000D02*
X181864000Y-106670000D01*
D19*
X136448800Y-89560400D02*
X135940800Y-89560400D01*
X144729200Y-97840800D02*
X136448800Y-89560400D01*
X144729200Y-110185200D02*
X144729200Y-97840800D01*
X145440400Y-110896400D02*
X144729200Y-110185200D01*
X158546800Y-113030000D02*
X152654000Y-113030000D01*
X163576000Y-118059200D02*
X158546800Y-113030000D01*
X163576000Y-125476000D02*
X163576000Y-118059200D01*
X150520400Y-110896400D02*
X145440400Y-110896400D01*
X152654000Y-113030000D02*
X150520400Y-110896400D01*
X163525200Y-128981200D02*
X164338000Y-128168400D01*
X164338000Y-128168400D02*
X164338000Y-126238000D01*
X164338000Y-126238000D02*
X163576000Y-125476000D01*
D18*
X163525200Y-128981200D02*
X155905200Y-128981200D01*
X155905200Y-128981200D02*
X154330400Y-130556000D01*
X154330400Y-130556000D02*
X154330400Y-130606800D01*
D19*
X138049003Y-125095003D02*
X137007600Y-124053600D01*
X137007600Y-124053600D02*
X137007600Y-102832598D01*
X137007600Y-102832598D02*
X137007600Y-102514400D01*
X140665200Y-125095003D02*
X138049003Y-125095003D01*
X146710400Y-114198400D02*
X143357600Y-114198400D01*
X143357600Y-114198400D02*
X142341600Y-114198400D01*
X142341600Y-114198400D02*
X141274800Y-113131600D01*
X141274800Y-113131600D02*
X141274800Y-99517200D01*
X141274800Y-99517200D02*
X137312400Y-95554800D01*
X143560800Y-117449600D02*
X143242602Y-117449600D01*
X143242602Y-117449600D02*
X141528800Y-117449600D01*
X141528800Y-117449600D02*
X140665200Y-116586000D01*
X140665200Y-116586000D02*
X140665200Y-99771200D01*
X140665200Y-99771200D02*
X136601200Y-95707200D01*
X136601200Y-95707200D02*
X135940800Y-95707200D01*
X149250400Y-113030000D02*
X143256000Y-113030000D01*
X143256000Y-113030000D02*
X143154400Y-113030000D01*
X143154400Y-113030000D02*
X142544800Y-112420400D01*
X142544800Y-112420400D02*
X142544800Y-98704400D01*
X142544800Y-98704400D02*
X137363200Y-93522800D01*
X147929600Y-113588800D02*
X142697200Y-113588800D01*
X142697200Y-113588800D02*
X141935200Y-112826800D01*
X141935200Y-112826800D02*
X141935200Y-99161600D01*
X141935200Y-99161600D02*
X136398000Y-93624400D01*
X136398000Y-93624400D02*
X135940800Y-93624400D01*
X136448800Y-91643200D02*
X135890000Y-91643200D01*
X143306800Y-98501200D02*
X136448800Y-91643200D01*
X149860000Y-112268000D02*
X144627600Y-112268000D01*
X144627600Y-112268000D02*
X143306800Y-110947200D01*
X143306800Y-110947200D02*
X143306800Y-98501200D01*
X162255200Y-125679200D02*
X162255200Y-118516400D01*
X162255200Y-118516400D02*
X158242000Y-114503200D01*
X158242000Y-114503200D02*
X152095200Y-114503200D01*
X152095200Y-114503200D02*
X149860000Y-112268000D01*
X162255200Y-126492000D02*
X163372800Y-127609600D01*
X162255200Y-125679200D02*
X162255200Y-126492000D01*
X180035200Y-116230400D02*
X181813200Y-116230400D01*
X181813200Y-116230400D02*
X182321200Y-116738400D01*
X144068800Y-110642400D02*
X144068800Y-98196400D01*
X144068800Y-98196400D02*
X137414000Y-91541600D01*
X144983200Y-111556800D02*
X144068800Y-110642400D01*
X158496000Y-113792000D02*
X152349200Y-113792000D01*
X150114000Y-111556800D02*
X144983200Y-111556800D01*
X152349200Y-113792000D02*
X150114000Y-111556800D01*
X162915600Y-118211600D02*
X158496000Y-113792000D01*
X162915600Y-125272800D02*
X162915600Y-125018800D01*
X162915600Y-125018800D02*
X162915600Y-124663200D01*
X162915600Y-124663200D02*
X162915600Y-118211600D01*
X162915600Y-124663200D02*
X162915600Y-125933200D01*
X162915600Y-125933200D02*
X163322000Y-126339600D01*
X136165799Y-87804199D02*
X135940800Y-87579200D01*
X136622999Y-87804199D02*
X136165799Y-87804199D01*
X146100800Y-108712000D02*
X146100800Y-97282000D01*
X147218400Y-109829600D02*
X146100800Y-108712000D01*
X151333200Y-109829600D02*
X147218400Y-109829600D01*
X146100800Y-97282000D02*
X136622999Y-87804199D01*
X159004000Y-111607600D02*
X153111200Y-111607600D01*
X153111200Y-111607600D02*
X151333200Y-109829600D01*
X165303200Y-117906800D02*
X159004000Y-111607600D01*
X165303200Y-125018800D02*
X165303200Y-117906800D01*
X192786000Y-132791200D02*
X192024000Y-133553200D01*
X192786000Y-124409200D02*
X192786000Y-132791200D01*
X192024000Y-133553200D02*
X176987200Y-133553200D01*
X171602400Y-128168400D02*
X168452800Y-128168400D01*
X176987200Y-133553200D02*
X171602400Y-128168400D01*
X168452800Y-128168400D02*
X165303200Y-125018800D01*
X170789600Y-123901200D02*
X166827200Y-123901200D01*
X166827200Y-123901200D02*
X165862000Y-122936000D01*
X165862000Y-122936000D02*
X165862000Y-117652800D01*
X165862000Y-117652800D02*
X159004000Y-110794800D01*
X159004000Y-110794800D02*
X153416000Y-110794800D01*
X153416000Y-110794800D02*
X151790400Y-109169200D01*
X151790400Y-109169200D02*
X147624800Y-109169200D01*
X147624800Y-109169200D02*
X146812000Y-108356400D01*
X146812000Y-108356400D02*
X146812000Y-97028000D01*
X146812000Y-97028000D02*
X137312400Y-87528400D01*
X170789600Y-128981200D02*
X170471402Y-128981200D01*
X170471402Y-128981200D02*
X168046400Y-128981200D01*
X168046400Y-128981200D02*
X164287200Y-125222000D01*
X164287200Y-125222000D02*
X164287200Y-117805200D01*
X164287200Y-117805200D02*
X158800800Y-112318800D01*
X158800800Y-112318800D02*
X152908000Y-112318800D01*
X152908000Y-112318800D02*
X151028400Y-110439200D01*
X151028400Y-110439200D02*
X146507200Y-110439200D01*
X146507200Y-110439200D02*
X145389600Y-109321600D01*
X145389600Y-109321600D02*
X145389600Y-97586800D01*
X145389600Y-97586800D02*
X137312400Y-89509600D01*
X149199600Y-105664000D02*
X149199600Y-96418400D01*
X150926800Y-107391200D02*
X149199600Y-105664000D01*
X153009600Y-107391200D02*
X150926800Y-107391200D01*
X160172400Y-108864400D02*
X154482800Y-108864400D01*
X149199600Y-96418400D02*
X136398000Y-83616800D01*
X154482800Y-108864400D02*
X153009600Y-107391200D01*
X180340000Y-117906800D02*
X169214800Y-117906800D01*
X169214800Y-117906800D02*
X160172400Y-108864400D01*
X136398000Y-83616800D02*
X135890000Y-83616800D01*
X180340000Y-117043200D02*
X169722800Y-117043200D01*
X169722800Y-117043200D02*
X169367200Y-117043200D01*
X169367200Y-117043200D02*
X160528000Y-108204000D01*
X160528000Y-108204000D02*
X154787600Y-108204000D01*
X154787600Y-108204000D02*
X153212800Y-106629200D01*
X153212800Y-106629200D02*
X151231600Y-106629200D01*
X151231600Y-106629200D02*
X149910800Y-105308400D01*
X149910800Y-105308400D02*
X149910800Y-96113600D01*
X149910800Y-96113600D02*
X137312400Y-83515200D01*
X174650400Y-123494800D02*
X183540400Y-123494800D01*
X173786800Y-122631200D02*
X174650400Y-123494800D01*
X167386000Y-121615200D02*
X168402000Y-122631200D01*
X167386000Y-117094000D02*
X167386000Y-121615200D01*
X137261600Y-85496400D02*
X148336000Y-96570800D01*
X159867600Y-109575600D02*
X167386000Y-117094000D01*
X148336000Y-96570800D02*
X148336000Y-106984800D01*
X148336000Y-106984800D02*
X149250400Y-107899200D01*
X168402000Y-122631200D02*
X173786800Y-122631200D01*
X149250400Y-107899200D02*
X152603200Y-107899200D01*
X152603200Y-107899200D02*
X154279600Y-109575600D01*
X154279600Y-109575600D02*
X159867600Y-109575600D01*
X136114999Y-85772199D02*
X136572199Y-85772199D01*
X135890000Y-85547200D02*
X136114999Y-85772199D01*
X136572199Y-85772199D02*
X147523200Y-96723200D01*
X147523200Y-96723200D02*
X147523200Y-107391200D01*
X147523200Y-107391200D02*
X148691600Y-108559600D01*
X148691600Y-108559600D02*
X152196800Y-108559600D01*
X152196800Y-108559600D02*
X153822400Y-110185200D01*
X153822400Y-110185200D02*
X159410400Y-110185200D01*
X159410400Y-110185200D02*
X166674800Y-117449600D01*
X166674800Y-117449600D02*
X166674800Y-122428000D01*
X166674800Y-122428000D02*
X167436800Y-123190000D01*
X167436800Y-123190000D02*
X173177200Y-123190000D01*
X173177200Y-123190000D02*
X174142400Y-124155200D01*
X174142400Y-124155200D02*
X180797200Y-124155200D01*
D18*
X145592800Y-80518000D02*
X145592800Y-87376000D01*
X145592800Y-87376000D02*
X152501600Y-94284800D01*
X177583402Y-94284800D02*
X177901600Y-94284800D01*
X152501600Y-94284800D02*
X177583402Y-94284800D01*
X145542000Y-77520800D02*
X145766999Y-77745799D01*
X145766999Y-77745799D02*
X151434800Y-83413600D01*
X151434800Y-83413600D02*
X164642800Y-83413600D01*
X164642800Y-83413600D02*
X168402000Y-79654400D01*
X168402000Y-79654400D02*
X170078400Y-79654400D01*
X146337543Y-80074820D02*
X146112544Y-79849821D01*
X166116000Y-84683600D02*
X150946323Y-84683600D01*
X150946323Y-84683600D02*
X146337543Y-80074820D01*
X150977600Y-83972400D02*
X165150800Y-83972400D01*
X145766999Y-78761799D02*
X146913600Y-79908400D01*
X145542000Y-78536800D02*
X145766999Y-78761799D01*
X146913600Y-79908400D02*
X150977600Y-83972400D01*
X146579799Y-79574599D02*
X146913600Y-79908400D01*
X176987200Y-109778800D02*
X178460400Y-109778800D01*
X168068199Y-124938999D02*
X168068199Y-124989799D01*
X167843200Y-124714000D02*
X168068199Y-124938999D01*
X168068199Y-124989799D02*
X170637200Y-127558800D01*
X170637200Y-127558800D02*
X172313600Y-127558800D01*
X172313600Y-127558800D02*
X176276000Y-131521200D01*
X184251600Y-78130400D02*
X184251600Y-78232000D01*
X184251600Y-113487200D02*
X184251600Y-78232000D01*
X168503600Y-140055600D02*
X193294000Y-140055600D01*
X197892001Y-135457599D02*
X197892001Y-61748001D01*
X193294000Y-140055600D02*
X197892001Y-135457599D01*
X197892001Y-61748001D02*
X196342000Y-60198000D01*
X196342000Y-60198000D02*
X190652400Y-60198000D01*
X190652400Y-60198000D02*
X188925200Y-58470800D01*
X162407600Y-129844800D02*
X162407600Y-130860800D01*
X162407600Y-130860800D02*
X167386000Y-135839200D01*
X167386000Y-135839200D02*
X167386000Y-137769600D01*
X167386000Y-137769600D02*
X169062400Y-139446000D01*
X169062400Y-139446000D02*
X192786000Y-139446000D01*
X192786000Y-139446000D02*
X196697600Y-135534400D01*
X196697600Y-135534400D02*
X196697600Y-62788800D01*
X196697600Y-62788800D02*
X195224400Y-61315600D01*
X195224400Y-61315600D02*
X186283600Y-61315600D01*
X186283600Y-61315600D02*
X183743600Y-58775600D01*
D19*
X153670000Y-86360000D02*
X153670000Y-86995000D01*
X153670000Y-86995000D02*
X154940000Y-88265000D01*
X154940000Y-88265000D02*
X157480000Y-88265000D01*
X157480000Y-88265000D02*
X159385000Y-90170000D01*
X153035000Y-86995000D02*
X153035000Y-88265000D01*
X153035000Y-88265000D02*
X154305000Y-89535000D01*
X154305000Y-89535000D02*
X156845000Y-89535000D01*
X156845000Y-89535000D02*
X158115000Y-90805000D01*
D18*
X159715200Y-82854800D02*
X157988000Y-82854800D01*
D19*
X136318199Y-124405599D02*
X138785600Y-126873000D01*
X136318199Y-102739399D02*
X136318199Y-124405599D01*
X136093200Y-102514400D02*
X136318199Y-102739399D01*
X140716000Y-126873000D02*
X138785600Y-126873000D01*
X152349200Y-130454400D02*
X150418800Y-128524000D01*
X150418800Y-128524000D02*
X140716000Y-128524000D01*
X135454599Y-124532599D02*
X139446000Y-128524000D01*
X135454599Y-102739399D02*
X135454599Y-124532599D01*
X135229600Y-102514400D02*
X135454599Y-102739399D01*
X140716000Y-128524000D02*
X139446000Y-128524000D01*
X140665200Y-123850400D02*
X138938000Y-123850400D01*
X138480800Y-123850400D02*
X137617200Y-122986800D01*
X138938000Y-123850400D02*
X138480800Y-123850400D01*
X136296400Y-100736400D02*
X137617200Y-102057200D01*
X137617200Y-102057200D02*
X137617200Y-122986800D01*
X136296400Y-100736400D02*
X135940800Y-100380800D01*
X135940800Y-100380800D02*
X135940800Y-99568000D01*
X136956800Y-99886198D02*
X138531600Y-101460998D01*
X136956800Y-99568000D02*
X136956800Y-99886198D01*
X138531600Y-101460998D02*
X138531600Y-121869200D01*
X139217403Y-122555003D02*
X140614400Y-122555003D01*
X138531600Y-121869200D02*
X139217403Y-122555003D01*
X143560800Y-118719600D02*
X139954000Y-118719600D01*
X139954000Y-118719600D02*
X139141200Y-117906800D01*
X139141200Y-117906800D02*
X139141200Y-101041200D01*
X139090400Y-100685600D02*
X135940800Y-97536000D01*
X139141200Y-101041200D02*
X139141200Y-100685600D01*
X150469600Y-117144800D02*
X149555200Y-118059200D01*
X149555200Y-118059200D02*
X140360400Y-118059200D01*
X140360400Y-118059200D02*
X139954000Y-117652800D01*
X139954000Y-117652800D02*
X139954000Y-100126800D01*
X139954000Y-100126800D02*
X137363200Y-97536000D01*
D20*
G36*
X198990001Y-145645000D02*
X154910000Y-145645000D01*
X154910000Y-143541750D01*
X154751250Y-143383000D01*
X153602000Y-143383000D01*
X153602000Y-143403000D01*
X153348000Y-143403000D01*
X153348000Y-143383000D01*
X152198750Y-143383000D01*
X152040000Y-143541750D01*
X152040000Y-145645000D01*
X146410000Y-145645000D01*
X146410000Y-143541750D01*
X146251250Y-143383000D01*
X145102000Y-143383000D01*
X145102000Y-143403000D01*
X144848000Y-143403000D01*
X144848000Y-143383000D01*
X143698750Y-143383000D01*
X143540000Y-143541750D01*
X143540000Y-145645000D01*
X134314000Y-145645000D01*
X134314000Y-142627050D01*
X135148000Y-142627050D01*
X135148000Y-143376950D01*
X135434974Y-144069767D01*
X135965233Y-144600026D01*
X136658050Y-144887000D01*
X137407950Y-144887000D01*
X138100767Y-144600026D01*
X138631026Y-144069767D01*
X138918000Y-143376950D01*
X138918000Y-142627050D01*
X138631026Y-141934233D01*
X138100767Y-141403974D01*
X137407950Y-141117000D01*
X136658050Y-141117000D01*
X135965233Y-141403974D01*
X135434974Y-141934233D01*
X135148000Y-142627050D01*
X134314000Y-142627050D01*
X134314000Y-140679690D01*
X143540000Y-140679690D01*
X143540000Y-142970250D01*
X143698750Y-143129000D01*
X144848000Y-143129000D01*
X144848000Y-140329750D01*
X145102000Y-140329750D01*
X145102000Y-143129000D01*
X146251250Y-143129000D01*
X146410000Y-142970250D01*
X146410000Y-140679690D01*
X152040000Y-140679690D01*
X152040000Y-142970250D01*
X152198750Y-143129000D01*
X153348000Y-143129000D01*
X153348000Y-140329750D01*
X153602000Y-140329750D01*
X153602000Y-143129000D01*
X154751250Y-143129000D01*
X154910000Y-142970250D01*
X154910000Y-142627050D01*
X194457000Y-142627050D01*
X194457000Y-143376950D01*
X194743974Y-144069767D01*
X195274233Y-144600026D01*
X195967050Y-144887000D01*
X196716950Y-144887000D01*
X197409767Y-144600026D01*
X197940026Y-144069767D01*
X198227000Y-143376950D01*
X198227000Y-142627050D01*
X197940026Y-141934233D01*
X197409767Y-141403974D01*
X196716950Y-141117000D01*
X195967050Y-141117000D01*
X195274233Y-141403974D01*
X194743974Y-141934233D01*
X194457000Y-142627050D01*
X154910000Y-142627050D01*
X154910000Y-140679690D01*
X154848004Y-140530017D01*
X164800000Y-140530017D01*
X164800000Y-140901983D01*
X164942345Y-141245635D01*
X165205365Y-141508655D01*
X165549017Y-141651000D01*
X165920983Y-141651000D01*
X166264635Y-141508655D01*
X166527655Y-141245635D01*
X166670000Y-140901983D01*
X166670000Y-140530017D01*
X166527655Y-140186365D01*
X166264635Y-139923345D01*
X165920983Y-139781000D01*
X165549017Y-139781000D01*
X165205365Y-139923345D01*
X164942345Y-140186365D01*
X164800000Y-140530017D01*
X154848004Y-140530017D01*
X154813327Y-140446301D01*
X154634698Y-140267673D01*
X154401309Y-140171000D01*
X153760750Y-140171000D01*
X153602000Y-140329750D01*
X153348000Y-140329750D01*
X153189250Y-140171000D01*
X152548691Y-140171000D01*
X152315302Y-140267673D01*
X152136673Y-140446301D01*
X152040000Y-140679690D01*
X146410000Y-140679690D01*
X146313327Y-140446301D01*
X146134698Y-140267673D01*
X145901309Y-140171000D01*
X145260750Y-140171000D01*
X145102000Y-140329750D01*
X144848000Y-140329750D01*
X144689250Y-140171000D01*
X144048691Y-140171000D01*
X143815302Y-140267673D01*
X143636673Y-140446301D01*
X143540000Y-140679690D01*
X134314000Y-140679690D01*
X134314000Y-133559935D01*
X158525000Y-133559935D01*
X158525000Y-133902065D01*
X158655928Y-134218151D01*
X158897849Y-134460072D01*
X159199627Y-134585073D01*
X159539001Y-134924448D01*
X159539000Y-138973160D01*
X159414000Y-139274935D01*
X159414000Y-139617065D01*
X159544928Y-139933151D01*
X159786849Y-140175072D01*
X160102935Y-140306000D01*
X160445065Y-140306000D01*
X160761151Y-140175072D01*
X161003072Y-139933151D01*
X161134000Y-139617065D01*
X161134000Y-139274935D01*
X161009000Y-138973160D01*
X161009000Y-134692384D01*
X161023398Y-134620000D01*
X161009000Y-134547616D01*
X161009000Y-134547612D01*
X160966354Y-134333217D01*
X160803905Y-134090095D01*
X160742537Y-134049090D01*
X160239073Y-133545627D01*
X160114072Y-133243849D01*
X159872151Y-133001928D01*
X159556065Y-132871000D01*
X159213935Y-132871000D01*
X158897849Y-133001928D01*
X158655928Y-133243849D01*
X158525000Y-133559935D01*
X134314000Y-133559935D01*
X134314000Y-102343335D01*
X134369600Y-102343335D01*
X134369600Y-102685465D01*
X134500528Y-103001551D01*
X134694599Y-103195622D01*
X134694600Y-124457747D01*
X134679711Y-124532599D01*
X134738696Y-124829136D01*
X134846048Y-124989799D01*
X134906671Y-125080528D01*
X134970127Y-125122928D01*
X138855673Y-129008476D01*
X138898071Y-129071929D01*
X138961524Y-129114327D01*
X138961526Y-129114329D01*
X139086902Y-129198102D01*
X139149463Y-129239904D01*
X139371148Y-129284000D01*
X139371152Y-129284000D01*
X139445999Y-129298888D01*
X139520846Y-129284000D01*
X140303515Y-129284000D01*
X140544935Y-129384000D01*
X140887065Y-129384000D01*
X141128485Y-129284000D01*
X150103999Y-129284000D01*
X151520127Y-130700129D01*
X151620128Y-130941551D01*
X151862049Y-131183472D01*
X152178135Y-131314400D01*
X152520265Y-131314400D01*
X152836351Y-131183472D01*
X153078272Y-130941551D01*
X153209200Y-130625465D01*
X153209200Y-130283335D01*
X153078272Y-129967249D01*
X152836351Y-129725328D01*
X152594929Y-129625327D01*
X151009131Y-128039530D01*
X150966729Y-127976071D01*
X150715337Y-127808096D01*
X150493652Y-127764000D01*
X150493647Y-127764000D01*
X150418800Y-127749112D01*
X150343953Y-127764000D01*
X141128485Y-127764000D01*
X140970355Y-127698500D01*
X141203151Y-127602072D01*
X141445072Y-127360151D01*
X141576000Y-127044065D01*
X141576000Y-126701935D01*
X141445072Y-126385849D01*
X141203151Y-126143928D01*
X140887065Y-126013000D01*
X140544935Y-126013000D01*
X140303515Y-126113000D01*
X139100402Y-126113000D01*
X138842405Y-125855003D01*
X140252715Y-125855003D01*
X140494135Y-125955003D01*
X140836265Y-125955003D01*
X141152351Y-125824075D01*
X141394272Y-125582154D01*
X141525200Y-125266068D01*
X141525200Y-124923938D01*
X141394272Y-124607852D01*
X141259122Y-124472702D01*
X141394272Y-124337551D01*
X141525200Y-124021465D01*
X141525200Y-123679335D01*
X141394272Y-123363249D01*
X141208325Y-123177302D01*
X141343472Y-123042154D01*
X141474400Y-122726068D01*
X141474400Y-122383938D01*
X141343472Y-122067852D01*
X141101551Y-121825931D01*
X140785465Y-121695003D01*
X140443335Y-121695003D01*
X140201915Y-121795003D01*
X139532205Y-121795003D01*
X139291600Y-121554399D01*
X139291600Y-119132002D01*
X139363671Y-119204073D01*
X139406071Y-119267529D01*
X139469527Y-119309929D01*
X139657462Y-119435504D01*
X139705605Y-119445080D01*
X139879148Y-119479600D01*
X139879152Y-119479600D01*
X139954000Y-119494488D01*
X140028848Y-119479600D01*
X143148315Y-119479600D01*
X143389735Y-119579600D01*
X143731865Y-119579600D01*
X144047951Y-119448672D01*
X144289872Y-119206751D01*
X144420800Y-118890665D01*
X144420800Y-118819200D01*
X149480353Y-118819200D01*
X149555200Y-118834088D01*
X149630047Y-118819200D01*
X149630052Y-118819200D01*
X149851737Y-118775104D01*
X150103129Y-118607129D01*
X150145531Y-118543670D01*
X150715329Y-117973873D01*
X150956751Y-117873872D01*
X151198672Y-117631951D01*
X151329600Y-117315865D01*
X151329600Y-116973735D01*
X151198672Y-116657649D01*
X150956751Y-116415728D01*
X150640665Y-116284800D01*
X150298535Y-116284800D01*
X149982449Y-116415728D01*
X149740528Y-116657649D01*
X149640527Y-116899071D01*
X149240399Y-117299200D01*
X144420800Y-117299200D01*
X144420800Y-117278535D01*
X144289872Y-116962449D01*
X144047951Y-116720528D01*
X143731865Y-116589600D01*
X143389735Y-116589600D01*
X143148315Y-116689600D01*
X141843602Y-116689600D01*
X141425200Y-116271199D01*
X141425200Y-114356802D01*
X141751271Y-114682873D01*
X141793671Y-114746329D01*
X142045063Y-114914304D01*
X142266748Y-114958400D01*
X142266752Y-114958400D01*
X142341599Y-114973288D01*
X142416446Y-114958400D01*
X146297915Y-114958400D01*
X146539335Y-115058400D01*
X146881465Y-115058400D01*
X147197551Y-114927472D01*
X147439472Y-114685551D01*
X147569903Y-114370665D01*
X147758535Y-114448800D01*
X148100665Y-114448800D01*
X148416751Y-114317872D01*
X148658672Y-114075951D01*
X148777118Y-113790000D01*
X148837915Y-113790000D01*
X149079335Y-113890000D01*
X149421465Y-113890000D01*
X149737551Y-113759072D01*
X149979472Y-113517151D01*
X149995545Y-113478347D01*
X151504870Y-114987672D01*
X151547271Y-115051129D01*
X151798663Y-115219104D01*
X152020348Y-115263200D01*
X152020352Y-115263200D01*
X152095199Y-115278088D01*
X152170046Y-115263200D01*
X157927199Y-115263200D01*
X161495201Y-118831203D01*
X161495200Y-125604348D01*
X161495200Y-126417153D01*
X161480312Y-126492000D01*
X161495200Y-126566847D01*
X161495200Y-126566852D01*
X161531552Y-126749600D01*
X161539297Y-126788537D01*
X161600764Y-126880528D01*
X161707272Y-127039929D01*
X161770728Y-127082329D01*
X162543727Y-127855329D01*
X162643728Y-128096751D01*
X162793177Y-128246200D01*
X155977588Y-128246200D01*
X155905200Y-128231801D01*
X155832812Y-128246200D01*
X155618417Y-128288846D01*
X155375295Y-128451295D01*
X155334290Y-128512663D01*
X154058306Y-129788648D01*
X153843249Y-129877728D01*
X153601328Y-130119649D01*
X153470400Y-130435735D01*
X153470400Y-130777865D01*
X153601328Y-131093951D01*
X153843249Y-131335872D01*
X154159335Y-131466800D01*
X154501465Y-131466800D01*
X154817551Y-131335872D01*
X155059472Y-131093951D01*
X155190400Y-130777865D01*
X155190400Y-130735446D01*
X156209647Y-129716200D01*
X161547600Y-129716200D01*
X161547600Y-130015865D01*
X161672600Y-130317641D01*
X161672601Y-130788411D01*
X161658202Y-130860800D01*
X161715246Y-131147582D01*
X161836691Y-131329337D01*
X161877696Y-131390705D01*
X161939063Y-131431709D01*
X163938354Y-133431000D01*
X163898017Y-133431000D01*
X163639500Y-133538081D01*
X163380983Y-133431000D01*
X163009017Y-133431000D01*
X162665365Y-133573345D01*
X162402345Y-133836365D01*
X162260000Y-134180017D01*
X162260000Y-134551983D01*
X162402345Y-134895635D01*
X162665365Y-135158655D01*
X163009017Y-135301000D01*
X163380983Y-135301000D01*
X163639500Y-135193919D01*
X163898017Y-135301000D01*
X163911000Y-135301000D01*
X163911000Y-135567983D01*
X164018081Y-135826500D01*
X163911000Y-136085017D01*
X163911000Y-136456983D01*
X164053345Y-136800635D01*
X164316365Y-137063655D01*
X164660017Y-137206000D01*
X165031983Y-137206000D01*
X165375635Y-137063655D01*
X165638655Y-136800635D01*
X165781000Y-136456983D01*
X165781000Y-136085017D01*
X165673919Y-135826500D01*
X165781000Y-135567983D01*
X165781000Y-135273647D01*
X166651000Y-136143647D01*
X166651001Y-137697211D01*
X166636602Y-137769600D01*
X166693646Y-138056382D01*
X166693647Y-138056383D01*
X166856096Y-138299505D01*
X166917463Y-138340509D01*
X167959965Y-139383012D01*
X167774528Y-139568449D01*
X167643600Y-139884535D01*
X167643600Y-140226665D01*
X167774528Y-140542751D01*
X168016449Y-140784672D01*
X168332535Y-140915600D01*
X168674665Y-140915600D01*
X168976440Y-140790600D01*
X193221616Y-140790600D01*
X193294000Y-140804998D01*
X193366384Y-140790600D01*
X193366388Y-140790600D01*
X193580783Y-140747954D01*
X193823905Y-140585505D01*
X193864911Y-140524135D01*
X198360539Y-136028508D01*
X198421906Y-135987504D01*
X198584355Y-135744382D01*
X198627001Y-135529987D01*
X198627001Y-135529984D01*
X198641399Y-135457600D01*
X198627001Y-135385216D01*
X198627001Y-61820384D01*
X198641399Y-61748000D01*
X198627001Y-61675616D01*
X198627001Y-61675613D01*
X198584355Y-61461218D01*
X198421906Y-61218096D01*
X198360538Y-61177091D01*
X196912911Y-59729465D01*
X196871905Y-59668095D01*
X196628783Y-59505646D01*
X196414388Y-59463000D01*
X196414384Y-59463000D01*
X196342000Y-59448602D01*
X196269616Y-59463000D01*
X190956847Y-59463000D01*
X189779274Y-58285427D01*
X189654272Y-57983649D01*
X189412351Y-57741728D01*
X189096265Y-57610800D01*
X188754135Y-57610800D01*
X188438049Y-57741728D01*
X188196128Y-57983649D01*
X188065200Y-58299735D01*
X188065200Y-58641865D01*
X188196128Y-58957951D01*
X188438049Y-59199872D01*
X188739827Y-59324874D01*
X189995553Y-60580600D01*
X186588047Y-60580600D01*
X184597674Y-58590227D01*
X184472672Y-58288449D01*
X184230751Y-58046528D01*
X183914665Y-57915600D01*
X183572535Y-57915600D01*
X183256449Y-58046528D01*
X183014528Y-58288449D01*
X182883600Y-58604535D01*
X182883600Y-58946665D01*
X183014528Y-59262751D01*
X183256449Y-59504672D01*
X183558227Y-59629674D01*
X185712691Y-61784137D01*
X185753695Y-61845505D01*
X185996817Y-62007954D01*
X186211212Y-62050600D01*
X186211215Y-62050600D01*
X186283599Y-62064998D01*
X186355983Y-62050600D01*
X194919954Y-62050600D01*
X195962601Y-63093248D01*
X195962600Y-135229953D01*
X192481554Y-138711000D01*
X169366847Y-138711000D01*
X168121000Y-137465154D01*
X168121000Y-135911584D01*
X168135398Y-135839200D01*
X168121000Y-135766816D01*
X168121000Y-135766812D01*
X168078354Y-135552417D01*
X167915905Y-135309295D01*
X167854538Y-135268291D01*
X163142600Y-130556354D01*
X163142600Y-130317640D01*
X163267600Y-130015865D01*
X163267600Y-129716200D01*
X163324670Y-129716200D01*
X163525200Y-129756088D01*
X163821737Y-129697103D01*
X164009672Y-129571529D01*
X164822473Y-128758729D01*
X164885929Y-128716329D01*
X164928924Y-128651982D01*
X165053904Y-128464938D01*
X165069906Y-128384488D01*
X165098000Y-128243252D01*
X165098000Y-128243248D01*
X165112888Y-128168400D01*
X165098000Y-128093552D01*
X165098000Y-127107601D01*
X167456071Y-129465673D01*
X167498471Y-129529129D01*
X167749863Y-129697104D01*
X167971548Y-129741200D01*
X167971552Y-129741200D01*
X168046400Y-129756088D01*
X168121248Y-129741200D01*
X170377115Y-129741200D01*
X170618535Y-129841200D01*
X170960665Y-129841200D01*
X171276751Y-129710272D01*
X171518672Y-129468351D01*
X171609141Y-129249942D01*
X176396871Y-134037673D01*
X176439271Y-134101129D01*
X176690663Y-134269104D01*
X176912348Y-134313200D01*
X176912352Y-134313200D01*
X176987199Y-134328088D01*
X177062046Y-134313200D01*
X191949153Y-134313200D01*
X192024000Y-134328088D01*
X192098847Y-134313200D01*
X192098852Y-134313200D01*
X192320537Y-134269104D01*
X192571929Y-134101129D01*
X192614331Y-134037670D01*
X193270473Y-133381529D01*
X193333929Y-133339129D01*
X193397593Y-133243849D01*
X193501904Y-133087738D01*
X193511669Y-133038646D01*
X193546000Y-132866052D01*
X193546000Y-132866048D01*
X193560888Y-132791200D01*
X193546000Y-132716352D01*
X193546000Y-124821685D01*
X193646000Y-124580265D01*
X193646000Y-124238135D01*
X193515072Y-123922049D01*
X193273151Y-123680128D01*
X192957065Y-123549200D01*
X192614935Y-123549200D01*
X192298849Y-123680128D01*
X192056928Y-123922049D01*
X191926000Y-124238135D01*
X191926000Y-124580265D01*
X192026000Y-124821685D01*
X192026001Y-132476397D01*
X191709199Y-132793200D01*
X177302002Y-132793200D01*
X176760268Y-132251466D01*
X176763151Y-132250272D01*
X177005072Y-132008351D01*
X177136000Y-131692265D01*
X177136000Y-131640017D01*
X182580000Y-131640017D01*
X182580000Y-132011983D01*
X182722345Y-132355635D01*
X182985365Y-132618655D01*
X183329017Y-132761000D01*
X183700983Y-132761000D01*
X184044635Y-132618655D01*
X184307655Y-132355635D01*
X184450000Y-132011983D01*
X184450000Y-131640017D01*
X184307655Y-131296365D01*
X184044635Y-131033345D01*
X183700983Y-130891000D01*
X183329017Y-130891000D01*
X182985365Y-131033345D01*
X182722345Y-131296365D01*
X182580000Y-131640017D01*
X177136000Y-131640017D01*
X177136000Y-131350135D01*
X177005072Y-131034049D01*
X176763151Y-130792128D01*
X176461374Y-130667127D01*
X176164264Y-130370017D01*
X181056000Y-130370017D01*
X181056000Y-130741983D01*
X181198345Y-131085635D01*
X181461365Y-131348655D01*
X181805017Y-131491000D01*
X182176983Y-131491000D01*
X182520635Y-131348655D01*
X182783655Y-131085635D01*
X182926000Y-130741983D01*
X182926000Y-130370017D01*
X182783655Y-130026365D01*
X182520635Y-129763345D01*
X182176983Y-129621000D01*
X181805017Y-129621000D01*
X181461365Y-129763345D01*
X181198345Y-130026365D01*
X181056000Y-130370017D01*
X176164264Y-130370017D01*
X173370264Y-127576017D01*
X184104000Y-127576017D01*
X184104000Y-127947983D01*
X184246345Y-128291635D01*
X184509365Y-128554655D01*
X184853017Y-128697000D01*
X185224983Y-128697000D01*
X185568635Y-128554655D01*
X185831655Y-128291635D01*
X185974000Y-127947983D01*
X185974000Y-127576017D01*
X185831655Y-127232365D01*
X185568635Y-126969345D01*
X185224983Y-126827000D01*
X184853017Y-126827000D01*
X184509365Y-126969345D01*
X184246345Y-127232365D01*
X184104000Y-127576017D01*
X173370264Y-127576017D01*
X172884511Y-127090265D01*
X172843505Y-127028895D01*
X172600383Y-126866446D01*
X172385988Y-126823800D01*
X172385984Y-126823800D01*
X172313600Y-126809402D01*
X172241216Y-126823800D01*
X170941647Y-126823800D01*
X168779046Y-124661200D01*
X170377115Y-124661200D01*
X170618535Y-124761200D01*
X170960665Y-124761200D01*
X171276751Y-124630272D01*
X171518672Y-124388351D01*
X171649600Y-124072265D01*
X171649600Y-123950000D01*
X172862399Y-123950000D01*
X173552071Y-124639673D01*
X173594471Y-124703129D01*
X173845863Y-124871104D01*
X174067548Y-124915200D01*
X174067553Y-124915200D01*
X174142400Y-124930088D01*
X174217247Y-124915200D01*
X176276510Y-124915200D01*
X176118345Y-125073365D01*
X175976000Y-125417017D01*
X175976000Y-125788983D01*
X176118345Y-126132635D01*
X176381365Y-126395655D01*
X176725017Y-126538000D01*
X177096983Y-126538000D01*
X177440635Y-126395655D01*
X177673000Y-126163290D01*
X177905365Y-126395655D01*
X178249017Y-126538000D01*
X178620983Y-126538000D01*
X178964635Y-126395655D01*
X179054273Y-126306017D01*
X185628000Y-126306017D01*
X185628000Y-126677983D01*
X185770345Y-127021635D01*
X186033365Y-127284655D01*
X186377017Y-127427000D01*
X186748983Y-127427000D01*
X187092635Y-127284655D01*
X187355655Y-127021635D01*
X187498000Y-126677983D01*
X187498000Y-126306017D01*
X187355655Y-125962365D01*
X187092635Y-125699345D01*
X186748983Y-125557000D01*
X186377017Y-125557000D01*
X186033365Y-125699345D01*
X185770345Y-125962365D01*
X185628000Y-126306017D01*
X179054273Y-126306017D01*
X179227655Y-126132635D01*
X179370000Y-125788983D01*
X179370000Y-125417017D01*
X179227655Y-125073365D01*
X179069490Y-124915200D01*
X180384715Y-124915200D01*
X180626135Y-125015200D01*
X180968265Y-125015200D01*
X181284351Y-124884272D01*
X181526272Y-124642351D01*
X181657200Y-124326265D01*
X181657200Y-124254800D01*
X183127915Y-124254800D01*
X183369335Y-124354800D01*
X183711465Y-124354800D01*
X184027551Y-124223872D01*
X184269472Y-123981951D01*
X184400400Y-123665865D01*
X184400400Y-123323735D01*
X184269472Y-123007649D01*
X184027551Y-122765728D01*
X183711465Y-122634800D01*
X183369335Y-122634800D01*
X183127915Y-122734800D01*
X174965202Y-122734800D01*
X174377131Y-122146730D01*
X174334729Y-122083271D01*
X174083337Y-121915296D01*
X173861652Y-121871200D01*
X173861647Y-121871200D01*
X173786800Y-121856312D01*
X173711953Y-121871200D01*
X168716802Y-121871200D01*
X168146000Y-121300399D01*
X168146000Y-117912802D01*
X168624470Y-118391272D01*
X168666871Y-118454729D01*
X168730327Y-118497129D01*
X168918262Y-118622704D01*
X168966405Y-118632280D01*
X169139948Y-118666800D01*
X169139952Y-118666800D01*
X169214800Y-118681688D01*
X169289648Y-118666800D01*
X179927515Y-118666800D01*
X180168935Y-118766800D01*
X180511065Y-118766800D01*
X180827151Y-118635872D01*
X181069072Y-118393951D01*
X181200000Y-118077865D01*
X181200000Y-117735735D01*
X181091999Y-117475000D01*
X181200000Y-117214265D01*
X181200000Y-116990400D01*
X181494725Y-116990400D01*
X181592128Y-117225551D01*
X181834049Y-117467472D01*
X182150135Y-117598400D01*
X182492265Y-117598400D01*
X182808351Y-117467472D01*
X183050272Y-117225551D01*
X183181200Y-116909465D01*
X183181200Y-116567335D01*
X183050272Y-116251249D01*
X182808351Y-116009328D01*
X182566929Y-115909327D01*
X182403530Y-115745929D01*
X182361129Y-115682471D01*
X182109737Y-115514496D01*
X181888052Y-115470400D01*
X181888047Y-115470400D01*
X181813200Y-115455512D01*
X181738353Y-115470400D01*
X180447685Y-115470400D01*
X180206265Y-115370400D01*
X179864135Y-115370400D01*
X179548049Y-115501328D01*
X179306128Y-115743249D01*
X179175200Y-116059335D01*
X179175200Y-116283200D01*
X169682002Y-116283200D01*
X165985782Y-112586980D01*
X166222151Y-112489072D01*
X166464072Y-112247151D01*
X166579203Y-111969203D01*
X166857151Y-111854072D01*
X167099072Y-111612151D01*
X167230000Y-111296065D01*
X167230000Y-110953935D01*
X167099072Y-110637849D01*
X166857151Y-110395928D01*
X166541065Y-110265000D01*
X166198935Y-110265000D01*
X165882849Y-110395928D01*
X165640928Y-110637849D01*
X165525797Y-110915797D01*
X165247849Y-111030928D01*
X165005928Y-111272849D01*
X164908020Y-111509218D01*
X163006537Y-109607735D01*
X176127200Y-109607735D01*
X176127200Y-109949865D01*
X176258128Y-110265951D01*
X176500049Y-110507872D01*
X176816135Y-110638800D01*
X177158265Y-110638800D01*
X177460040Y-110513800D01*
X177987560Y-110513800D01*
X178289335Y-110638800D01*
X178631465Y-110638800D01*
X178947551Y-110507872D01*
X179189472Y-110265951D01*
X179320400Y-109949865D01*
X179320400Y-109607735D01*
X179189472Y-109291649D01*
X178947551Y-109049728D01*
X178631465Y-108918800D01*
X178289335Y-108918800D01*
X177987560Y-109043800D01*
X177460040Y-109043800D01*
X177158265Y-108918800D01*
X176816135Y-108918800D01*
X176500049Y-109049728D01*
X176258128Y-109291649D01*
X176127200Y-109607735D01*
X163006537Y-109607735D01*
X161118331Y-107719530D01*
X161075929Y-107656071D01*
X160824537Y-107488096D01*
X160602852Y-107444000D01*
X160602847Y-107444000D01*
X160528000Y-107429112D01*
X160453153Y-107444000D01*
X155102402Y-107444000D01*
X154914419Y-107256017D01*
X163377600Y-107256017D01*
X163377600Y-107627983D01*
X163519945Y-107971635D01*
X163782965Y-108234655D01*
X164126617Y-108377000D01*
X164498583Y-108377000D01*
X164820600Y-108243616D01*
X165142617Y-108377000D01*
X165514583Y-108377000D01*
X165836600Y-108243616D01*
X166158617Y-108377000D01*
X166530583Y-108377000D01*
X166827200Y-108254137D01*
X167123817Y-108377000D01*
X167495783Y-108377000D01*
X167817800Y-108243616D01*
X168139817Y-108377000D01*
X168511783Y-108377000D01*
X168833800Y-108243616D01*
X169155817Y-108377000D01*
X169527783Y-108377000D01*
X169871435Y-108234655D01*
X170134455Y-107971635D01*
X170135366Y-107969435D01*
X179670500Y-107969435D01*
X179670500Y-108311565D01*
X179801428Y-108627651D01*
X180043349Y-108869572D01*
X180359435Y-109000500D01*
X180701565Y-109000500D01*
X181017651Y-108869572D01*
X181259572Y-108627651D01*
X181384573Y-108325873D01*
X182283249Y-107427198D01*
X182351151Y-107399072D01*
X182593072Y-107157151D01*
X182724000Y-106841065D01*
X182724000Y-106498935D01*
X182593072Y-106182849D01*
X182351151Y-105940928D01*
X182035065Y-105810000D01*
X181692935Y-105810000D01*
X181376849Y-105940928D01*
X181134928Y-106182849D01*
X181004000Y-106498935D01*
X181004000Y-106627553D01*
X180345127Y-107286427D01*
X180043349Y-107411428D01*
X179801428Y-107653349D01*
X179670500Y-107969435D01*
X170135366Y-107969435D01*
X170276800Y-107627983D01*
X170276800Y-107256017D01*
X170134455Y-106912365D01*
X169871435Y-106649345D01*
X169527783Y-106507000D01*
X169155817Y-106507000D01*
X168833800Y-106640384D01*
X168511783Y-106507000D01*
X168139817Y-106507000D01*
X167817800Y-106640384D01*
X167495783Y-106507000D01*
X167123817Y-106507000D01*
X166827200Y-106629863D01*
X166530583Y-106507000D01*
X166158617Y-106507000D01*
X165836600Y-106640384D01*
X165514583Y-106507000D01*
X165142617Y-106507000D01*
X164820600Y-106640384D01*
X164498583Y-106507000D01*
X164126617Y-106507000D01*
X163782965Y-106649345D01*
X163519945Y-106912365D01*
X163377600Y-107256017D01*
X154914419Y-107256017D01*
X153803131Y-106144730D01*
X153760729Y-106081271D01*
X153509337Y-105913296D01*
X153287652Y-105869200D01*
X153287647Y-105869200D01*
X153212800Y-105854312D01*
X153137953Y-105869200D01*
X151546402Y-105869200D01*
X151133202Y-105456000D01*
X151188983Y-105456000D01*
X151532635Y-105313655D01*
X151701500Y-105144790D01*
X151870365Y-105313655D01*
X152214017Y-105456000D01*
X152585983Y-105456000D01*
X152929635Y-105313655D01*
X153192655Y-105050635D01*
X153335000Y-104706983D01*
X153335000Y-104335017D01*
X153192655Y-103991365D01*
X153150790Y-103949500D01*
X153192655Y-103907635D01*
X153335000Y-103563983D01*
X153335000Y-103192017D01*
X153192655Y-102848365D01*
X152929635Y-102585345D01*
X152585983Y-102443000D01*
X152214017Y-102443000D01*
X151870365Y-102585345D01*
X151701500Y-102754210D01*
X151532635Y-102585345D01*
X151188983Y-102443000D01*
X150817017Y-102443000D01*
X150670800Y-102503565D01*
X150670800Y-101287017D01*
X174579000Y-101287017D01*
X174579000Y-101658983D01*
X174721345Y-102002635D01*
X174984365Y-102265655D01*
X175328017Y-102408000D01*
X175699983Y-102408000D01*
X176043635Y-102265655D01*
X176306655Y-102002635D01*
X176449000Y-101658983D01*
X176449000Y-101287017D01*
X176306655Y-100943365D01*
X176043635Y-100680345D01*
X175975246Y-100652017D01*
X176865000Y-100652017D01*
X176865000Y-101023983D01*
X177007345Y-101367635D01*
X177270365Y-101630655D01*
X177614017Y-101773000D01*
X177985983Y-101773000D01*
X178329635Y-101630655D01*
X178419273Y-101541017D01*
X179278000Y-101541017D01*
X179278000Y-101912983D01*
X179420345Y-102256635D01*
X179683365Y-102519655D01*
X180027017Y-102662000D01*
X180398983Y-102662000D01*
X180742635Y-102519655D01*
X181005655Y-102256635D01*
X181038500Y-102177340D01*
X181071345Y-102256635D01*
X181334365Y-102519655D01*
X181678017Y-102662000D01*
X182049983Y-102662000D01*
X182393635Y-102519655D01*
X182656655Y-102256635D01*
X182799000Y-101912983D01*
X182799000Y-101541017D01*
X182656655Y-101197365D01*
X182393635Y-100934345D01*
X182049983Y-100792000D01*
X181678017Y-100792000D01*
X181334365Y-100934345D01*
X181071345Y-101197365D01*
X181038500Y-101276660D01*
X181005655Y-101197365D01*
X180742635Y-100934345D01*
X180398983Y-100792000D01*
X180027017Y-100792000D01*
X179683365Y-100934345D01*
X179420345Y-101197365D01*
X179278000Y-101541017D01*
X178419273Y-101541017D01*
X178592655Y-101367635D01*
X178735000Y-101023983D01*
X178735000Y-100652017D01*
X178592655Y-100308365D01*
X178329635Y-100045345D01*
X177985983Y-99903000D01*
X177614017Y-99903000D01*
X177270365Y-100045345D01*
X177007345Y-100308365D01*
X176865000Y-100652017D01*
X175975246Y-100652017D01*
X175699983Y-100538000D01*
X175328017Y-100538000D01*
X174984365Y-100680345D01*
X174721345Y-100943365D01*
X174579000Y-101287017D01*
X150670800Y-101287017D01*
X150670800Y-96188446D01*
X150685688Y-96113599D01*
X150670800Y-96038752D01*
X150670800Y-96038748D01*
X150626704Y-95817063D01*
X150458729Y-95565671D01*
X150395273Y-95523271D01*
X138141474Y-83269473D01*
X138041472Y-83028049D01*
X137799551Y-82786128D01*
X137483465Y-82655200D01*
X137141335Y-82655200D01*
X136825249Y-82786128D01*
X136704095Y-82907282D01*
X136694537Y-82900896D01*
X136472852Y-82856800D01*
X136472847Y-82856800D01*
X136398000Y-82841912D01*
X136323153Y-82856800D01*
X136302485Y-82856800D01*
X136061065Y-82756800D01*
X135718935Y-82756800D01*
X135402849Y-82887728D01*
X135160928Y-83129649D01*
X135030000Y-83445735D01*
X135030000Y-83787865D01*
X135160928Y-84103951D01*
X135402849Y-84345872D01*
X135718935Y-84476800D01*
X136061065Y-84476800D01*
X136147427Y-84441028D01*
X136624088Y-84917689D01*
X136550400Y-84991377D01*
X136377151Y-84818128D01*
X136061065Y-84687200D01*
X135718935Y-84687200D01*
X135402849Y-84818128D01*
X135160928Y-85060049D01*
X135030000Y-85376135D01*
X135030000Y-85718265D01*
X135160928Y-86034351D01*
X135402849Y-86276272D01*
X135662230Y-86383712D01*
X135818462Y-86488103D01*
X136040147Y-86532199D01*
X136040151Y-86532199D01*
X136114999Y-86547087D01*
X136189847Y-86532199D01*
X136257398Y-86532199D01*
X136674888Y-86949689D01*
X136601200Y-87023377D01*
X136427951Y-86850128D01*
X136111865Y-86719200D01*
X135769735Y-86719200D01*
X135453649Y-86850128D01*
X135211728Y-87092049D01*
X135080800Y-87408135D01*
X135080800Y-87750265D01*
X135211728Y-88066351D01*
X135453649Y-88308272D01*
X135713030Y-88415712D01*
X135869262Y-88520103D01*
X136090947Y-88564199D01*
X136090951Y-88564199D01*
X136165799Y-88579087D01*
X136240647Y-88564199D01*
X136308198Y-88564199D01*
X136549550Y-88805552D01*
X136523652Y-88800400D01*
X136523647Y-88800400D01*
X136448800Y-88785512D01*
X136373953Y-88800400D01*
X136353285Y-88800400D01*
X136111865Y-88700400D01*
X135769735Y-88700400D01*
X135453649Y-88831328D01*
X135211728Y-89073249D01*
X135080800Y-89389335D01*
X135080800Y-89731465D01*
X135211728Y-90047551D01*
X135453649Y-90289472D01*
X135769735Y-90420400D01*
X136111865Y-90420400D01*
X136198227Y-90384628D01*
X136739792Y-90926193D01*
X136523652Y-90883200D01*
X136523647Y-90883200D01*
X136448800Y-90868312D01*
X136373953Y-90883200D01*
X136302485Y-90883200D01*
X136061065Y-90783200D01*
X135718935Y-90783200D01*
X135402849Y-90914128D01*
X135160928Y-91156049D01*
X135030000Y-91472135D01*
X135030000Y-91814265D01*
X135160928Y-92130351D01*
X135402849Y-92372272D01*
X135718935Y-92503200D01*
X136061065Y-92503200D01*
X136183348Y-92452549D01*
X136625578Y-92894779D01*
X136472852Y-92864400D01*
X136472847Y-92864400D01*
X136398000Y-92849512D01*
X136343509Y-92860351D01*
X136111865Y-92764400D01*
X135769735Y-92764400D01*
X135453649Y-92895328D01*
X135211728Y-93137249D01*
X135080800Y-93453335D01*
X135080800Y-93795465D01*
X135211728Y-94111551D01*
X135453649Y-94353472D01*
X135769735Y-94484400D01*
X136111865Y-94484400D01*
X136162306Y-94463507D01*
X136638538Y-94939739D01*
X136601200Y-94932312D01*
X136526353Y-94947200D01*
X136353285Y-94947200D01*
X136111865Y-94847200D01*
X135769735Y-94847200D01*
X135453649Y-94978128D01*
X135211728Y-95220049D01*
X135080800Y-95536135D01*
X135080800Y-95878265D01*
X135211728Y-96194351D01*
X135453649Y-96436272D01*
X135769735Y-96567200D01*
X136111865Y-96567200D01*
X136305989Y-96486790D01*
X136751088Y-96931889D01*
X136652000Y-97030977D01*
X136427951Y-96806928D01*
X136111865Y-96676000D01*
X135769735Y-96676000D01*
X135453649Y-96806928D01*
X135211728Y-97048849D01*
X135080800Y-97364935D01*
X135080800Y-97707065D01*
X135211728Y-98023151D01*
X135453649Y-98265072D01*
X135695072Y-98365074D01*
X136037999Y-98708000D01*
X135769735Y-98708000D01*
X135453649Y-98838928D01*
X135211728Y-99080849D01*
X135080800Y-99396935D01*
X135080800Y-99739065D01*
X135180800Y-99980485D01*
X135180800Y-100305953D01*
X135165912Y-100380800D01*
X135180800Y-100455647D01*
X135180800Y-100455651D01*
X135224896Y-100677336D01*
X135392871Y-100928729D01*
X135456329Y-100971131D01*
X135811927Y-101326729D01*
X135811930Y-101326731D01*
X136139599Y-101654400D01*
X135922135Y-101654400D01*
X135661400Y-101762401D01*
X135400665Y-101654400D01*
X135058535Y-101654400D01*
X134742449Y-101785328D01*
X134500528Y-102027249D01*
X134369600Y-102343335D01*
X134314000Y-102343335D01*
X134314000Y-77349735D01*
X144682000Y-77349735D01*
X144682000Y-77691865D01*
X144812928Y-78007951D01*
X144833777Y-78028800D01*
X144812928Y-78049649D01*
X144682000Y-78365735D01*
X144682000Y-78707865D01*
X144812928Y-79023951D01*
X145054849Y-79265872D01*
X145356627Y-79390874D01*
X145367349Y-79401595D01*
X145252544Y-79678756D01*
X145252544Y-79728082D01*
X145105649Y-79788928D01*
X144863728Y-80030849D01*
X144732800Y-80346935D01*
X144732800Y-80689065D01*
X144857800Y-80990840D01*
X144857801Y-87303611D01*
X144843402Y-87376000D01*
X144900446Y-87662782D01*
X144972013Y-87769889D01*
X145062896Y-87905905D01*
X145124263Y-87946909D01*
X151930691Y-94753338D01*
X151971695Y-94814705D01*
X152214817Y-94977154D01*
X152429212Y-95019800D01*
X152501600Y-95034199D01*
X152573988Y-95019800D01*
X177428760Y-95019800D01*
X177730535Y-95144800D01*
X178072665Y-95144800D01*
X178388751Y-95013872D01*
X178630672Y-94771951D01*
X178761600Y-94455865D01*
X178761600Y-94113735D01*
X178630672Y-93797649D01*
X178388751Y-93555728D01*
X178072665Y-93424800D01*
X177730535Y-93424800D01*
X177428760Y-93549800D01*
X152806047Y-93549800D01*
X146327800Y-87071554D01*
X146327800Y-86823935D01*
X152175000Y-86823935D01*
X152175000Y-87166065D01*
X152275000Y-87407486D01*
X152275001Y-88190149D01*
X152260112Y-88265000D01*
X152275001Y-88339852D01*
X152319097Y-88561537D01*
X152487072Y-88812929D01*
X152550528Y-88855329D01*
X153714670Y-90019472D01*
X153757071Y-90082929D01*
X154008463Y-90250904D01*
X154230148Y-90295000D01*
X154230152Y-90295000D01*
X154304999Y-90309888D01*
X154379846Y-90295000D01*
X156530199Y-90295000D01*
X157285927Y-91050729D01*
X157385928Y-91292151D01*
X157627849Y-91534072D01*
X157943935Y-91665000D01*
X158286065Y-91665000D01*
X158602151Y-91534072D01*
X158844072Y-91292151D01*
X158975000Y-90976065D01*
X158975000Y-90931029D01*
X159213935Y-91030000D01*
X159556065Y-91030000D01*
X159872151Y-90899072D01*
X160114072Y-90657151D01*
X160245000Y-90341065D01*
X160245000Y-89998935D01*
X160114072Y-89682849D01*
X159872151Y-89440928D01*
X159630729Y-89340927D01*
X159257819Y-88968017D01*
X170515000Y-88968017D01*
X170515000Y-89339983D01*
X170657345Y-89683635D01*
X170920365Y-89946655D01*
X171264017Y-90089000D01*
X171635983Y-90089000D01*
X171958000Y-89955616D01*
X172280017Y-90089000D01*
X172651983Y-90089000D01*
X172995635Y-89946655D01*
X173258655Y-89683635D01*
X173401000Y-89339983D01*
X173401000Y-88968017D01*
X173258655Y-88624365D01*
X172995635Y-88361345D01*
X172651983Y-88219000D01*
X172280017Y-88219000D01*
X171958000Y-88352384D01*
X171635983Y-88219000D01*
X171264017Y-88219000D01*
X170920365Y-88361345D01*
X170657345Y-88624365D01*
X170515000Y-88968017D01*
X159257819Y-88968017D01*
X158070331Y-87780530D01*
X158027929Y-87717071D01*
X157776537Y-87549096D01*
X157554852Y-87505000D01*
X157554847Y-87505000D01*
X157480000Y-87490112D01*
X157405153Y-87505000D01*
X155254802Y-87505000D01*
X154457030Y-86707229D01*
X154530000Y-86531065D01*
X154530000Y-86188935D01*
X154399072Y-85872849D01*
X154157151Y-85630928D01*
X153841065Y-85500000D01*
X153498935Y-85500000D01*
X153182849Y-85630928D01*
X152940928Y-85872849D01*
X152825797Y-86150797D01*
X152547849Y-86265928D01*
X152305928Y-86507849D01*
X152175000Y-86823935D01*
X146327800Y-86823935D01*
X146327800Y-81104523D01*
X150375414Y-85152138D01*
X150416418Y-85213505D01*
X150659540Y-85375954D01*
X150873935Y-85418600D01*
X150873938Y-85418600D01*
X150946322Y-85432998D01*
X151018706Y-85418600D01*
X165643160Y-85418600D01*
X165944935Y-85543600D01*
X166287065Y-85543600D01*
X166603151Y-85412672D01*
X166845072Y-85170751D01*
X166976000Y-84854665D01*
X166976000Y-84512535D01*
X166845072Y-84196449D01*
X166603151Y-83954528D01*
X166287065Y-83823600D01*
X166010800Y-83823600D01*
X166010800Y-83801335D01*
X165879872Y-83485249D01*
X165745235Y-83350612D01*
X168706447Y-80389400D01*
X169605560Y-80389400D01*
X169907335Y-80514400D01*
X170249465Y-80514400D01*
X170565551Y-80383472D01*
X170807472Y-80141551D01*
X170938400Y-79825465D01*
X170938400Y-79483335D01*
X170807472Y-79167249D01*
X170565551Y-78925328D01*
X170249465Y-78794400D01*
X169907335Y-78794400D01*
X169605560Y-78919400D01*
X168474388Y-78919400D01*
X168402000Y-78905001D01*
X168329612Y-78919400D01*
X168115217Y-78962046D01*
X167872095Y-79124495D01*
X167831091Y-79185862D01*
X164338354Y-82678600D01*
X160573073Y-82678600D01*
X160444272Y-82367649D01*
X160202351Y-82125728D01*
X159886265Y-81994800D01*
X159544135Y-81994800D01*
X159242360Y-82119800D01*
X158460840Y-82119800D01*
X158159065Y-81994800D01*
X157816935Y-81994800D01*
X157500849Y-82125728D01*
X157258928Y-82367649D01*
X157130127Y-82678600D01*
X151739247Y-82678600D01*
X147121582Y-78060935D01*
X183391600Y-78060935D01*
X183391600Y-78403065D01*
X183516601Y-78704842D01*
X183516600Y-113014360D01*
X183391600Y-113316135D01*
X183391600Y-113658265D01*
X183522528Y-113974351D01*
X183764449Y-114216272D01*
X184080535Y-114347200D01*
X184422665Y-114347200D01*
X184738751Y-114216272D01*
X184980672Y-113974351D01*
X185111600Y-113658265D01*
X185111600Y-113316135D01*
X184986600Y-113014360D01*
X184986600Y-105533000D01*
X185215037Y-105533000D01*
X185540312Y-105398267D01*
X185789267Y-105149312D01*
X185924000Y-104824037D01*
X185924000Y-104471963D01*
X187329000Y-104471963D01*
X187329000Y-104824037D01*
X187463733Y-105149312D01*
X187712688Y-105398267D01*
X188037963Y-105533000D01*
X188390037Y-105533000D01*
X188715312Y-105398267D01*
X188964267Y-105149312D01*
X189099000Y-104824037D01*
X189099000Y-104471963D01*
X188964267Y-104146688D01*
X188949000Y-104131421D01*
X188949000Y-103513579D01*
X189091267Y-103371312D01*
X189226000Y-103046037D01*
X189226000Y-102693963D01*
X189091267Y-102368688D01*
X188842312Y-102119733D01*
X188517037Y-101985000D01*
X188164963Y-101985000D01*
X187839688Y-102119733D01*
X187590733Y-102368688D01*
X187456000Y-102693963D01*
X187456000Y-103046037D01*
X187479001Y-103101566D01*
X187479000Y-104131421D01*
X187463733Y-104146688D01*
X187329000Y-104471963D01*
X185924000Y-104471963D01*
X185789267Y-104146688D01*
X185774000Y-104131421D01*
X185774000Y-103386579D01*
X185789267Y-103371312D01*
X185924000Y-103046037D01*
X185924000Y-102693963D01*
X185789267Y-102368688D01*
X185540312Y-102119733D01*
X185215037Y-101985000D01*
X184986600Y-101985000D01*
X184986600Y-101541017D01*
X191089000Y-101541017D01*
X191089000Y-101912983D01*
X191231345Y-102256635D01*
X191494365Y-102519655D01*
X191838017Y-102662000D01*
X192209983Y-102662000D01*
X192532000Y-102528616D01*
X192854017Y-102662000D01*
X193225983Y-102662000D01*
X193548000Y-102528616D01*
X193870017Y-102662000D01*
X194241983Y-102662000D01*
X194585635Y-102519655D01*
X194848655Y-102256635D01*
X194991000Y-101912983D01*
X194991000Y-101541017D01*
X194848655Y-101197365D01*
X194585635Y-100934345D01*
X194241983Y-100792000D01*
X193870017Y-100792000D01*
X193548000Y-100925384D01*
X193225983Y-100792000D01*
X192854017Y-100792000D01*
X192532000Y-100925384D01*
X192209983Y-100792000D01*
X191838017Y-100792000D01*
X191494365Y-100934345D01*
X191231345Y-101197365D01*
X191089000Y-101541017D01*
X184986600Y-101541017D01*
X184986600Y-78704840D01*
X185049073Y-78554017D01*
X186517000Y-78554017D01*
X186517000Y-78925983D01*
X186659345Y-79269635D01*
X186922365Y-79532655D01*
X187266017Y-79675000D01*
X187637983Y-79675000D01*
X187981635Y-79532655D01*
X188023500Y-79490790D01*
X188065365Y-79532655D01*
X188409017Y-79675000D01*
X188780983Y-79675000D01*
X189124635Y-79532655D01*
X189387655Y-79269635D01*
X189530000Y-78925983D01*
X189530000Y-78554017D01*
X189387655Y-78210365D01*
X189124635Y-77947345D01*
X188780983Y-77805000D01*
X188409017Y-77805000D01*
X188065365Y-77947345D01*
X188023500Y-77989210D01*
X187981635Y-77947345D01*
X187637983Y-77805000D01*
X187266017Y-77805000D01*
X186922365Y-77947345D01*
X186659345Y-78210365D01*
X186517000Y-78554017D01*
X185049073Y-78554017D01*
X185111600Y-78403065D01*
X185111600Y-78060935D01*
X184980672Y-77744849D01*
X184738751Y-77502928D01*
X184422665Y-77372000D01*
X184080535Y-77372000D01*
X183764449Y-77502928D01*
X183522528Y-77744849D01*
X183391600Y-78060935D01*
X147121582Y-78060935D01*
X146396074Y-77335428D01*
X146271072Y-77033649D01*
X146029151Y-76791728D01*
X145713065Y-76660800D01*
X145370935Y-76660800D01*
X145054849Y-76791728D01*
X144812928Y-77033649D01*
X144682000Y-77349735D01*
X134314000Y-77349735D01*
X134314000Y-74490017D01*
X168991000Y-74490017D01*
X168991000Y-74861983D01*
X169133345Y-75205635D01*
X169396365Y-75468655D01*
X169740017Y-75611000D01*
X170111983Y-75611000D01*
X170455635Y-75468655D01*
X170718655Y-75205635D01*
X170861000Y-74861983D01*
X170861000Y-74490017D01*
X170718655Y-74146365D01*
X170455635Y-73883345D01*
X170111983Y-73741000D01*
X169740017Y-73741000D01*
X169396365Y-73883345D01*
X169133345Y-74146365D01*
X168991000Y-74490017D01*
X134314000Y-74490017D01*
X134314000Y-73093017D01*
X170388000Y-73093017D01*
X170388000Y-73464983D01*
X170530345Y-73808635D01*
X170793365Y-74071655D01*
X171137017Y-74214000D01*
X171508983Y-74214000D01*
X171852635Y-74071655D01*
X172115655Y-73808635D01*
X172258000Y-73464983D01*
X172258000Y-73093017D01*
X172115655Y-72749365D01*
X171852635Y-72486345D01*
X171508983Y-72344000D01*
X171137017Y-72344000D01*
X170793365Y-72486345D01*
X170530345Y-72749365D01*
X170388000Y-73093017D01*
X134314000Y-73093017D01*
X134314000Y-67763990D01*
X155046000Y-67763990D01*
X155046000Y-68126010D01*
X155184539Y-68460474D01*
X155440526Y-68716461D01*
X155774990Y-68855000D01*
X156137010Y-68855000D01*
X156400500Y-68745859D01*
X156663990Y-68855000D01*
X157026010Y-68855000D01*
X157360474Y-68716461D01*
X157616461Y-68460474D01*
X157755000Y-68126010D01*
X157755000Y-67763990D01*
X157616461Y-67429526D01*
X157360474Y-67173539D01*
X157026010Y-67035000D01*
X156663990Y-67035000D01*
X156400500Y-67144141D01*
X156137010Y-67035000D01*
X155774990Y-67035000D01*
X155440526Y-67173539D01*
X155184539Y-67429526D01*
X155046000Y-67763990D01*
X134314000Y-67763990D01*
X134314000Y-65170435D01*
X162398500Y-65170435D01*
X162398500Y-65512565D01*
X162529428Y-65828651D01*
X162771349Y-66070572D01*
X163087435Y-66201500D01*
X163429565Y-66201500D01*
X163745651Y-66070572D01*
X163987572Y-65828651D01*
X164118500Y-65512565D01*
X164118500Y-65170435D01*
X164034172Y-64966850D01*
X180696500Y-64966850D01*
X180696500Y-65657410D01*
X180793173Y-65890799D01*
X180971802Y-66069427D01*
X181205191Y-66166100D01*
X181895750Y-66166100D01*
X182054500Y-66007350D01*
X182054500Y-64808100D01*
X182308500Y-64808100D01*
X182308500Y-66007350D01*
X182467250Y-66166100D01*
X183157809Y-66166100D01*
X183391198Y-66069427D01*
X183569827Y-65890799D01*
X183666500Y-65657410D01*
X183666500Y-64966850D01*
X183507750Y-64808100D01*
X182308500Y-64808100D01*
X182054500Y-64808100D01*
X180855250Y-64808100D01*
X180696500Y-64966850D01*
X164034172Y-64966850D01*
X163987572Y-64854349D01*
X163745651Y-64612428D01*
X163429565Y-64481500D01*
X163087435Y-64481500D01*
X162771349Y-64612428D01*
X162529428Y-64854349D01*
X162398500Y-65170435D01*
X134314000Y-65170435D01*
X134314000Y-58976126D01*
X176003000Y-58976126D01*
X176003000Y-59387874D01*
X176160569Y-59768280D01*
X176304539Y-59912250D01*
X176160569Y-60056220D01*
X176003000Y-60436626D01*
X176003000Y-60848374D01*
X176160569Y-61228780D01*
X176304539Y-61372750D01*
X176160569Y-61516720D01*
X176003000Y-61897126D01*
X176003000Y-62308874D01*
X176160569Y-62689280D01*
X176451720Y-62980431D01*
X176832126Y-63138000D01*
X177243874Y-63138000D01*
X177624280Y-62980431D01*
X177736500Y-62868211D01*
X177848720Y-62980431D01*
X178229126Y-63138000D01*
X178640874Y-63138000D01*
X179021280Y-62980431D01*
X179165250Y-62836461D01*
X179309220Y-62980431D01*
X179689626Y-63138000D01*
X180101374Y-63138000D01*
X180481780Y-62980431D01*
X180650548Y-62811663D01*
X180669843Y-62908665D01*
X180810191Y-63118709D01*
X181020235Y-63259057D01*
X181042505Y-63263487D01*
X180971802Y-63292773D01*
X180793173Y-63471401D01*
X180696500Y-63704790D01*
X180696500Y-64395350D01*
X180855250Y-64554100D01*
X182054500Y-64554100D01*
X182054500Y-64534100D01*
X182308500Y-64534100D01*
X182308500Y-64554100D01*
X183507750Y-64554100D01*
X183666500Y-64395350D01*
X183666500Y-63704790D01*
X183569827Y-63471401D01*
X183391198Y-63292773D01*
X183251751Y-63235012D01*
X183425809Y-63118709D01*
X183566157Y-62908665D01*
X183615440Y-62660900D01*
X183615440Y-60960900D01*
X183566157Y-60713135D01*
X183425809Y-60503091D01*
X183215765Y-60362743D01*
X182968000Y-60313460D01*
X181268000Y-60313460D01*
X181020235Y-60362743D01*
X180925983Y-60425721D01*
X180772931Y-60056220D01*
X180628961Y-59912250D01*
X180772931Y-59768280D01*
X180930500Y-59387874D01*
X180930500Y-58976126D01*
X180772931Y-58595720D01*
X180481780Y-58304569D01*
X180101374Y-58147000D01*
X179689626Y-58147000D01*
X179309220Y-58304569D01*
X179165250Y-58448539D01*
X179021280Y-58304569D01*
X178640874Y-58147000D01*
X178229126Y-58147000D01*
X177848720Y-58304569D01*
X177736500Y-58416789D01*
X177624280Y-58304569D01*
X177243874Y-58147000D01*
X176832126Y-58147000D01*
X176451720Y-58304569D01*
X176160569Y-58595720D01*
X176003000Y-58976126D01*
X134314000Y-58976126D01*
X134314000Y-54966890D01*
X142957524Y-54966890D01*
X143127355Y-55376924D01*
X143517642Y-55805183D01*
X144042108Y-56051486D01*
X144272000Y-55930819D01*
X144272000Y-54737000D01*
X144526000Y-54737000D01*
X144526000Y-55930819D01*
X144755892Y-56051486D01*
X145280358Y-55805183D01*
X145670645Y-55376924D01*
X145840476Y-54966890D01*
X145719155Y-54737000D01*
X144526000Y-54737000D01*
X144272000Y-54737000D01*
X143078845Y-54737000D01*
X142957524Y-54966890D01*
X134314000Y-54966890D01*
X134314000Y-49790050D01*
X135148000Y-49790050D01*
X135148000Y-50539950D01*
X135434974Y-51232767D01*
X135965233Y-51763026D01*
X136658050Y-52050000D01*
X137407950Y-52050000D01*
X138100767Y-51763026D01*
X138631026Y-51232767D01*
X138636314Y-51220000D01*
X142901560Y-51220000D01*
X142901560Y-52920000D01*
X142950843Y-53167765D01*
X143091191Y-53377809D01*
X143301235Y-53518157D01*
X143404708Y-53538739D01*
X143127355Y-53843076D01*
X142957524Y-54253110D01*
X143078845Y-54483000D01*
X144272000Y-54483000D01*
X144272000Y-54463000D01*
X144526000Y-54463000D01*
X144526000Y-54483000D01*
X145719155Y-54483000D01*
X145840476Y-54253110D01*
X145670645Y-53843076D01*
X145393292Y-53538739D01*
X145496765Y-53518157D01*
X145706809Y-53377809D01*
X145847157Y-53167765D01*
X145896440Y-52920000D01*
X145896440Y-51757017D01*
X176611000Y-51757017D01*
X176611000Y-52128983D01*
X176753345Y-52472635D01*
X177016365Y-52735655D01*
X177360017Y-52878000D01*
X177731983Y-52878000D01*
X178075635Y-52735655D01*
X178338655Y-52472635D01*
X178481000Y-52128983D01*
X178481000Y-51757017D01*
X178338655Y-51413365D01*
X178075635Y-51150345D01*
X177731983Y-51008000D01*
X177360017Y-51008000D01*
X177016365Y-51150345D01*
X176753345Y-51413365D01*
X176611000Y-51757017D01*
X145896440Y-51757017D01*
X145896440Y-51220000D01*
X145847157Y-50972235D01*
X145706809Y-50762191D01*
X145496765Y-50621843D01*
X145249000Y-50572560D01*
X143549000Y-50572560D01*
X143301235Y-50621843D01*
X143091191Y-50762191D01*
X142950843Y-50972235D01*
X142901560Y-51220000D01*
X138636314Y-51220000D01*
X138918000Y-50539950D01*
X138918000Y-50487017D01*
X174960000Y-50487017D01*
X174960000Y-50858983D01*
X175102345Y-51202635D01*
X175365365Y-51465655D01*
X175709017Y-51608000D01*
X176080983Y-51608000D01*
X176424635Y-51465655D01*
X176687655Y-51202635D01*
X176830000Y-50858983D01*
X176830000Y-50487017D01*
X176687655Y-50143365D01*
X176424635Y-49880345D01*
X176080983Y-49738000D01*
X175709017Y-49738000D01*
X175365365Y-49880345D01*
X175102345Y-50143365D01*
X174960000Y-50487017D01*
X138918000Y-50487017D01*
X138918000Y-49790050D01*
X138631026Y-49097233D01*
X138115810Y-48582017D01*
X186517000Y-48582017D01*
X186517000Y-48953983D01*
X186659345Y-49297635D01*
X186922365Y-49560655D01*
X187001660Y-49593500D01*
X186922365Y-49626345D01*
X186659345Y-49889365D01*
X186517000Y-50233017D01*
X186517000Y-50604983D01*
X186659345Y-50948635D01*
X186922365Y-51211655D01*
X187266017Y-51354000D01*
X187637983Y-51354000D01*
X187981635Y-51211655D01*
X188244655Y-50948635D01*
X188387000Y-50604983D01*
X188387000Y-50233017D01*
X188244655Y-49889365D01*
X188145340Y-49790050D01*
X194457000Y-49790050D01*
X194457000Y-50539950D01*
X194743974Y-51232767D01*
X195274233Y-51763026D01*
X195967050Y-52050000D01*
X196716950Y-52050000D01*
X197409767Y-51763026D01*
X197940026Y-51232767D01*
X198227000Y-50539950D01*
X198227000Y-49790050D01*
X197940026Y-49097233D01*
X197409767Y-48566974D01*
X196716950Y-48280000D01*
X195967050Y-48280000D01*
X195274233Y-48566974D01*
X194743974Y-49097233D01*
X194457000Y-49790050D01*
X188145340Y-49790050D01*
X187981635Y-49626345D01*
X187902340Y-49593500D01*
X187981635Y-49560655D01*
X188244655Y-49297635D01*
X188387000Y-48953983D01*
X188387000Y-48582017D01*
X188244655Y-48238365D01*
X187981635Y-47975345D01*
X187637983Y-47833000D01*
X187266017Y-47833000D01*
X186922365Y-47975345D01*
X186659345Y-48238365D01*
X186517000Y-48582017D01*
X138115810Y-48582017D01*
X138100767Y-48566974D01*
X137407950Y-48280000D01*
X136658050Y-48280000D01*
X135965233Y-48566974D01*
X135434974Y-49097233D01*
X135148000Y-49790050D01*
X134314000Y-49790050D01*
X134314000Y-47065000D01*
X198990000Y-47065000D01*
X198990001Y-145645000D01*
X198990001Y-145645000D01*
G37*
X198990001Y-145645000D02*
X154910000Y-145645000D01*
X154910000Y-143541750D01*
X154751250Y-143383000D01*
X153602000Y-143383000D01*
X153602000Y-143403000D01*
X153348000Y-143403000D01*
X153348000Y-143383000D01*
X152198750Y-143383000D01*
X152040000Y-143541750D01*
X152040000Y-145645000D01*
X146410000Y-145645000D01*
X146410000Y-143541750D01*
X146251250Y-143383000D01*
X145102000Y-143383000D01*
X145102000Y-143403000D01*
X144848000Y-143403000D01*
X144848000Y-143383000D01*
X143698750Y-143383000D01*
X143540000Y-143541750D01*
X143540000Y-145645000D01*
X134314000Y-145645000D01*
X134314000Y-142627050D01*
X135148000Y-142627050D01*
X135148000Y-143376950D01*
X135434974Y-144069767D01*
X135965233Y-144600026D01*
X136658050Y-144887000D01*
X137407950Y-144887000D01*
X138100767Y-144600026D01*
X138631026Y-144069767D01*
X138918000Y-143376950D01*
X138918000Y-142627050D01*
X138631026Y-141934233D01*
X138100767Y-141403974D01*
X137407950Y-141117000D01*
X136658050Y-141117000D01*
X135965233Y-141403974D01*
X135434974Y-141934233D01*
X135148000Y-142627050D01*
X134314000Y-142627050D01*
X134314000Y-140679690D01*
X143540000Y-140679690D01*
X143540000Y-142970250D01*
X143698750Y-143129000D01*
X144848000Y-143129000D01*
X144848000Y-140329750D01*
X145102000Y-140329750D01*
X145102000Y-143129000D01*
X146251250Y-143129000D01*
X146410000Y-142970250D01*
X146410000Y-140679690D01*
X152040000Y-140679690D01*
X152040000Y-142970250D01*
X152198750Y-143129000D01*
X153348000Y-143129000D01*
X153348000Y-140329750D01*
X153602000Y-140329750D01*
X153602000Y-143129000D01*
X154751250Y-143129000D01*
X154910000Y-142970250D01*
X154910000Y-142627050D01*
X194457000Y-142627050D01*
X194457000Y-143376950D01*
X194743974Y-144069767D01*
X195274233Y-144600026D01*
X195967050Y-144887000D01*
X196716950Y-144887000D01*
X197409767Y-144600026D01*
X197940026Y-144069767D01*
X198227000Y-143376950D01*
X198227000Y-142627050D01*
X197940026Y-141934233D01*
X197409767Y-141403974D01*
X196716950Y-141117000D01*
X195967050Y-141117000D01*
X195274233Y-141403974D01*
X194743974Y-141934233D01*
X194457000Y-142627050D01*
X154910000Y-142627050D01*
X154910000Y-140679690D01*
X154848004Y-140530017D01*
X164800000Y-140530017D01*
X164800000Y-140901983D01*
X164942345Y-141245635D01*
X165205365Y-141508655D01*
X165549017Y-141651000D01*
X165920983Y-141651000D01*
X166264635Y-141508655D01*
X166527655Y-141245635D01*
X166670000Y-140901983D01*
X166670000Y-140530017D01*
X166527655Y-140186365D01*
X166264635Y-139923345D01*
X165920983Y-139781000D01*
X165549017Y-139781000D01*
X165205365Y-139923345D01*
X164942345Y-140186365D01*
X164800000Y-140530017D01*
X154848004Y-140530017D01*
X154813327Y-140446301D01*
X154634698Y-140267673D01*
X154401309Y-140171000D01*
X153760750Y-140171000D01*
X153602000Y-140329750D01*
X153348000Y-140329750D01*
X153189250Y-140171000D01*
X152548691Y-140171000D01*
X152315302Y-140267673D01*
X152136673Y-140446301D01*
X152040000Y-140679690D01*
X146410000Y-140679690D01*
X146313327Y-140446301D01*
X146134698Y-140267673D01*
X145901309Y-140171000D01*
X145260750Y-140171000D01*
X145102000Y-140329750D01*
X144848000Y-140329750D01*
X144689250Y-140171000D01*
X144048691Y-140171000D01*
X143815302Y-140267673D01*
X143636673Y-140446301D01*
X143540000Y-140679690D01*
X134314000Y-140679690D01*
X134314000Y-133559935D01*
X158525000Y-133559935D01*
X158525000Y-133902065D01*
X158655928Y-134218151D01*
X158897849Y-134460072D01*
X159199627Y-134585073D01*
X159539001Y-134924448D01*
X159539000Y-138973160D01*
X159414000Y-139274935D01*
X159414000Y-139617065D01*
X159544928Y-139933151D01*
X159786849Y-140175072D01*
X160102935Y-140306000D01*
X160445065Y-140306000D01*
X160761151Y-140175072D01*
X161003072Y-139933151D01*
X161134000Y-139617065D01*
X161134000Y-139274935D01*
X161009000Y-138973160D01*
X161009000Y-134692384D01*
X161023398Y-134620000D01*
X161009000Y-134547616D01*
X161009000Y-134547612D01*
X160966354Y-134333217D01*
X160803905Y-134090095D01*
X160742537Y-134049090D01*
X160239073Y-133545627D01*
X160114072Y-133243849D01*
X159872151Y-133001928D01*
X159556065Y-132871000D01*
X159213935Y-132871000D01*
X158897849Y-133001928D01*
X158655928Y-133243849D01*
X158525000Y-133559935D01*
X134314000Y-133559935D01*
X134314000Y-102343335D01*
X134369600Y-102343335D01*
X134369600Y-102685465D01*
X134500528Y-103001551D01*
X134694599Y-103195622D01*
X134694600Y-124457747D01*
X134679711Y-124532599D01*
X134738696Y-124829136D01*
X134846048Y-124989799D01*
X134906671Y-125080528D01*
X134970127Y-125122928D01*
X138855673Y-129008476D01*
X138898071Y-129071929D01*
X138961524Y-129114327D01*
X138961526Y-129114329D01*
X139086902Y-129198102D01*
X139149463Y-129239904D01*
X139371148Y-129284000D01*
X139371152Y-129284000D01*
X139445999Y-129298888D01*
X139520846Y-129284000D01*
X140303515Y-129284000D01*
X140544935Y-129384000D01*
X140887065Y-129384000D01*
X141128485Y-129284000D01*
X150103999Y-129284000D01*
X151520127Y-130700129D01*
X151620128Y-130941551D01*
X151862049Y-131183472D01*
X152178135Y-131314400D01*
X152520265Y-131314400D01*
X152836351Y-131183472D01*
X153078272Y-130941551D01*
X153209200Y-130625465D01*
X153209200Y-130283335D01*
X153078272Y-129967249D01*
X152836351Y-129725328D01*
X152594929Y-129625327D01*
X151009131Y-128039530D01*
X150966729Y-127976071D01*
X150715337Y-127808096D01*
X150493652Y-127764000D01*
X150493647Y-127764000D01*
X150418800Y-127749112D01*
X150343953Y-127764000D01*
X141128485Y-127764000D01*
X140970355Y-127698500D01*
X141203151Y-127602072D01*
X141445072Y-127360151D01*
X141576000Y-127044065D01*
X141576000Y-126701935D01*
X141445072Y-126385849D01*
X141203151Y-126143928D01*
X140887065Y-126013000D01*
X140544935Y-126013000D01*
X140303515Y-126113000D01*
X139100402Y-126113000D01*
X138842405Y-125855003D01*
X140252715Y-125855003D01*
X140494135Y-125955003D01*
X140836265Y-125955003D01*
X141152351Y-125824075D01*
X141394272Y-125582154D01*
X141525200Y-125266068D01*
X141525200Y-124923938D01*
X141394272Y-124607852D01*
X141259122Y-124472702D01*
X141394272Y-124337551D01*
X141525200Y-124021465D01*
X141525200Y-123679335D01*
X141394272Y-123363249D01*
X141208325Y-123177302D01*
X141343472Y-123042154D01*
X141474400Y-122726068D01*
X141474400Y-122383938D01*
X141343472Y-122067852D01*
X141101551Y-121825931D01*
X140785465Y-121695003D01*
X140443335Y-121695003D01*
X140201915Y-121795003D01*
X139532205Y-121795003D01*
X139291600Y-121554399D01*
X139291600Y-119132002D01*
X139363671Y-119204073D01*
X139406071Y-119267529D01*
X139469527Y-119309929D01*
X139657462Y-119435504D01*
X139705605Y-119445080D01*
X139879148Y-119479600D01*
X139879152Y-119479600D01*
X139954000Y-119494488D01*
X140028848Y-119479600D01*
X143148315Y-119479600D01*
X143389735Y-119579600D01*
X143731865Y-119579600D01*
X144047951Y-119448672D01*
X144289872Y-119206751D01*
X144420800Y-118890665D01*
X144420800Y-118819200D01*
X149480353Y-118819200D01*
X149555200Y-118834088D01*
X149630047Y-118819200D01*
X149630052Y-118819200D01*
X149851737Y-118775104D01*
X150103129Y-118607129D01*
X150145531Y-118543670D01*
X150715329Y-117973873D01*
X150956751Y-117873872D01*
X151198672Y-117631951D01*
X151329600Y-117315865D01*
X151329600Y-116973735D01*
X151198672Y-116657649D01*
X150956751Y-116415728D01*
X150640665Y-116284800D01*
X150298535Y-116284800D01*
X149982449Y-116415728D01*
X149740528Y-116657649D01*
X149640527Y-116899071D01*
X149240399Y-117299200D01*
X144420800Y-117299200D01*
X144420800Y-117278535D01*
X144289872Y-116962449D01*
X144047951Y-116720528D01*
X143731865Y-116589600D01*
X143389735Y-116589600D01*
X143148315Y-116689600D01*
X141843602Y-116689600D01*
X141425200Y-116271199D01*
X141425200Y-114356802D01*
X141751271Y-114682873D01*
X141793671Y-114746329D01*
X142045063Y-114914304D01*
X142266748Y-114958400D01*
X142266752Y-114958400D01*
X142341599Y-114973288D01*
X142416446Y-114958400D01*
X146297915Y-114958400D01*
X146539335Y-115058400D01*
X146881465Y-115058400D01*
X147197551Y-114927472D01*
X147439472Y-114685551D01*
X147569903Y-114370665D01*
X147758535Y-114448800D01*
X148100665Y-114448800D01*
X148416751Y-114317872D01*
X148658672Y-114075951D01*
X148777118Y-113790000D01*
X148837915Y-113790000D01*
X149079335Y-113890000D01*
X149421465Y-113890000D01*
X149737551Y-113759072D01*
X149979472Y-113517151D01*
X149995545Y-113478347D01*
X151504870Y-114987672D01*
X151547271Y-115051129D01*
X151798663Y-115219104D01*
X152020348Y-115263200D01*
X152020352Y-115263200D01*
X152095199Y-115278088D01*
X152170046Y-115263200D01*
X157927199Y-115263200D01*
X161495201Y-118831203D01*
X161495200Y-125604348D01*
X161495200Y-126417153D01*
X161480312Y-126492000D01*
X161495200Y-126566847D01*
X161495200Y-126566852D01*
X161531552Y-126749600D01*
X161539297Y-126788537D01*
X161600764Y-126880528D01*
X161707272Y-127039929D01*
X161770728Y-127082329D01*
X162543727Y-127855329D01*
X162643728Y-128096751D01*
X162793177Y-128246200D01*
X155977588Y-128246200D01*
X155905200Y-128231801D01*
X155832812Y-128246200D01*
X155618417Y-128288846D01*
X155375295Y-128451295D01*
X155334290Y-128512663D01*
X154058306Y-129788648D01*
X153843249Y-129877728D01*
X153601328Y-130119649D01*
X153470400Y-130435735D01*
X153470400Y-130777865D01*
X153601328Y-131093951D01*
X153843249Y-131335872D01*
X154159335Y-131466800D01*
X154501465Y-131466800D01*
X154817551Y-131335872D01*
X155059472Y-131093951D01*
X155190400Y-130777865D01*
X155190400Y-130735446D01*
X156209647Y-129716200D01*
X161547600Y-129716200D01*
X161547600Y-130015865D01*
X161672600Y-130317641D01*
X161672601Y-130788411D01*
X161658202Y-130860800D01*
X161715246Y-131147582D01*
X161836691Y-131329337D01*
X161877696Y-131390705D01*
X161939063Y-131431709D01*
X163938354Y-133431000D01*
X163898017Y-133431000D01*
X163639500Y-133538081D01*
X163380983Y-133431000D01*
X163009017Y-133431000D01*
X162665365Y-133573345D01*
X162402345Y-133836365D01*
X162260000Y-134180017D01*
X162260000Y-134551983D01*
X162402345Y-134895635D01*
X162665365Y-135158655D01*
X163009017Y-135301000D01*
X163380983Y-135301000D01*
X163639500Y-135193919D01*
X163898017Y-135301000D01*
X163911000Y-135301000D01*
X163911000Y-135567983D01*
X164018081Y-135826500D01*
X163911000Y-136085017D01*
X163911000Y-136456983D01*
X164053345Y-136800635D01*
X164316365Y-137063655D01*
X164660017Y-137206000D01*
X165031983Y-137206000D01*
X165375635Y-137063655D01*
X165638655Y-136800635D01*
X165781000Y-136456983D01*
X165781000Y-136085017D01*
X165673919Y-135826500D01*
X165781000Y-135567983D01*
X165781000Y-135273647D01*
X166651000Y-136143647D01*
X166651001Y-137697211D01*
X166636602Y-137769600D01*
X166693646Y-138056382D01*
X166693647Y-138056383D01*
X166856096Y-138299505D01*
X166917463Y-138340509D01*
X167959965Y-139383012D01*
X167774528Y-139568449D01*
X167643600Y-139884535D01*
X167643600Y-140226665D01*
X167774528Y-140542751D01*
X168016449Y-140784672D01*
X168332535Y-140915600D01*
X168674665Y-140915600D01*
X168976440Y-140790600D01*
X193221616Y-140790600D01*
X193294000Y-140804998D01*
X193366384Y-140790600D01*
X193366388Y-140790600D01*
X193580783Y-140747954D01*
X193823905Y-140585505D01*
X193864911Y-140524135D01*
X198360539Y-136028508D01*
X198421906Y-135987504D01*
X198584355Y-135744382D01*
X198627001Y-135529987D01*
X198627001Y-135529984D01*
X198641399Y-135457600D01*
X198627001Y-135385216D01*
X198627001Y-61820384D01*
X198641399Y-61748000D01*
X198627001Y-61675616D01*
X198627001Y-61675613D01*
X198584355Y-61461218D01*
X198421906Y-61218096D01*
X198360538Y-61177091D01*
X196912911Y-59729465D01*
X196871905Y-59668095D01*
X196628783Y-59505646D01*
X196414388Y-59463000D01*
X196414384Y-59463000D01*
X196342000Y-59448602D01*
X196269616Y-59463000D01*
X190956847Y-59463000D01*
X189779274Y-58285427D01*
X189654272Y-57983649D01*
X189412351Y-57741728D01*
X189096265Y-57610800D01*
X188754135Y-57610800D01*
X188438049Y-57741728D01*
X188196128Y-57983649D01*
X188065200Y-58299735D01*
X188065200Y-58641865D01*
X188196128Y-58957951D01*
X188438049Y-59199872D01*
X188739827Y-59324874D01*
X189995553Y-60580600D01*
X186588047Y-60580600D01*
X184597674Y-58590227D01*
X184472672Y-58288449D01*
X184230751Y-58046528D01*
X183914665Y-57915600D01*
X183572535Y-57915600D01*
X183256449Y-58046528D01*
X183014528Y-58288449D01*
X182883600Y-58604535D01*
X182883600Y-58946665D01*
X183014528Y-59262751D01*
X183256449Y-59504672D01*
X183558227Y-59629674D01*
X185712691Y-61784137D01*
X185753695Y-61845505D01*
X185996817Y-62007954D01*
X186211212Y-62050600D01*
X186211215Y-62050600D01*
X186283599Y-62064998D01*
X186355983Y-62050600D01*
X194919954Y-62050600D01*
X195962601Y-63093248D01*
X195962600Y-135229953D01*
X192481554Y-138711000D01*
X169366847Y-138711000D01*
X168121000Y-137465154D01*
X168121000Y-135911584D01*
X168135398Y-135839200D01*
X168121000Y-135766816D01*
X168121000Y-135766812D01*
X168078354Y-135552417D01*
X167915905Y-135309295D01*
X167854538Y-135268291D01*
X163142600Y-130556354D01*
X163142600Y-130317640D01*
X163267600Y-130015865D01*
X163267600Y-129716200D01*
X163324670Y-129716200D01*
X163525200Y-129756088D01*
X163821737Y-129697103D01*
X164009672Y-129571529D01*
X164822473Y-128758729D01*
X164885929Y-128716329D01*
X164928924Y-128651982D01*
X165053904Y-128464938D01*
X165069906Y-128384488D01*
X165098000Y-128243252D01*
X165098000Y-128243248D01*
X165112888Y-128168400D01*
X165098000Y-128093552D01*
X165098000Y-127107601D01*
X167456071Y-129465673D01*
X167498471Y-129529129D01*
X167749863Y-129697104D01*
X167971548Y-129741200D01*
X167971552Y-129741200D01*
X168046400Y-129756088D01*
X168121248Y-129741200D01*
X170377115Y-129741200D01*
X170618535Y-129841200D01*
X170960665Y-129841200D01*
X171276751Y-129710272D01*
X171518672Y-129468351D01*
X171609141Y-129249942D01*
X176396871Y-134037673D01*
X176439271Y-134101129D01*
X176690663Y-134269104D01*
X176912348Y-134313200D01*
X176912352Y-134313200D01*
X176987199Y-134328088D01*
X177062046Y-134313200D01*
X191949153Y-134313200D01*
X192024000Y-134328088D01*
X192098847Y-134313200D01*
X192098852Y-134313200D01*
X192320537Y-134269104D01*
X192571929Y-134101129D01*
X192614331Y-134037670D01*
X193270473Y-133381529D01*
X193333929Y-133339129D01*
X193397593Y-133243849D01*
X193501904Y-133087738D01*
X193511669Y-133038646D01*
X193546000Y-132866052D01*
X193546000Y-132866048D01*
X193560888Y-132791200D01*
X193546000Y-132716352D01*
X193546000Y-124821685D01*
X193646000Y-124580265D01*
X193646000Y-124238135D01*
X193515072Y-123922049D01*
X193273151Y-123680128D01*
X192957065Y-123549200D01*
X192614935Y-123549200D01*
X192298849Y-123680128D01*
X192056928Y-123922049D01*
X191926000Y-124238135D01*
X191926000Y-124580265D01*
X192026000Y-124821685D01*
X192026001Y-132476397D01*
X191709199Y-132793200D01*
X177302002Y-132793200D01*
X176760268Y-132251466D01*
X176763151Y-132250272D01*
X177005072Y-132008351D01*
X177136000Y-131692265D01*
X177136000Y-131640017D01*
X182580000Y-131640017D01*
X182580000Y-132011983D01*
X182722345Y-132355635D01*
X182985365Y-132618655D01*
X183329017Y-132761000D01*
X183700983Y-132761000D01*
X184044635Y-132618655D01*
X184307655Y-132355635D01*
X184450000Y-132011983D01*
X184450000Y-131640017D01*
X184307655Y-131296365D01*
X184044635Y-131033345D01*
X183700983Y-130891000D01*
X183329017Y-130891000D01*
X182985365Y-131033345D01*
X182722345Y-131296365D01*
X182580000Y-131640017D01*
X177136000Y-131640017D01*
X177136000Y-131350135D01*
X177005072Y-131034049D01*
X176763151Y-130792128D01*
X176461374Y-130667127D01*
X176164264Y-130370017D01*
X181056000Y-130370017D01*
X181056000Y-130741983D01*
X181198345Y-131085635D01*
X181461365Y-131348655D01*
X181805017Y-131491000D01*
X182176983Y-131491000D01*
X182520635Y-131348655D01*
X182783655Y-131085635D01*
X182926000Y-130741983D01*
X182926000Y-130370017D01*
X182783655Y-130026365D01*
X182520635Y-129763345D01*
X182176983Y-129621000D01*
X181805017Y-129621000D01*
X181461365Y-129763345D01*
X181198345Y-130026365D01*
X181056000Y-130370017D01*
X176164264Y-130370017D01*
X173370264Y-127576017D01*
X184104000Y-127576017D01*
X184104000Y-127947983D01*
X184246345Y-128291635D01*
X184509365Y-128554655D01*
X184853017Y-128697000D01*
X185224983Y-128697000D01*
X185568635Y-128554655D01*
X185831655Y-128291635D01*
X185974000Y-127947983D01*
X185974000Y-127576017D01*
X185831655Y-127232365D01*
X185568635Y-126969345D01*
X185224983Y-126827000D01*
X184853017Y-126827000D01*
X184509365Y-126969345D01*
X184246345Y-127232365D01*
X184104000Y-127576017D01*
X173370264Y-127576017D01*
X172884511Y-127090265D01*
X172843505Y-127028895D01*
X172600383Y-126866446D01*
X172385988Y-126823800D01*
X172385984Y-126823800D01*
X172313600Y-126809402D01*
X172241216Y-126823800D01*
X170941647Y-126823800D01*
X168779046Y-124661200D01*
X170377115Y-124661200D01*
X170618535Y-124761200D01*
X170960665Y-124761200D01*
X171276751Y-124630272D01*
X171518672Y-124388351D01*
X171649600Y-124072265D01*
X171649600Y-123950000D01*
X172862399Y-123950000D01*
X173552071Y-124639673D01*
X173594471Y-124703129D01*
X173845863Y-124871104D01*
X174067548Y-124915200D01*
X174067553Y-124915200D01*
X174142400Y-124930088D01*
X174217247Y-124915200D01*
X176276510Y-124915200D01*
X176118345Y-125073365D01*
X175976000Y-125417017D01*
X175976000Y-125788983D01*
X176118345Y-126132635D01*
X176381365Y-126395655D01*
X176725017Y-126538000D01*
X177096983Y-126538000D01*
X177440635Y-126395655D01*
X177673000Y-126163290D01*
X177905365Y-126395655D01*
X178249017Y-126538000D01*
X178620983Y-126538000D01*
X178964635Y-126395655D01*
X179054273Y-126306017D01*
X185628000Y-126306017D01*
X185628000Y-126677983D01*
X185770345Y-127021635D01*
X186033365Y-127284655D01*
X186377017Y-127427000D01*
X186748983Y-127427000D01*
X187092635Y-127284655D01*
X187355655Y-127021635D01*
X187498000Y-126677983D01*
X187498000Y-126306017D01*
X187355655Y-125962365D01*
X187092635Y-125699345D01*
X186748983Y-125557000D01*
X186377017Y-125557000D01*
X186033365Y-125699345D01*
X185770345Y-125962365D01*
X185628000Y-126306017D01*
X179054273Y-126306017D01*
X179227655Y-126132635D01*
X179370000Y-125788983D01*
X179370000Y-125417017D01*
X179227655Y-125073365D01*
X179069490Y-124915200D01*
X180384715Y-124915200D01*
X180626135Y-125015200D01*
X180968265Y-125015200D01*
X181284351Y-124884272D01*
X181526272Y-124642351D01*
X181657200Y-124326265D01*
X181657200Y-124254800D01*
X183127915Y-124254800D01*
X183369335Y-124354800D01*
X183711465Y-124354800D01*
X184027551Y-124223872D01*
X184269472Y-123981951D01*
X184400400Y-123665865D01*
X184400400Y-123323735D01*
X184269472Y-123007649D01*
X184027551Y-122765728D01*
X183711465Y-122634800D01*
X183369335Y-122634800D01*
X183127915Y-122734800D01*
X174965202Y-122734800D01*
X174377131Y-122146730D01*
X174334729Y-122083271D01*
X174083337Y-121915296D01*
X173861652Y-121871200D01*
X173861647Y-121871200D01*
X173786800Y-121856312D01*
X173711953Y-121871200D01*
X168716802Y-121871200D01*
X168146000Y-121300399D01*
X168146000Y-117912802D01*
X168624470Y-118391272D01*
X168666871Y-118454729D01*
X168730327Y-118497129D01*
X168918262Y-118622704D01*
X168966405Y-118632280D01*
X169139948Y-118666800D01*
X169139952Y-118666800D01*
X169214800Y-118681688D01*
X169289648Y-118666800D01*
X179927515Y-118666800D01*
X180168935Y-118766800D01*
X180511065Y-118766800D01*
X180827151Y-118635872D01*
X181069072Y-118393951D01*
X181200000Y-118077865D01*
X181200000Y-117735735D01*
X181091999Y-117475000D01*
X181200000Y-117214265D01*
X181200000Y-116990400D01*
X181494725Y-116990400D01*
X181592128Y-117225551D01*
X181834049Y-117467472D01*
X182150135Y-117598400D01*
X182492265Y-117598400D01*
X182808351Y-117467472D01*
X183050272Y-117225551D01*
X183181200Y-116909465D01*
X183181200Y-116567335D01*
X183050272Y-116251249D01*
X182808351Y-116009328D01*
X182566929Y-115909327D01*
X182403530Y-115745929D01*
X182361129Y-115682471D01*
X182109737Y-115514496D01*
X181888052Y-115470400D01*
X181888047Y-115470400D01*
X181813200Y-115455512D01*
X181738353Y-115470400D01*
X180447685Y-115470400D01*
X180206265Y-115370400D01*
X179864135Y-115370400D01*
X179548049Y-115501328D01*
X179306128Y-115743249D01*
X179175200Y-116059335D01*
X179175200Y-116283200D01*
X169682002Y-116283200D01*
X165985782Y-112586980D01*
X166222151Y-112489072D01*
X166464072Y-112247151D01*
X166579203Y-111969203D01*
X166857151Y-111854072D01*
X167099072Y-111612151D01*
X167230000Y-111296065D01*
X167230000Y-110953935D01*
X167099072Y-110637849D01*
X166857151Y-110395928D01*
X166541065Y-110265000D01*
X166198935Y-110265000D01*
X165882849Y-110395928D01*
X165640928Y-110637849D01*
X165525797Y-110915797D01*
X165247849Y-111030928D01*
X165005928Y-111272849D01*
X164908020Y-111509218D01*
X163006537Y-109607735D01*
X176127200Y-109607735D01*
X176127200Y-109949865D01*
X176258128Y-110265951D01*
X176500049Y-110507872D01*
X176816135Y-110638800D01*
X177158265Y-110638800D01*
X177460040Y-110513800D01*
X177987560Y-110513800D01*
X178289335Y-110638800D01*
X178631465Y-110638800D01*
X178947551Y-110507872D01*
X179189472Y-110265951D01*
X179320400Y-109949865D01*
X179320400Y-109607735D01*
X179189472Y-109291649D01*
X178947551Y-109049728D01*
X178631465Y-108918800D01*
X178289335Y-108918800D01*
X177987560Y-109043800D01*
X177460040Y-109043800D01*
X177158265Y-108918800D01*
X176816135Y-108918800D01*
X176500049Y-109049728D01*
X176258128Y-109291649D01*
X176127200Y-109607735D01*
X163006537Y-109607735D01*
X161118331Y-107719530D01*
X161075929Y-107656071D01*
X160824537Y-107488096D01*
X160602852Y-107444000D01*
X160602847Y-107444000D01*
X160528000Y-107429112D01*
X160453153Y-107444000D01*
X155102402Y-107444000D01*
X154914419Y-107256017D01*
X163377600Y-107256017D01*
X163377600Y-107627983D01*
X163519945Y-107971635D01*
X163782965Y-108234655D01*
X164126617Y-108377000D01*
X164498583Y-108377000D01*
X164820600Y-108243616D01*
X165142617Y-108377000D01*
X165514583Y-108377000D01*
X165836600Y-108243616D01*
X166158617Y-108377000D01*
X166530583Y-108377000D01*
X166827200Y-108254137D01*
X167123817Y-108377000D01*
X167495783Y-108377000D01*
X167817800Y-108243616D01*
X168139817Y-108377000D01*
X168511783Y-108377000D01*
X168833800Y-108243616D01*
X169155817Y-108377000D01*
X169527783Y-108377000D01*
X169871435Y-108234655D01*
X170134455Y-107971635D01*
X170135366Y-107969435D01*
X179670500Y-107969435D01*
X179670500Y-108311565D01*
X179801428Y-108627651D01*
X180043349Y-108869572D01*
X180359435Y-109000500D01*
X180701565Y-109000500D01*
X181017651Y-108869572D01*
X181259572Y-108627651D01*
X181384573Y-108325873D01*
X182283249Y-107427198D01*
X182351151Y-107399072D01*
X182593072Y-107157151D01*
X182724000Y-106841065D01*
X182724000Y-106498935D01*
X182593072Y-106182849D01*
X182351151Y-105940928D01*
X182035065Y-105810000D01*
X181692935Y-105810000D01*
X181376849Y-105940928D01*
X181134928Y-106182849D01*
X181004000Y-106498935D01*
X181004000Y-106627553D01*
X180345127Y-107286427D01*
X180043349Y-107411428D01*
X179801428Y-107653349D01*
X179670500Y-107969435D01*
X170135366Y-107969435D01*
X170276800Y-107627983D01*
X170276800Y-107256017D01*
X170134455Y-106912365D01*
X169871435Y-106649345D01*
X169527783Y-106507000D01*
X169155817Y-106507000D01*
X168833800Y-106640384D01*
X168511783Y-106507000D01*
X168139817Y-106507000D01*
X167817800Y-106640384D01*
X167495783Y-106507000D01*
X167123817Y-106507000D01*
X166827200Y-106629863D01*
X166530583Y-106507000D01*
X166158617Y-106507000D01*
X165836600Y-106640384D01*
X165514583Y-106507000D01*
X165142617Y-106507000D01*
X164820600Y-106640384D01*
X164498583Y-106507000D01*
X164126617Y-106507000D01*
X163782965Y-106649345D01*
X163519945Y-106912365D01*
X163377600Y-107256017D01*
X154914419Y-107256017D01*
X153803131Y-106144730D01*
X153760729Y-106081271D01*
X153509337Y-105913296D01*
X153287652Y-105869200D01*
X153287647Y-105869200D01*
X153212800Y-105854312D01*
X153137953Y-105869200D01*
X151546402Y-105869200D01*
X151133202Y-105456000D01*
X151188983Y-105456000D01*
X151532635Y-105313655D01*
X151701500Y-105144790D01*
X151870365Y-105313655D01*
X152214017Y-105456000D01*
X152585983Y-105456000D01*
X152929635Y-105313655D01*
X153192655Y-105050635D01*
X153335000Y-104706983D01*
X153335000Y-104335017D01*
X153192655Y-103991365D01*
X153150790Y-103949500D01*
X153192655Y-103907635D01*
X153335000Y-103563983D01*
X153335000Y-103192017D01*
X153192655Y-102848365D01*
X152929635Y-102585345D01*
X152585983Y-102443000D01*
X152214017Y-102443000D01*
X151870365Y-102585345D01*
X151701500Y-102754210D01*
X151532635Y-102585345D01*
X151188983Y-102443000D01*
X150817017Y-102443000D01*
X150670800Y-102503565D01*
X150670800Y-101287017D01*
X174579000Y-101287017D01*
X174579000Y-101658983D01*
X174721345Y-102002635D01*
X174984365Y-102265655D01*
X175328017Y-102408000D01*
X175699983Y-102408000D01*
X176043635Y-102265655D01*
X176306655Y-102002635D01*
X176449000Y-101658983D01*
X176449000Y-101287017D01*
X176306655Y-100943365D01*
X176043635Y-100680345D01*
X175975246Y-100652017D01*
X176865000Y-100652017D01*
X176865000Y-101023983D01*
X177007345Y-101367635D01*
X177270365Y-101630655D01*
X177614017Y-101773000D01*
X177985983Y-101773000D01*
X178329635Y-101630655D01*
X178419273Y-101541017D01*
X179278000Y-101541017D01*
X179278000Y-101912983D01*
X179420345Y-102256635D01*
X179683365Y-102519655D01*
X180027017Y-102662000D01*
X180398983Y-102662000D01*
X180742635Y-102519655D01*
X181005655Y-102256635D01*
X181038500Y-102177340D01*
X181071345Y-102256635D01*
X181334365Y-102519655D01*
X181678017Y-102662000D01*
X182049983Y-102662000D01*
X182393635Y-102519655D01*
X182656655Y-102256635D01*
X182799000Y-101912983D01*
X182799000Y-101541017D01*
X182656655Y-101197365D01*
X182393635Y-100934345D01*
X182049983Y-100792000D01*
X181678017Y-100792000D01*
X181334365Y-100934345D01*
X181071345Y-101197365D01*
X181038500Y-101276660D01*
X181005655Y-101197365D01*
X180742635Y-100934345D01*
X180398983Y-100792000D01*
X180027017Y-100792000D01*
X179683365Y-100934345D01*
X179420345Y-101197365D01*
X179278000Y-101541017D01*
X178419273Y-101541017D01*
X178592655Y-101367635D01*
X178735000Y-101023983D01*
X178735000Y-100652017D01*
X178592655Y-100308365D01*
X178329635Y-100045345D01*
X177985983Y-99903000D01*
X177614017Y-99903000D01*
X177270365Y-100045345D01*
X177007345Y-100308365D01*
X176865000Y-100652017D01*
X175975246Y-100652017D01*
X175699983Y-100538000D01*
X175328017Y-100538000D01*
X174984365Y-100680345D01*
X174721345Y-100943365D01*
X174579000Y-101287017D01*
X150670800Y-101287017D01*
X150670800Y-96188446D01*
X150685688Y-96113599D01*
X150670800Y-96038752D01*
X150670800Y-96038748D01*
X150626704Y-95817063D01*
X150458729Y-95565671D01*
X150395273Y-95523271D01*
X138141474Y-83269473D01*
X138041472Y-83028049D01*
X137799551Y-82786128D01*
X137483465Y-82655200D01*
X137141335Y-82655200D01*
X136825249Y-82786128D01*
X136704095Y-82907282D01*
X136694537Y-82900896D01*
X136472852Y-82856800D01*
X136472847Y-82856800D01*
X136398000Y-82841912D01*
X136323153Y-82856800D01*
X136302485Y-82856800D01*
X136061065Y-82756800D01*
X135718935Y-82756800D01*
X135402849Y-82887728D01*
X135160928Y-83129649D01*
X135030000Y-83445735D01*
X135030000Y-83787865D01*
X135160928Y-84103951D01*
X135402849Y-84345872D01*
X135718935Y-84476800D01*
X136061065Y-84476800D01*
X136147427Y-84441028D01*
X136624088Y-84917689D01*
X136550400Y-84991377D01*
X136377151Y-84818128D01*
X136061065Y-84687200D01*
X135718935Y-84687200D01*
X135402849Y-84818128D01*
X135160928Y-85060049D01*
X135030000Y-85376135D01*
X135030000Y-85718265D01*
X135160928Y-86034351D01*
X135402849Y-86276272D01*
X135662230Y-86383712D01*
X135818462Y-86488103D01*
X136040147Y-86532199D01*
X136040151Y-86532199D01*
X136114999Y-86547087D01*
X136189847Y-86532199D01*
X136257398Y-86532199D01*
X136674888Y-86949689D01*
X136601200Y-87023377D01*
X136427951Y-86850128D01*
X136111865Y-86719200D01*
X135769735Y-86719200D01*
X135453649Y-86850128D01*
X135211728Y-87092049D01*
X135080800Y-87408135D01*
X135080800Y-87750265D01*
X135211728Y-88066351D01*
X135453649Y-88308272D01*
X135713030Y-88415712D01*
X135869262Y-88520103D01*
X136090947Y-88564199D01*
X136090951Y-88564199D01*
X136165799Y-88579087D01*
X136240647Y-88564199D01*
X136308198Y-88564199D01*
X136549550Y-88805552D01*
X136523652Y-88800400D01*
X136523647Y-88800400D01*
X136448800Y-88785512D01*
X136373953Y-88800400D01*
X136353285Y-88800400D01*
X136111865Y-88700400D01*
X135769735Y-88700400D01*
X135453649Y-88831328D01*
X135211728Y-89073249D01*
X135080800Y-89389335D01*
X135080800Y-89731465D01*
X135211728Y-90047551D01*
X135453649Y-90289472D01*
X135769735Y-90420400D01*
X136111865Y-90420400D01*
X136198227Y-90384628D01*
X136739792Y-90926193D01*
X136523652Y-90883200D01*
X136523647Y-90883200D01*
X136448800Y-90868312D01*
X136373953Y-90883200D01*
X136302485Y-90883200D01*
X136061065Y-90783200D01*
X135718935Y-90783200D01*
X135402849Y-90914128D01*
X135160928Y-91156049D01*
X135030000Y-91472135D01*
X135030000Y-91814265D01*
X135160928Y-92130351D01*
X135402849Y-92372272D01*
X135718935Y-92503200D01*
X136061065Y-92503200D01*
X136183348Y-92452549D01*
X136625578Y-92894779D01*
X136472852Y-92864400D01*
X136472847Y-92864400D01*
X136398000Y-92849512D01*
X136343509Y-92860351D01*
X136111865Y-92764400D01*
X135769735Y-92764400D01*
X135453649Y-92895328D01*
X135211728Y-93137249D01*
X135080800Y-93453335D01*
X135080800Y-93795465D01*
X135211728Y-94111551D01*
X135453649Y-94353472D01*
X135769735Y-94484400D01*
X136111865Y-94484400D01*
X136162306Y-94463507D01*
X136638538Y-94939739D01*
X136601200Y-94932312D01*
X136526353Y-94947200D01*
X136353285Y-94947200D01*
X136111865Y-94847200D01*
X135769735Y-94847200D01*
X135453649Y-94978128D01*
X135211728Y-95220049D01*
X135080800Y-95536135D01*
X135080800Y-95878265D01*
X135211728Y-96194351D01*
X135453649Y-96436272D01*
X135769735Y-96567200D01*
X136111865Y-96567200D01*
X136305989Y-96486790D01*
X136751088Y-96931889D01*
X136652000Y-97030977D01*
X136427951Y-96806928D01*
X136111865Y-96676000D01*
X135769735Y-96676000D01*
X135453649Y-96806928D01*
X135211728Y-97048849D01*
X135080800Y-97364935D01*
X135080800Y-97707065D01*
X135211728Y-98023151D01*
X135453649Y-98265072D01*
X135695072Y-98365074D01*
X136037999Y-98708000D01*
X135769735Y-98708000D01*
X135453649Y-98838928D01*
X135211728Y-99080849D01*
X135080800Y-99396935D01*
X135080800Y-99739065D01*
X135180800Y-99980485D01*
X135180800Y-100305953D01*
X135165912Y-100380800D01*
X135180800Y-100455647D01*
X135180800Y-100455651D01*
X135224896Y-100677336D01*
X135392871Y-100928729D01*
X135456329Y-100971131D01*
X135811927Y-101326729D01*
X135811930Y-101326731D01*
X136139599Y-101654400D01*
X135922135Y-101654400D01*
X135661400Y-101762401D01*
X135400665Y-101654400D01*
X135058535Y-101654400D01*
X134742449Y-101785328D01*
X134500528Y-102027249D01*
X134369600Y-102343335D01*
X134314000Y-102343335D01*
X134314000Y-77349735D01*
X144682000Y-77349735D01*
X144682000Y-77691865D01*
X144812928Y-78007951D01*
X144833777Y-78028800D01*
X144812928Y-78049649D01*
X144682000Y-78365735D01*
X144682000Y-78707865D01*
X144812928Y-79023951D01*
X145054849Y-79265872D01*
X145356627Y-79390874D01*
X145367349Y-79401595D01*
X145252544Y-79678756D01*
X145252544Y-79728082D01*
X145105649Y-79788928D01*
X144863728Y-80030849D01*
X144732800Y-80346935D01*
X144732800Y-80689065D01*
X144857800Y-80990840D01*
X144857801Y-87303611D01*
X144843402Y-87376000D01*
X144900446Y-87662782D01*
X144972013Y-87769889D01*
X145062896Y-87905905D01*
X145124263Y-87946909D01*
X151930691Y-94753338D01*
X151971695Y-94814705D01*
X152214817Y-94977154D01*
X152429212Y-95019800D01*
X152501600Y-95034199D01*
X152573988Y-95019800D01*
X177428760Y-95019800D01*
X177730535Y-95144800D01*
X178072665Y-95144800D01*
X178388751Y-95013872D01*
X178630672Y-94771951D01*
X178761600Y-94455865D01*
X178761600Y-94113735D01*
X178630672Y-93797649D01*
X178388751Y-93555728D01*
X178072665Y-93424800D01*
X177730535Y-93424800D01*
X177428760Y-93549800D01*
X152806047Y-93549800D01*
X146327800Y-87071554D01*
X146327800Y-86823935D01*
X152175000Y-86823935D01*
X152175000Y-87166065D01*
X152275000Y-87407486D01*
X152275001Y-88190149D01*
X152260112Y-88265000D01*
X152275001Y-88339852D01*
X152319097Y-88561537D01*
X152487072Y-88812929D01*
X152550528Y-88855329D01*
X153714670Y-90019472D01*
X153757071Y-90082929D01*
X154008463Y-90250904D01*
X154230148Y-90295000D01*
X154230152Y-90295000D01*
X154304999Y-90309888D01*
X154379846Y-90295000D01*
X156530199Y-90295000D01*
X157285927Y-91050729D01*
X157385928Y-91292151D01*
X157627849Y-91534072D01*
X157943935Y-91665000D01*
X158286065Y-91665000D01*
X158602151Y-91534072D01*
X158844072Y-91292151D01*
X158975000Y-90976065D01*
X158975000Y-90931029D01*
X159213935Y-91030000D01*
X159556065Y-91030000D01*
X159872151Y-90899072D01*
X160114072Y-90657151D01*
X160245000Y-90341065D01*
X160245000Y-89998935D01*
X160114072Y-89682849D01*
X159872151Y-89440928D01*
X159630729Y-89340927D01*
X159257819Y-88968017D01*
X170515000Y-88968017D01*
X170515000Y-89339983D01*
X170657345Y-89683635D01*
X170920365Y-89946655D01*
X171264017Y-90089000D01*
X171635983Y-90089000D01*
X171958000Y-89955616D01*
X172280017Y-90089000D01*
X172651983Y-90089000D01*
X172995635Y-89946655D01*
X173258655Y-89683635D01*
X173401000Y-89339983D01*
X173401000Y-88968017D01*
X173258655Y-88624365D01*
X172995635Y-88361345D01*
X172651983Y-88219000D01*
X172280017Y-88219000D01*
X171958000Y-88352384D01*
X171635983Y-88219000D01*
X171264017Y-88219000D01*
X170920365Y-88361345D01*
X170657345Y-88624365D01*
X170515000Y-88968017D01*
X159257819Y-88968017D01*
X158070331Y-87780530D01*
X158027929Y-87717071D01*
X157776537Y-87549096D01*
X157554852Y-87505000D01*
X157554847Y-87505000D01*
X157480000Y-87490112D01*
X157405153Y-87505000D01*
X155254802Y-87505000D01*
X154457030Y-86707229D01*
X154530000Y-86531065D01*
X154530000Y-86188935D01*
X154399072Y-85872849D01*
X154157151Y-85630928D01*
X153841065Y-85500000D01*
X153498935Y-85500000D01*
X153182849Y-85630928D01*
X152940928Y-85872849D01*
X152825797Y-86150797D01*
X152547849Y-86265928D01*
X152305928Y-86507849D01*
X152175000Y-86823935D01*
X146327800Y-86823935D01*
X146327800Y-81104523D01*
X150375414Y-85152138D01*
X150416418Y-85213505D01*
X150659540Y-85375954D01*
X150873935Y-85418600D01*
X150873938Y-85418600D01*
X150946322Y-85432998D01*
X151018706Y-85418600D01*
X165643160Y-85418600D01*
X165944935Y-85543600D01*
X166287065Y-85543600D01*
X166603151Y-85412672D01*
X166845072Y-85170751D01*
X166976000Y-84854665D01*
X166976000Y-84512535D01*
X166845072Y-84196449D01*
X166603151Y-83954528D01*
X166287065Y-83823600D01*
X166010800Y-83823600D01*
X166010800Y-83801335D01*
X165879872Y-83485249D01*
X165745235Y-83350612D01*
X168706447Y-80389400D01*
X169605560Y-80389400D01*
X169907335Y-80514400D01*
X170249465Y-80514400D01*
X170565551Y-80383472D01*
X170807472Y-80141551D01*
X170938400Y-79825465D01*
X170938400Y-79483335D01*
X170807472Y-79167249D01*
X170565551Y-78925328D01*
X170249465Y-78794400D01*
X169907335Y-78794400D01*
X169605560Y-78919400D01*
X168474388Y-78919400D01*
X168402000Y-78905001D01*
X168329612Y-78919400D01*
X168115217Y-78962046D01*
X167872095Y-79124495D01*
X167831091Y-79185862D01*
X164338354Y-82678600D01*
X160573073Y-82678600D01*
X160444272Y-82367649D01*
X160202351Y-82125728D01*
X159886265Y-81994800D01*
X159544135Y-81994800D01*
X159242360Y-82119800D01*
X158460840Y-82119800D01*
X158159065Y-81994800D01*
X157816935Y-81994800D01*
X157500849Y-82125728D01*
X157258928Y-82367649D01*
X157130127Y-82678600D01*
X151739247Y-82678600D01*
X147121582Y-78060935D01*
X183391600Y-78060935D01*
X183391600Y-78403065D01*
X183516601Y-78704842D01*
X183516600Y-113014360D01*
X183391600Y-113316135D01*
X183391600Y-113658265D01*
X183522528Y-113974351D01*
X183764449Y-114216272D01*
X184080535Y-114347200D01*
X184422665Y-114347200D01*
X184738751Y-114216272D01*
X184980672Y-113974351D01*
X185111600Y-113658265D01*
X185111600Y-113316135D01*
X184986600Y-113014360D01*
X184986600Y-105533000D01*
X185215037Y-105533000D01*
X185540312Y-105398267D01*
X185789267Y-105149312D01*
X185924000Y-104824037D01*
X185924000Y-104471963D01*
X187329000Y-104471963D01*
X187329000Y-104824037D01*
X187463733Y-105149312D01*
X187712688Y-105398267D01*
X188037963Y-105533000D01*
X188390037Y-105533000D01*
X188715312Y-105398267D01*
X188964267Y-105149312D01*
X189099000Y-104824037D01*
X189099000Y-104471963D01*
X188964267Y-104146688D01*
X188949000Y-104131421D01*
X188949000Y-103513579D01*
X189091267Y-103371312D01*
X189226000Y-103046037D01*
X189226000Y-102693963D01*
X189091267Y-102368688D01*
X188842312Y-102119733D01*
X188517037Y-101985000D01*
X188164963Y-101985000D01*
X187839688Y-102119733D01*
X187590733Y-102368688D01*
X187456000Y-102693963D01*
X187456000Y-103046037D01*
X187479001Y-103101566D01*
X187479000Y-104131421D01*
X187463733Y-104146688D01*
X187329000Y-104471963D01*
X185924000Y-104471963D01*
X185789267Y-104146688D01*
X185774000Y-104131421D01*
X185774000Y-103386579D01*
X185789267Y-103371312D01*
X185924000Y-103046037D01*
X185924000Y-102693963D01*
X185789267Y-102368688D01*
X185540312Y-102119733D01*
X185215037Y-101985000D01*
X184986600Y-101985000D01*
X184986600Y-101541017D01*
X191089000Y-101541017D01*
X191089000Y-101912983D01*
X191231345Y-102256635D01*
X191494365Y-102519655D01*
X191838017Y-102662000D01*
X192209983Y-102662000D01*
X192532000Y-102528616D01*
X192854017Y-102662000D01*
X193225983Y-102662000D01*
X193548000Y-102528616D01*
X193870017Y-102662000D01*
X194241983Y-102662000D01*
X194585635Y-102519655D01*
X194848655Y-102256635D01*
X194991000Y-101912983D01*
X194991000Y-101541017D01*
X194848655Y-101197365D01*
X194585635Y-100934345D01*
X194241983Y-100792000D01*
X193870017Y-100792000D01*
X193548000Y-100925384D01*
X193225983Y-100792000D01*
X192854017Y-100792000D01*
X192532000Y-100925384D01*
X192209983Y-100792000D01*
X191838017Y-100792000D01*
X191494365Y-100934345D01*
X191231345Y-101197365D01*
X191089000Y-101541017D01*
X184986600Y-101541017D01*
X184986600Y-78704840D01*
X185049073Y-78554017D01*
X186517000Y-78554017D01*
X186517000Y-78925983D01*
X186659345Y-79269635D01*
X186922365Y-79532655D01*
X187266017Y-79675000D01*
X187637983Y-79675000D01*
X187981635Y-79532655D01*
X188023500Y-79490790D01*
X188065365Y-79532655D01*
X188409017Y-79675000D01*
X188780983Y-79675000D01*
X189124635Y-79532655D01*
X189387655Y-79269635D01*
X189530000Y-78925983D01*
X189530000Y-78554017D01*
X189387655Y-78210365D01*
X189124635Y-77947345D01*
X188780983Y-77805000D01*
X188409017Y-77805000D01*
X188065365Y-77947345D01*
X188023500Y-77989210D01*
X187981635Y-77947345D01*
X187637983Y-77805000D01*
X187266017Y-77805000D01*
X186922365Y-77947345D01*
X186659345Y-78210365D01*
X186517000Y-78554017D01*
X185049073Y-78554017D01*
X185111600Y-78403065D01*
X185111600Y-78060935D01*
X184980672Y-77744849D01*
X184738751Y-77502928D01*
X184422665Y-77372000D01*
X184080535Y-77372000D01*
X183764449Y-77502928D01*
X183522528Y-77744849D01*
X183391600Y-78060935D01*
X147121582Y-78060935D01*
X146396074Y-77335428D01*
X146271072Y-77033649D01*
X146029151Y-76791728D01*
X145713065Y-76660800D01*
X145370935Y-76660800D01*
X145054849Y-76791728D01*
X144812928Y-77033649D01*
X144682000Y-77349735D01*
X134314000Y-77349735D01*
X134314000Y-74490017D01*
X168991000Y-74490017D01*
X168991000Y-74861983D01*
X169133345Y-75205635D01*
X169396365Y-75468655D01*
X169740017Y-75611000D01*
X170111983Y-75611000D01*
X170455635Y-75468655D01*
X170718655Y-75205635D01*
X170861000Y-74861983D01*
X170861000Y-74490017D01*
X170718655Y-74146365D01*
X170455635Y-73883345D01*
X170111983Y-73741000D01*
X169740017Y-73741000D01*
X169396365Y-73883345D01*
X169133345Y-74146365D01*
X168991000Y-74490017D01*
X134314000Y-74490017D01*
X134314000Y-73093017D01*
X170388000Y-73093017D01*
X170388000Y-73464983D01*
X170530345Y-73808635D01*
X170793365Y-74071655D01*
X171137017Y-74214000D01*
X171508983Y-74214000D01*
X171852635Y-74071655D01*
X172115655Y-73808635D01*
X172258000Y-73464983D01*
X172258000Y-73093017D01*
X172115655Y-72749365D01*
X171852635Y-72486345D01*
X171508983Y-72344000D01*
X171137017Y-72344000D01*
X170793365Y-72486345D01*
X170530345Y-72749365D01*
X170388000Y-73093017D01*
X134314000Y-73093017D01*
X134314000Y-67763990D01*
X155046000Y-67763990D01*
X155046000Y-68126010D01*
X155184539Y-68460474D01*
X155440526Y-68716461D01*
X155774990Y-68855000D01*
X156137010Y-68855000D01*
X156400500Y-68745859D01*
X156663990Y-68855000D01*
X157026010Y-68855000D01*
X157360474Y-68716461D01*
X157616461Y-68460474D01*
X157755000Y-68126010D01*
X157755000Y-67763990D01*
X157616461Y-67429526D01*
X157360474Y-67173539D01*
X157026010Y-67035000D01*
X156663990Y-67035000D01*
X156400500Y-67144141D01*
X156137010Y-67035000D01*
X155774990Y-67035000D01*
X155440526Y-67173539D01*
X155184539Y-67429526D01*
X155046000Y-67763990D01*
X134314000Y-67763990D01*
X134314000Y-65170435D01*
X162398500Y-65170435D01*
X162398500Y-65512565D01*
X162529428Y-65828651D01*
X162771349Y-66070572D01*
X163087435Y-66201500D01*
X163429565Y-66201500D01*
X163745651Y-66070572D01*
X163987572Y-65828651D01*
X164118500Y-65512565D01*
X164118500Y-65170435D01*
X164034172Y-64966850D01*
X180696500Y-64966850D01*
X180696500Y-65657410D01*
X180793173Y-65890799D01*
X180971802Y-66069427D01*
X181205191Y-66166100D01*
X181895750Y-66166100D01*
X182054500Y-66007350D01*
X182054500Y-64808100D01*
X182308500Y-64808100D01*
X182308500Y-66007350D01*
X182467250Y-66166100D01*
X183157809Y-66166100D01*
X183391198Y-66069427D01*
X183569827Y-65890799D01*
X183666500Y-65657410D01*
X183666500Y-64966850D01*
X183507750Y-64808100D01*
X182308500Y-64808100D01*
X182054500Y-64808100D01*
X180855250Y-64808100D01*
X180696500Y-64966850D01*
X164034172Y-64966850D01*
X163987572Y-64854349D01*
X163745651Y-64612428D01*
X163429565Y-64481500D01*
X163087435Y-64481500D01*
X162771349Y-64612428D01*
X162529428Y-64854349D01*
X162398500Y-65170435D01*
X134314000Y-65170435D01*
X134314000Y-58976126D01*
X176003000Y-58976126D01*
X176003000Y-59387874D01*
X176160569Y-59768280D01*
X176304539Y-59912250D01*
X176160569Y-60056220D01*
X176003000Y-60436626D01*
X176003000Y-60848374D01*
X176160569Y-61228780D01*
X176304539Y-61372750D01*
X176160569Y-61516720D01*
X176003000Y-61897126D01*
X176003000Y-62308874D01*
X176160569Y-62689280D01*
X176451720Y-62980431D01*
X176832126Y-63138000D01*
X177243874Y-63138000D01*
X177624280Y-62980431D01*
X177736500Y-62868211D01*
X177848720Y-62980431D01*
X178229126Y-63138000D01*
X178640874Y-63138000D01*
X179021280Y-62980431D01*
X179165250Y-62836461D01*
X179309220Y-62980431D01*
X179689626Y-63138000D01*
X180101374Y-63138000D01*
X180481780Y-62980431D01*
X180650548Y-62811663D01*
X180669843Y-62908665D01*
X180810191Y-63118709D01*
X181020235Y-63259057D01*
X181042505Y-63263487D01*
X180971802Y-63292773D01*
X180793173Y-63471401D01*
X180696500Y-63704790D01*
X180696500Y-64395350D01*
X180855250Y-64554100D01*
X182054500Y-64554100D01*
X182054500Y-64534100D01*
X182308500Y-64534100D01*
X182308500Y-64554100D01*
X183507750Y-64554100D01*
X183666500Y-64395350D01*
X183666500Y-63704790D01*
X183569827Y-63471401D01*
X183391198Y-63292773D01*
X183251751Y-63235012D01*
X183425809Y-63118709D01*
X183566157Y-62908665D01*
X183615440Y-62660900D01*
X183615440Y-60960900D01*
X183566157Y-60713135D01*
X183425809Y-60503091D01*
X183215765Y-60362743D01*
X182968000Y-60313460D01*
X181268000Y-60313460D01*
X181020235Y-60362743D01*
X180925983Y-60425721D01*
X180772931Y-60056220D01*
X180628961Y-59912250D01*
X180772931Y-59768280D01*
X180930500Y-59387874D01*
X180930500Y-58976126D01*
X180772931Y-58595720D01*
X180481780Y-58304569D01*
X180101374Y-58147000D01*
X179689626Y-58147000D01*
X179309220Y-58304569D01*
X179165250Y-58448539D01*
X179021280Y-58304569D01*
X178640874Y-58147000D01*
X178229126Y-58147000D01*
X177848720Y-58304569D01*
X177736500Y-58416789D01*
X177624280Y-58304569D01*
X177243874Y-58147000D01*
X176832126Y-58147000D01*
X176451720Y-58304569D01*
X176160569Y-58595720D01*
X176003000Y-58976126D01*
X134314000Y-58976126D01*
X134314000Y-54966890D01*
X142957524Y-54966890D01*
X143127355Y-55376924D01*
X143517642Y-55805183D01*
X144042108Y-56051486D01*
X144272000Y-55930819D01*
X144272000Y-54737000D01*
X144526000Y-54737000D01*
X144526000Y-55930819D01*
X144755892Y-56051486D01*
X145280358Y-55805183D01*
X145670645Y-55376924D01*
X145840476Y-54966890D01*
X145719155Y-54737000D01*
X144526000Y-54737000D01*
X144272000Y-54737000D01*
X143078845Y-54737000D01*
X142957524Y-54966890D01*
X134314000Y-54966890D01*
X134314000Y-49790050D01*
X135148000Y-49790050D01*
X135148000Y-50539950D01*
X135434974Y-51232767D01*
X135965233Y-51763026D01*
X136658050Y-52050000D01*
X137407950Y-52050000D01*
X138100767Y-51763026D01*
X138631026Y-51232767D01*
X138636314Y-51220000D01*
X142901560Y-51220000D01*
X142901560Y-52920000D01*
X142950843Y-53167765D01*
X143091191Y-53377809D01*
X143301235Y-53518157D01*
X143404708Y-53538739D01*
X143127355Y-53843076D01*
X142957524Y-54253110D01*
X143078845Y-54483000D01*
X144272000Y-54483000D01*
X144272000Y-54463000D01*
X144526000Y-54463000D01*
X144526000Y-54483000D01*
X145719155Y-54483000D01*
X145840476Y-54253110D01*
X145670645Y-53843076D01*
X145393292Y-53538739D01*
X145496765Y-53518157D01*
X145706809Y-53377809D01*
X145847157Y-53167765D01*
X145896440Y-52920000D01*
X145896440Y-51757017D01*
X176611000Y-51757017D01*
X176611000Y-52128983D01*
X176753345Y-52472635D01*
X177016365Y-52735655D01*
X177360017Y-52878000D01*
X177731983Y-52878000D01*
X178075635Y-52735655D01*
X178338655Y-52472635D01*
X178481000Y-52128983D01*
X178481000Y-51757017D01*
X178338655Y-51413365D01*
X178075635Y-51150345D01*
X177731983Y-51008000D01*
X177360017Y-51008000D01*
X177016365Y-51150345D01*
X176753345Y-51413365D01*
X176611000Y-51757017D01*
X145896440Y-51757017D01*
X145896440Y-51220000D01*
X145847157Y-50972235D01*
X145706809Y-50762191D01*
X145496765Y-50621843D01*
X145249000Y-50572560D01*
X143549000Y-50572560D01*
X143301235Y-50621843D01*
X143091191Y-50762191D01*
X142950843Y-50972235D01*
X142901560Y-51220000D01*
X138636314Y-51220000D01*
X138918000Y-50539950D01*
X138918000Y-50487017D01*
X174960000Y-50487017D01*
X174960000Y-50858983D01*
X175102345Y-51202635D01*
X175365365Y-51465655D01*
X175709017Y-51608000D01*
X176080983Y-51608000D01*
X176424635Y-51465655D01*
X176687655Y-51202635D01*
X176830000Y-50858983D01*
X176830000Y-50487017D01*
X176687655Y-50143365D01*
X176424635Y-49880345D01*
X176080983Y-49738000D01*
X175709017Y-49738000D01*
X175365365Y-49880345D01*
X175102345Y-50143365D01*
X174960000Y-50487017D01*
X138918000Y-50487017D01*
X138918000Y-49790050D01*
X138631026Y-49097233D01*
X138115810Y-48582017D01*
X186517000Y-48582017D01*
X186517000Y-48953983D01*
X186659345Y-49297635D01*
X186922365Y-49560655D01*
X187001660Y-49593500D01*
X186922365Y-49626345D01*
X186659345Y-49889365D01*
X186517000Y-50233017D01*
X186517000Y-50604983D01*
X186659345Y-50948635D01*
X186922365Y-51211655D01*
X187266017Y-51354000D01*
X187637983Y-51354000D01*
X187981635Y-51211655D01*
X188244655Y-50948635D01*
X188387000Y-50604983D01*
X188387000Y-50233017D01*
X188244655Y-49889365D01*
X188145340Y-49790050D01*
X194457000Y-49790050D01*
X194457000Y-50539950D01*
X194743974Y-51232767D01*
X195274233Y-51763026D01*
X195967050Y-52050000D01*
X196716950Y-52050000D01*
X197409767Y-51763026D01*
X197940026Y-51232767D01*
X198227000Y-50539950D01*
X198227000Y-49790050D01*
X197940026Y-49097233D01*
X197409767Y-48566974D01*
X196716950Y-48280000D01*
X195967050Y-48280000D01*
X195274233Y-48566974D01*
X194743974Y-49097233D01*
X194457000Y-49790050D01*
X188145340Y-49790050D01*
X187981635Y-49626345D01*
X187902340Y-49593500D01*
X187981635Y-49560655D01*
X188244655Y-49297635D01*
X188387000Y-48953983D01*
X188387000Y-48582017D01*
X188244655Y-48238365D01*
X187981635Y-47975345D01*
X187637983Y-47833000D01*
X187266017Y-47833000D01*
X186922365Y-47975345D01*
X186659345Y-48238365D01*
X186517000Y-48582017D01*
X138115810Y-48582017D01*
X138100767Y-48566974D01*
X137407950Y-48280000D01*
X136658050Y-48280000D01*
X135965233Y-48566974D01*
X135434974Y-49097233D01*
X135148000Y-49790050D01*
X134314000Y-49790050D01*
X134314000Y-47065000D01*
X198990000Y-47065000D01*
X198990001Y-145645000D01*
M02*
