G04 #@! TF.GenerationSoftware,KiCad,Pcbnew,(5.0.0-rc2-dev-491-g430239499)*
G04 #@! TF.CreationDate,2018-09-21T18:59:49-07:00*
G04 #@! TF.ProjectId,PCB_Rev3,5043425F526576332E6B696361645F70,rev?*
G04 #@! TF.SameCoordinates,Original*
G04 #@! TF.FileFunction,Legend,Top*
G04 #@! TF.FilePolarity,Positive*
%FSLAX46Y46*%
G04 Gerber Fmt 4.6, Leading zero omitted, Abs format (unit mm)*
G04 Created by KiCad (PCBNEW (5.0.0-rc2-dev-491-g430239499)) date 09/21/18 18:59:49*
%MOMM*%
%LPD*%
G01*
G04 APERTURE LIST*
%ADD10C,0.200000*%
%ADD11C,0.120000*%
%ADD12C,0.152400*%
%ADD13C,0.150000*%
%ADD14C,0.100000*%
%ADD15C,0.125000*%
%ADD16C,0.050000*%
G04 APERTURE END LIST*
D10*
X178863050Y-105816400D02*
G75*
G03X178863050Y-105816400I-148650J0D01*
G01*
X173990000Y-139192000D02*
X171196000Y-139192000D01*
X173990000Y-118618000D02*
X173990000Y-139192000D01*
X171196000Y-118618000D02*
X173990000Y-118618000D01*
X192913000Y-139319000D02*
X195453000Y-139319000D01*
X192786000Y-118618000D02*
X192913000Y-139319000D01*
X195580000Y-118618000D02*
X192786000Y-118618000D01*
D11*
X180851500Y-63351100D02*
X182181500Y-63351100D01*
X180851500Y-64681100D02*
X180851500Y-63351100D01*
X180851500Y-65951100D02*
X183511500Y-65951100D01*
X183511500Y-65951100D02*
X183511500Y-66011100D01*
X180851500Y-65951100D02*
X180851500Y-66011100D01*
X180851500Y-66011100D02*
X183511500Y-66011100D01*
D12*
X144464999Y-114850001D02*
X144815001Y-114850001D01*
X144464999Y-114850001D02*
X144464999Y-115200003D01*
X144464999Y-132450002D02*
X144464999Y-132800004D01*
X144464999Y-132800004D02*
X144815001Y-132800004D01*
X165064999Y-132800004D02*
X165415001Y-132800004D01*
X165415001Y-132450002D02*
X165415001Y-132800004D01*
X165415001Y-114850001D02*
X165415001Y-115600002D01*
X163940000Y-114850001D02*
X165415001Y-114850001D01*
D13*
X164573104Y-62306500D02*
G75*
G03X164573104Y-62306500I-179605J0D01*
G01*
D12*
X167465499Y-61953501D02*
X167465499Y-61753499D01*
X167465499Y-61953501D02*
X167265497Y-61953501D01*
X167465499Y-59303501D02*
X167465499Y-59103499D01*
X167465499Y-59103499D02*
X167265497Y-59103499D01*
X164315501Y-59103499D02*
X164115499Y-59103499D01*
X164115499Y-59303501D02*
X164115499Y-59103499D01*
X164690499Y-61953501D02*
X164115499Y-61953501D01*
X164115499Y-61953501D02*
X164115499Y-61628500D01*
D11*
X194609000Y-104275000D02*
X194609000Y-105275000D01*
X193249000Y-105275000D02*
X193249000Y-104275000D01*
X173365200Y-143510000D02*
G75*
G03X173365200Y-143510000I-950000J0D01*
G01*
X176782500Y-48129100D02*
X179382500Y-48129100D01*
X176782500Y-49229100D02*
X179382500Y-49229100D01*
X176782500Y-48129100D02*
X176782500Y-49229100D01*
X178125500Y-49967600D02*
X179125500Y-49967600D01*
X179125500Y-51327600D02*
X178125500Y-51327600D01*
X186507800Y-115451800D02*
X189107800Y-115451800D01*
X186507800Y-116551800D02*
X189107800Y-116551800D01*
X186507800Y-115451800D02*
X186507800Y-116551800D01*
X192998800Y-116681800D02*
X191998800Y-116681800D01*
X191998800Y-115321800D02*
X192998800Y-115321800D01*
X188646000Y-84283000D02*
X189646000Y-84283000D01*
X189646000Y-85643000D02*
X188646000Y-85643000D01*
X187741000Y-101061000D02*
X187741000Y-100361000D01*
X188941000Y-100361000D02*
X188941000Y-101061000D01*
X185639000Y-100300000D02*
X185639000Y-101000000D01*
X184439000Y-101000000D02*
X184439000Y-100300000D01*
X182915000Y-103032000D02*
X182915000Y-102332000D01*
X184115000Y-102332000D02*
X184115000Y-103032000D01*
X185963000Y-103093000D02*
X185963000Y-102393000D01*
X187163000Y-102393000D02*
X187163000Y-103093000D01*
X190592000Y-102393000D02*
X190592000Y-103093000D01*
X189392000Y-103093000D02*
X189392000Y-102393000D01*
X174914000Y-103851000D02*
X174214000Y-103851000D01*
X174214000Y-102651000D02*
X174914000Y-102651000D01*
X174209000Y-104175000D02*
X174909000Y-104175000D01*
X174909000Y-105375000D02*
X174209000Y-105375000D01*
X188369500Y-138717500D02*
X188369500Y-139417500D01*
X187169500Y-139417500D02*
X187169500Y-138717500D01*
X185518500Y-139417500D02*
X185518500Y-138717500D01*
X186718500Y-138717500D02*
X186718500Y-139417500D01*
X183236500Y-136235500D02*
X183236500Y-137235500D01*
X184936500Y-137235500D02*
X184936500Y-136235500D01*
X187865500Y-128298500D02*
X187165500Y-128298500D01*
X187165500Y-127098500D02*
X187865500Y-127098500D01*
X178585500Y-138776000D02*
X178585500Y-139476000D01*
X177385500Y-139476000D02*
X177385500Y-138776000D01*
X180688500Y-131162500D02*
X181388500Y-131162500D01*
X181388500Y-132362500D02*
X180688500Y-132362500D01*
X173255442Y-86783407D02*
X172555442Y-86783407D01*
X172555442Y-85583407D02*
X173255442Y-85583407D01*
X177511000Y-122837500D02*
X177511000Y-123537500D01*
X176311000Y-123537500D02*
X176311000Y-122837500D01*
X172555442Y-87107407D02*
X173255442Y-87107407D01*
X173255442Y-88307407D02*
X172555442Y-88307407D01*
X177835000Y-123606000D02*
X177835000Y-122906000D01*
X179035000Y-122906000D02*
X179035000Y-123606000D01*
X170723000Y-76042000D02*
X170723000Y-75342000D01*
X171923000Y-75342000D02*
X171923000Y-76042000D01*
X188877000Y-83527000D02*
X189877000Y-83527000D01*
X189877000Y-81827000D02*
X188877000Y-81827000D01*
X181772000Y-82265000D02*
X181772000Y-81565000D01*
X182972000Y-81565000D02*
X182972000Y-82265000D01*
X188687000Y-79410000D02*
X189387000Y-79410000D01*
X189387000Y-80610000D02*
X188687000Y-80610000D01*
X157069000Y-70266000D02*
X157769000Y-70266000D01*
X157769000Y-71466000D02*
X157069000Y-71466000D01*
X157769000Y-69942000D02*
X157069000Y-69942000D01*
X157069000Y-68742000D02*
X157769000Y-68742000D01*
X157328500Y-57666000D02*
X157328500Y-58666000D01*
X159028500Y-58666000D02*
X159028500Y-57666000D01*
X161124000Y-58622500D02*
X161124000Y-57622500D01*
X159424000Y-57622500D02*
X159424000Y-58622500D01*
X161642500Y-58902000D02*
X161642500Y-58202000D01*
X162842500Y-58202000D02*
X162842500Y-58902000D01*
X170591000Y-65306500D02*
X169891000Y-65306500D01*
X169891000Y-64106500D02*
X170591000Y-64106500D01*
X170145000Y-58199500D02*
X170145000Y-58899500D01*
X168945000Y-58899500D02*
X168945000Y-58199500D01*
X176364000Y-58602500D02*
X176364000Y-57602500D01*
X174664000Y-57602500D02*
X174664000Y-58602500D01*
X174268500Y-58582500D02*
X174268500Y-57582500D01*
X172568500Y-57582500D02*
X172568500Y-58582500D01*
X170473000Y-57622500D02*
X170473000Y-58622500D01*
X172173000Y-58622500D02*
X172173000Y-57622500D01*
X151831500Y-61393000D02*
X151831500Y-67893000D01*
X151831500Y-61393000D02*
X143431500Y-61393000D01*
X151831500Y-67893000D02*
X143431500Y-67893000D01*
X148896000Y-60264500D02*
X148896000Y-51864500D01*
X155396000Y-60264500D02*
X155396000Y-51864500D01*
X155396000Y-60264500D02*
X148896000Y-60264500D01*
X143069000Y-50740000D02*
X144399000Y-50740000D01*
X143069000Y-52070000D02*
X143069000Y-50740000D01*
X143069000Y-53340000D02*
X145729000Y-53340000D01*
X145729000Y-53340000D02*
X145729000Y-55940000D01*
X143069000Y-53340000D02*
X143069000Y-55940000D01*
X143069000Y-55940000D02*
X145729000Y-55940000D01*
D13*
X163735000Y-52864000D02*
X163735000Y-56864000D01*
X167735000Y-52864000D02*
X167735000Y-56864000D01*
X163735000Y-56864000D02*
X167735000Y-56864000D01*
X163735000Y-52864000D02*
X167735000Y-52864000D01*
D11*
X191471000Y-105275000D02*
X191471000Y-104275000D01*
X192831000Y-104275000D02*
X192831000Y-105275000D01*
X178480000Y-103005000D02*
X178480000Y-104005000D01*
X177120000Y-104005000D02*
X177120000Y-103005000D01*
X187804500Y-135490500D02*
X186804500Y-135490500D01*
X186804500Y-134130500D02*
X187804500Y-134130500D01*
X179977500Y-141998500D02*
X179977500Y-140998500D01*
X181337500Y-140998500D02*
X181337500Y-141998500D01*
X177437500Y-134718500D02*
X177437500Y-133718500D01*
X178797500Y-133718500D02*
X178797500Y-134718500D01*
X173177000Y-80309000D02*
X172177000Y-80309000D01*
X172177000Y-78949000D02*
X173177000Y-78949000D01*
X178316000Y-126828000D02*
X179316000Y-126828000D01*
X179316000Y-128188000D02*
X178316000Y-128188000D01*
X170606000Y-86833000D02*
X170606000Y-87833000D01*
X169246000Y-87833000D02*
X169246000Y-86833000D01*
X179019000Y-119806000D02*
X178019000Y-119806000D01*
X178019000Y-118446000D02*
X179019000Y-118446000D01*
X180559000Y-78441000D02*
X181559000Y-78441000D01*
X181559000Y-79801000D02*
X180559000Y-79801000D01*
X152095720Y-71724968D02*
X152095720Y-70724968D01*
X153455720Y-70724968D02*
X153455720Y-71724968D01*
X161499000Y-72382000D02*
X161499000Y-71382000D01*
X162859000Y-71382000D02*
X162859000Y-72382000D01*
X163277000Y-72423468D02*
X163277000Y-71423468D01*
X164637000Y-71423468D02*
X164637000Y-72423468D01*
X155178500Y-61160000D02*
X157178500Y-61160000D01*
X157178500Y-63300000D02*
X155178500Y-63300000D01*
X150254220Y-71745468D02*
X150254220Y-70745468D01*
X151614220Y-70745468D02*
X151614220Y-71745468D01*
X161562500Y-63131500D02*
X161562500Y-62131500D01*
X162922500Y-62131500D02*
X162922500Y-63131500D01*
X172859500Y-63735500D02*
X171859500Y-63735500D01*
X171859500Y-62375500D02*
X172859500Y-62375500D01*
X171839000Y-60724500D02*
X172839000Y-60724500D01*
X172839000Y-62084500D02*
X171839000Y-62084500D01*
X165468500Y-64026500D02*
X166468500Y-64026500D01*
X166468500Y-65386500D02*
X165468500Y-65386500D01*
X185617000Y-109015000D02*
X184867000Y-109015000D01*
X188767000Y-108315000D02*
X188767000Y-109015000D01*
X188017000Y-105615000D02*
X188767000Y-105615000D01*
X188767000Y-105615000D02*
X188767000Y-106315000D01*
X188767000Y-109015000D02*
X188017000Y-109015000D01*
X184867000Y-109015000D02*
X184867000Y-108315000D01*
X185017000Y-105615000D02*
G75*
G03X185017000Y-105615000I-150000J0D01*
G01*
X184927000Y-105615000D02*
G75*
G03X184927000Y-105615000I-60000J0D01*
G01*
D14*
X177984000Y-105838000D02*
X178234000Y-105838000D01*
X178134000Y-108538000D02*
X177984000Y-108538000D01*
X178134000Y-108388000D02*
X178134000Y-108538000D01*
X175434000Y-108538000D02*
X175434000Y-108388000D01*
X175434000Y-108538000D02*
X175584000Y-108538000D01*
X175434000Y-105838000D02*
X175584000Y-105838000D01*
X175424000Y-105838000D02*
X175424000Y-105988000D01*
D11*
X186188500Y-129954500D02*
X186388500Y-129954500D01*
X188488500Y-129954500D02*
X188488500Y-129554500D01*
X188588500Y-129954500D02*
X188488500Y-129954500D01*
X188588500Y-132554500D02*
X188588500Y-129954500D01*
X188388500Y-132554500D02*
X188588500Y-132554500D01*
X186188500Y-132554500D02*
X186388500Y-132554500D01*
X186188500Y-129954500D02*
X186188500Y-132554500D01*
X182521500Y-137568500D02*
X182521500Y-134618500D01*
X179301500Y-135768500D02*
X179301500Y-137568500D01*
D13*
X174331500Y-84762000D02*
X175556500Y-84762000D01*
X174331500Y-81637000D02*
X170981500Y-81637000D01*
X174331500Y-84987000D02*
X170981500Y-84987000D01*
X174331500Y-81637000D02*
X174331500Y-81937000D01*
X170981500Y-81637000D02*
X170981500Y-81937000D01*
X170981500Y-84987000D02*
X170981500Y-84687000D01*
X174331500Y-84987000D02*
X174331500Y-84762000D01*
X179617500Y-124992000D02*
X179842500Y-124992000D01*
X179617500Y-121642000D02*
X179917500Y-121642000D01*
X182967500Y-121642000D02*
X182667500Y-121642000D01*
X182967500Y-124992000D02*
X182667500Y-124992000D01*
X179617500Y-124992000D02*
X179617500Y-121642000D01*
X182967500Y-124992000D02*
X182967500Y-121642000D01*
X179842500Y-124992000D02*
X179842500Y-126217000D01*
D11*
X173299000Y-76896000D02*
X175899000Y-76896000D01*
X175899000Y-76896000D02*
X175899000Y-76696000D01*
X175899000Y-74696000D02*
X175899000Y-74496000D01*
X175899000Y-74496000D02*
X173299000Y-74496000D01*
X173299000Y-74496000D02*
X173299000Y-74596000D01*
X173299000Y-74596000D02*
X172899000Y-74596000D01*
X173299000Y-76896000D02*
X173299000Y-76696000D01*
X183492500Y-80443500D02*
X183492500Y-82243500D01*
X186712500Y-82243500D02*
X186712500Y-79293500D01*
X157452220Y-75313968D02*
X160452220Y-75313968D01*
X156452220Y-72073968D02*
X158452220Y-72073968D01*
X167322832Y-102532168D02*
X167322832Y-104532168D01*
X169362832Y-104532168D02*
X169362832Y-102532168D01*
X166374000Y-104537000D02*
X166374000Y-102537000D01*
X164334000Y-102537000D02*
X164334000Y-104537000D01*
X164176000Y-136429000D02*
X164176000Y-137129000D01*
X162976000Y-137129000D02*
X162976000Y-136429000D01*
X161325000Y-137195000D02*
X161325000Y-136495000D01*
X162525000Y-136495000D02*
X162525000Y-137195000D01*
X159096000Y-136495000D02*
X159096000Y-137195000D01*
X157896000Y-137195000D02*
X157896000Y-136495000D01*
X157525000Y-136195000D02*
X157525000Y-137195000D01*
X156165000Y-137195000D02*
X156165000Y-136195000D01*
X160954000Y-136449000D02*
X160954000Y-137449000D01*
X159594000Y-137449000D02*
X159594000Y-136449000D01*
D12*
X150427000Y-136671799D02*
X150427000Y-136456338D01*
X148023000Y-136456338D02*
X148023000Y-136671799D01*
X148023000Y-135067799D02*
X148023000Y-135283260D01*
X150427000Y-135283260D02*
X150427000Y-135067799D01*
D11*
X182544000Y-103851000D02*
X182544000Y-104851000D01*
X181184000Y-104851000D02*
X181184000Y-103851000D01*
X179533000Y-104851000D02*
X179533000Y-103851000D01*
X180893000Y-103851000D02*
X180893000Y-104851000D01*
D10*
X171198000Y-139226000D02*
X178788000Y-145756000D01*
X195578000Y-139226000D02*
X187988000Y-145756000D01*
X195578000Y-112816000D02*
X195578000Y-139226000D01*
X171198000Y-112816000D02*
X195578000Y-112816000D01*
X171198000Y-139226000D02*
X171198000Y-112816000D01*
X187988000Y-145756000D02*
X178788000Y-145756000D01*
X199350000Y-77061000D02*
X199350000Y-86261000D01*
X192820000Y-93851000D02*
X166410000Y-93851000D01*
X166410000Y-93851000D02*
X166410000Y-69471000D01*
X166410000Y-69471000D02*
X192820000Y-69471000D01*
X192820000Y-69471000D02*
X199350000Y-77061000D01*
X192820000Y-93851000D02*
X199350000Y-86261000D01*
D11*
X138592000Y-123298500D02*
X137592000Y-123298500D01*
X137592000Y-121938500D02*
X138592000Y-121938500D01*
X163352000Y-142840000D02*
X162652000Y-142840000D01*
X162652000Y-141640000D02*
X163352000Y-141640000D01*
X143337000Y-107279000D02*
X143337000Y-107759000D01*
X139217000Y-107279000D02*
X139217000Y-107759000D01*
X143337000Y-105279000D02*
X143337000Y-105759000D01*
X139217000Y-105279000D02*
X139217000Y-105759000D01*
X143337000Y-103279000D02*
X143337000Y-103759000D01*
X139217000Y-103279000D02*
X139217000Y-103759000D01*
X143337000Y-101279000D02*
X143337000Y-101759000D01*
X139217000Y-101279000D02*
X139217000Y-101759000D01*
X143337000Y-99279000D02*
X143337000Y-99759000D01*
X139217000Y-99279000D02*
X139217000Y-99759000D01*
X143337000Y-97279000D02*
X143337000Y-97759000D01*
X139217000Y-97279000D02*
X139217000Y-97759000D01*
X143337000Y-95279000D02*
X143337000Y-95759000D01*
X139217000Y-95279000D02*
X139217000Y-95759000D01*
X143337000Y-93279000D02*
X143337000Y-93759000D01*
X139217000Y-93279000D02*
X139217000Y-93759000D01*
X143337000Y-91279000D02*
X143337000Y-91759000D01*
X139217000Y-91279000D02*
X139217000Y-91759000D01*
X143337000Y-89279000D02*
X143337000Y-89759000D01*
X139217000Y-89279000D02*
X139217000Y-89759000D01*
X143337000Y-87279000D02*
X143337000Y-87759000D01*
X139217000Y-87279000D02*
X139217000Y-87759000D01*
X143337000Y-85279000D02*
X143337000Y-85759000D01*
X139217000Y-85279000D02*
X139217000Y-85759000D01*
X143337000Y-83279000D02*
X143337000Y-83759000D01*
X139217000Y-83279000D02*
X139217000Y-83759000D01*
X143337000Y-81279000D02*
X143337000Y-81759000D01*
X139217000Y-81279000D02*
X139217000Y-81759000D01*
X143337000Y-79279000D02*
X143337000Y-79759000D01*
X139217000Y-79279000D02*
X139217000Y-79759000D01*
X143337000Y-77279000D02*
X143337000Y-77759000D01*
X139217000Y-77279000D02*
X139217000Y-77759000D01*
X143337000Y-75279000D02*
X143337000Y-75759000D01*
X139217000Y-75279000D02*
X139217000Y-75759000D01*
X143337000Y-109279000D02*
X143337000Y-109579000D01*
X139217000Y-109279000D02*
X139217000Y-109579000D01*
X143337000Y-73459000D02*
X143337000Y-73759000D01*
X139217000Y-73459000D02*
X139217000Y-73759000D01*
X137962000Y-73759000D02*
X139217000Y-73759000D01*
X139217000Y-109579000D02*
X143337000Y-109579000D01*
X139217000Y-73459000D02*
X143337000Y-73459000D01*
X138592000Y-129204000D02*
X137592000Y-129204000D01*
X137592000Y-127844000D02*
X138592000Y-127844000D01*
X137592000Y-126193000D02*
X138592000Y-126193000D01*
X138592000Y-127553000D02*
X137592000Y-127553000D01*
X162525000Y-140036000D02*
X163525000Y-140036000D01*
X163525000Y-141396000D02*
X162525000Y-141396000D01*
X138633000Y-125902000D02*
X137633000Y-125902000D01*
X137633000Y-124542000D02*
X138633000Y-124542000D01*
X182964500Y-48091000D02*
X182964500Y-49191000D01*
X182964500Y-49191000D02*
X185564500Y-49191000D01*
X182964500Y-48091000D02*
X185564500Y-48091000D01*
X191926800Y-49216400D02*
X189326800Y-49216400D01*
X191926800Y-48116400D02*
X189326800Y-48116400D01*
X191926800Y-49216400D02*
X191926800Y-48116400D01*
X184305500Y-49866000D02*
X185305500Y-49866000D01*
X185305500Y-51226000D02*
X184305500Y-51226000D01*
X190682500Y-51226000D02*
X189682500Y-51226000D01*
X189682500Y-49866000D02*
X190682500Y-49866000D01*
X185343600Y-57728400D02*
X184343600Y-57728400D01*
X184343600Y-56368400D02*
X185343600Y-56368400D01*
X190542800Y-57728400D02*
X189542800Y-57728400D01*
X189542800Y-56368400D02*
X190542800Y-56368400D01*
X186365000Y-53215000D02*
X186365000Y-54675000D01*
X183205000Y-53215000D02*
X183205000Y-55375000D01*
X183205000Y-53215000D02*
X184135000Y-53215000D01*
X186365000Y-53215000D02*
X185435000Y-53215000D01*
X191724400Y-53189600D02*
X190794400Y-53189600D01*
X188564400Y-53189600D02*
X189494400Y-53189600D01*
X188564400Y-53189600D02*
X188564400Y-55349600D01*
X191724400Y-53189600D02*
X191724400Y-54649600D01*
X180788000Y-63140900D02*
X183448000Y-63140900D01*
X180788000Y-63080900D02*
X180788000Y-63140900D01*
X183448000Y-63080900D02*
X183448000Y-63140900D01*
X180788000Y-63080900D02*
X183448000Y-63080900D01*
X180788000Y-61810900D02*
X180788000Y-60480900D01*
X180788000Y-60480900D02*
X182118000Y-60480900D01*
D13*
X184188195Y-64181100D02*
X184092957Y-64133480D01*
X183950100Y-64133480D01*
X183807242Y-64181100D01*
X183712004Y-64276338D01*
X183664385Y-64371576D01*
X183616766Y-64562052D01*
X183616766Y-64704909D01*
X183664385Y-64895385D01*
X183712004Y-64990623D01*
X183807242Y-65085861D01*
X183950100Y-65133480D01*
X184045338Y-65133480D01*
X184188195Y-65085861D01*
X184235814Y-65038242D01*
X184235814Y-64704909D01*
X184045338Y-64704909D01*
X184664385Y-65133480D02*
X184664385Y-64133480D01*
X185235814Y-65133480D01*
X185235814Y-64133480D01*
X185712004Y-65133480D02*
X185712004Y-64133480D01*
X185950100Y-64133480D01*
X186092957Y-64181100D01*
X186188195Y-64276338D01*
X186235814Y-64371576D01*
X186283433Y-64562052D01*
X186283433Y-64704909D01*
X186235814Y-64895385D01*
X186188195Y-64990623D01*
X186092957Y-65085861D01*
X185950100Y-65133480D01*
X185712004Y-65133480D01*
X164020595Y-113358680D02*
X164020595Y-114168204D01*
X164068214Y-114263442D01*
X164115833Y-114311061D01*
X164211071Y-114358680D01*
X164401547Y-114358680D01*
X164496785Y-114311061D01*
X164544404Y-114263442D01*
X164592023Y-114168204D01*
X164592023Y-113358680D01*
X165020595Y-113453919D02*
X165068214Y-113406300D01*
X165163452Y-113358680D01*
X165401547Y-113358680D01*
X165496785Y-113406300D01*
X165544404Y-113453919D01*
X165592023Y-113549157D01*
X165592023Y-113644395D01*
X165544404Y-113787252D01*
X164972976Y-114358680D01*
X165592023Y-114358680D01*
X164560404Y-57504080D02*
X164560404Y-58313604D01*
X164608023Y-58408842D01*
X164655642Y-58456461D01*
X164750880Y-58504080D01*
X164941357Y-58504080D01*
X165036595Y-58456461D01*
X165084214Y-58408842D01*
X165131833Y-58313604D01*
X165131833Y-57504080D01*
X166131833Y-58504080D02*
X165560404Y-58504080D01*
X165846119Y-58504080D02*
X165846119Y-57504080D01*
X165750880Y-57646938D01*
X165655642Y-57742176D01*
X165560404Y-57789795D01*
X166465166Y-57504080D02*
X167131833Y-57504080D01*
X166703261Y-58504080D01*
X194381380Y-109016857D02*
X193905190Y-109350190D01*
X194381380Y-109588285D02*
X193381380Y-109588285D01*
X193381380Y-109207333D01*
X193429000Y-109112095D01*
X193476619Y-109064476D01*
X193571857Y-109016857D01*
X193714714Y-109016857D01*
X193809952Y-109064476D01*
X193857571Y-109112095D01*
X193905190Y-109207333D01*
X193905190Y-109588285D01*
X194381380Y-108064476D02*
X194381380Y-108635904D01*
X194381380Y-108350190D02*
X193381380Y-108350190D01*
X193524238Y-108445428D01*
X193619476Y-108540666D01*
X193667095Y-108635904D01*
X193381380Y-107207333D02*
X193381380Y-107397809D01*
X193429000Y-107493047D01*
X193476619Y-107540666D01*
X193619476Y-107635904D01*
X193809952Y-107683523D01*
X194190904Y-107683523D01*
X194286142Y-107635904D01*
X194333761Y-107588285D01*
X194381380Y-107493047D01*
X194381380Y-107302571D01*
X194333761Y-107207333D01*
X194286142Y-107159714D01*
X194190904Y-107112095D01*
X193952809Y-107112095D01*
X193857571Y-107159714D01*
X193809952Y-107207333D01*
X193762333Y-107302571D01*
X193762333Y-107493047D01*
X193809952Y-107588285D01*
X193857571Y-107635904D01*
X193952809Y-107683523D01*
X171153295Y-141314380D02*
X171724723Y-141314380D01*
X171439009Y-142314380D02*
X171439009Y-141314380D01*
X172058057Y-142314380D02*
X172058057Y-141314380D01*
X172439009Y-141314380D01*
X172534247Y-141362000D01*
X172581866Y-141409619D01*
X172629485Y-141504857D01*
X172629485Y-141647714D01*
X172581866Y-141742952D01*
X172534247Y-141790571D01*
X172439009Y-141838190D01*
X172058057Y-141838190D01*
X173010438Y-141409619D02*
X173058057Y-141362000D01*
X173153295Y-141314380D01*
X173391390Y-141314380D01*
X173486628Y-141362000D01*
X173534247Y-141409619D01*
X173581866Y-141504857D01*
X173581866Y-141600095D01*
X173534247Y-141742952D01*
X172962819Y-142314380D01*
X173581866Y-142314380D01*
X174877504Y-49106080D02*
X174877504Y-48106080D01*
X175115600Y-48106080D01*
X175258457Y-48153700D01*
X175353695Y-48248938D01*
X175401314Y-48344176D01*
X175448933Y-48534652D01*
X175448933Y-48677509D01*
X175401314Y-48867985D01*
X175353695Y-48963223D01*
X175258457Y-49058461D01*
X175115600Y-49106080D01*
X174877504Y-49106080D01*
X176306076Y-48439414D02*
X176306076Y-49106080D01*
X176067980Y-48058461D02*
X175829885Y-48772747D01*
X176448933Y-48772747D01*
X178693842Y-52649380D02*
X178360509Y-52173190D01*
X178122414Y-52649380D02*
X178122414Y-51649380D01*
X178503366Y-51649380D01*
X178598604Y-51697000D01*
X178646223Y-51744619D01*
X178693842Y-51839857D01*
X178693842Y-51982714D01*
X178646223Y-52077952D01*
X178598604Y-52125571D01*
X178503366Y-52173190D01*
X178122414Y-52173190D01*
X179550985Y-51982714D02*
X179550985Y-52649380D01*
X179312890Y-51601761D02*
X179074795Y-52316047D01*
X179693842Y-52316047D01*
X180027176Y-51744619D02*
X180074795Y-51697000D01*
X180170033Y-51649380D01*
X180408128Y-51649380D01*
X180503366Y-51697000D01*
X180550985Y-51744619D01*
X180598604Y-51839857D01*
X180598604Y-51935095D01*
X180550985Y-52077952D01*
X179979557Y-52649380D01*
X180598604Y-52649380D01*
X187569704Y-115004180D02*
X187569704Y-114004180D01*
X187807800Y-114004180D01*
X187950657Y-114051800D01*
X188045895Y-114147038D01*
X188093514Y-114242276D01*
X188141133Y-114432752D01*
X188141133Y-114575609D01*
X188093514Y-114766085D01*
X188045895Y-114861323D01*
X187950657Y-114956561D01*
X187807800Y-115004180D01*
X187569704Y-115004180D01*
X189093514Y-115004180D02*
X188522085Y-115004180D01*
X188807800Y-115004180D02*
X188807800Y-114004180D01*
X188712561Y-114147038D01*
X188617323Y-114242276D01*
X188522085Y-114289895D01*
X191855942Y-117904180D02*
X191522609Y-117427990D01*
X191284514Y-117904180D02*
X191284514Y-116904180D01*
X191665466Y-116904180D01*
X191760704Y-116951800D01*
X191808323Y-116999419D01*
X191855942Y-117094657D01*
X191855942Y-117237514D01*
X191808323Y-117332752D01*
X191760704Y-117380371D01*
X191665466Y-117427990D01*
X191284514Y-117427990D01*
X192236895Y-116999419D02*
X192284514Y-116951800D01*
X192379752Y-116904180D01*
X192617847Y-116904180D01*
X192713085Y-116951800D01*
X192760704Y-116999419D01*
X192808323Y-117094657D01*
X192808323Y-117189895D01*
X192760704Y-117332752D01*
X192189276Y-117904180D01*
X192808323Y-117904180D01*
X193760704Y-117904180D02*
X193189276Y-117904180D01*
X193474990Y-117904180D02*
X193474990Y-116904180D01*
X193379752Y-117047038D01*
X193284514Y-117142276D01*
X193189276Y-117189895D01*
X188434742Y-86939380D02*
X188101409Y-86463190D01*
X187863314Y-86939380D02*
X187863314Y-85939380D01*
X188244266Y-85939380D01*
X188339504Y-85987000D01*
X188387123Y-86034619D01*
X188434742Y-86129857D01*
X188434742Y-86272714D01*
X188387123Y-86367952D01*
X188339504Y-86415571D01*
X188244266Y-86463190D01*
X187863314Y-86463190D01*
X188815695Y-86034619D02*
X188863314Y-85987000D01*
X188958552Y-85939380D01*
X189196647Y-85939380D01*
X189291885Y-85987000D01*
X189339504Y-86034619D01*
X189387123Y-86129857D01*
X189387123Y-86225095D01*
X189339504Y-86367952D01*
X188768076Y-86939380D01*
X189387123Y-86939380D01*
X189863314Y-86939380D02*
X190053790Y-86939380D01*
X190149028Y-86891761D01*
X190196647Y-86844142D01*
X190291885Y-86701285D01*
X190339504Y-86510809D01*
X190339504Y-86129857D01*
X190291885Y-86034619D01*
X190244266Y-85987000D01*
X190149028Y-85939380D01*
X189958552Y-85939380D01*
X189863314Y-85987000D01*
X189815695Y-86034619D01*
X189768076Y-86129857D01*
X189768076Y-86367952D01*
X189815695Y-86463190D01*
X189863314Y-86510809D01*
X189958552Y-86558428D01*
X190149028Y-86558428D01*
X190244266Y-86510809D01*
X190291885Y-86463190D01*
X190339504Y-86367952D01*
X188698142Y-97924857D02*
X188745761Y-97972476D01*
X188793380Y-98115333D01*
X188793380Y-98210571D01*
X188745761Y-98353428D01*
X188650523Y-98448666D01*
X188555285Y-98496285D01*
X188364809Y-98543904D01*
X188221952Y-98543904D01*
X188031476Y-98496285D01*
X187936238Y-98448666D01*
X187841000Y-98353428D01*
X187793380Y-98210571D01*
X187793380Y-98115333D01*
X187841000Y-97972476D01*
X187888619Y-97924857D01*
X187888619Y-97543904D02*
X187841000Y-97496285D01*
X187793380Y-97401047D01*
X187793380Y-97162952D01*
X187841000Y-97067714D01*
X187888619Y-97020095D01*
X187983857Y-96972476D01*
X188079095Y-96972476D01*
X188221952Y-97020095D01*
X188793380Y-97591523D01*
X188793380Y-96972476D01*
X188793380Y-96496285D02*
X188793380Y-96305809D01*
X188745761Y-96210571D01*
X188698142Y-96162952D01*
X188555285Y-96067714D01*
X188364809Y-96020095D01*
X187983857Y-96020095D01*
X187888619Y-96067714D01*
X187841000Y-96115333D01*
X187793380Y-96210571D01*
X187793380Y-96401047D01*
X187841000Y-96496285D01*
X187888619Y-96543904D01*
X187983857Y-96591523D01*
X188221952Y-96591523D01*
X188317190Y-96543904D01*
X188364809Y-96496285D01*
X188412428Y-96401047D01*
X188412428Y-96210571D01*
X188364809Y-96115333D01*
X188317190Y-96067714D01*
X188221952Y-96020095D01*
X185396142Y-97797857D02*
X185443761Y-97845476D01*
X185491380Y-97988333D01*
X185491380Y-98083571D01*
X185443761Y-98226428D01*
X185348523Y-98321666D01*
X185253285Y-98369285D01*
X185062809Y-98416904D01*
X184919952Y-98416904D01*
X184729476Y-98369285D01*
X184634238Y-98321666D01*
X184539000Y-98226428D01*
X184491380Y-98083571D01*
X184491380Y-97988333D01*
X184539000Y-97845476D01*
X184586619Y-97797857D01*
X184491380Y-97464523D02*
X184491380Y-96845476D01*
X184872333Y-97178809D01*
X184872333Y-97035952D01*
X184919952Y-96940714D01*
X184967571Y-96893095D01*
X185062809Y-96845476D01*
X185300904Y-96845476D01*
X185396142Y-96893095D01*
X185443761Y-96940714D01*
X185491380Y-97035952D01*
X185491380Y-97321666D01*
X185443761Y-97416904D01*
X185396142Y-97464523D01*
X184491380Y-96226428D02*
X184491380Y-96131190D01*
X184539000Y-96035952D01*
X184586619Y-95988333D01*
X184681857Y-95940714D01*
X184872333Y-95893095D01*
X185110428Y-95893095D01*
X185300904Y-95940714D01*
X185396142Y-95988333D01*
X185443761Y-96035952D01*
X185491380Y-96131190D01*
X185491380Y-96226428D01*
X185443761Y-96321666D01*
X185396142Y-96369285D01*
X185300904Y-96416904D01*
X185110428Y-96464523D01*
X184872333Y-96464523D01*
X184681857Y-96416904D01*
X184586619Y-96369285D01*
X184539000Y-96321666D01*
X184491380Y-96226428D01*
X183872142Y-99956857D02*
X183919761Y-100004476D01*
X183967380Y-100147333D01*
X183967380Y-100242571D01*
X183919761Y-100385428D01*
X183824523Y-100480666D01*
X183729285Y-100528285D01*
X183538809Y-100575904D01*
X183395952Y-100575904D01*
X183205476Y-100528285D01*
X183110238Y-100480666D01*
X183015000Y-100385428D01*
X182967380Y-100242571D01*
X182967380Y-100147333D01*
X183015000Y-100004476D01*
X183062619Y-99956857D01*
X182967380Y-99623523D02*
X182967380Y-99004476D01*
X183348333Y-99337809D01*
X183348333Y-99194952D01*
X183395952Y-99099714D01*
X183443571Y-99052095D01*
X183538809Y-99004476D01*
X183776904Y-99004476D01*
X183872142Y-99052095D01*
X183919761Y-99099714D01*
X183967380Y-99194952D01*
X183967380Y-99480666D01*
X183919761Y-99575904D01*
X183872142Y-99623523D01*
X183967380Y-98052095D02*
X183967380Y-98623523D01*
X183967380Y-98337809D02*
X182967380Y-98337809D01*
X183110238Y-98433047D01*
X183205476Y-98528285D01*
X183253095Y-98623523D01*
X186920142Y-99956857D02*
X186967761Y-100004476D01*
X187015380Y-100147333D01*
X187015380Y-100242571D01*
X186967761Y-100385428D01*
X186872523Y-100480666D01*
X186777285Y-100528285D01*
X186586809Y-100575904D01*
X186443952Y-100575904D01*
X186253476Y-100528285D01*
X186158238Y-100480666D01*
X186063000Y-100385428D01*
X186015380Y-100242571D01*
X186015380Y-100147333D01*
X186063000Y-100004476D01*
X186110619Y-99956857D01*
X186015380Y-99623523D02*
X186015380Y-99004476D01*
X186396333Y-99337809D01*
X186396333Y-99194952D01*
X186443952Y-99099714D01*
X186491571Y-99052095D01*
X186586809Y-99004476D01*
X186824904Y-99004476D01*
X186920142Y-99052095D01*
X186967761Y-99099714D01*
X187015380Y-99194952D01*
X187015380Y-99480666D01*
X186967761Y-99575904D01*
X186920142Y-99623523D01*
X186015380Y-98671142D02*
X186015380Y-98052095D01*
X186396333Y-98385428D01*
X186396333Y-98242571D01*
X186443952Y-98147333D01*
X186491571Y-98099714D01*
X186586809Y-98052095D01*
X186824904Y-98052095D01*
X186920142Y-98099714D01*
X186967761Y-98147333D01*
X187015380Y-98242571D01*
X187015380Y-98528285D01*
X186967761Y-98623523D01*
X186920142Y-98671142D01*
X190476142Y-99956857D02*
X190523761Y-100004476D01*
X190571380Y-100147333D01*
X190571380Y-100242571D01*
X190523761Y-100385428D01*
X190428523Y-100480666D01*
X190333285Y-100528285D01*
X190142809Y-100575904D01*
X189999952Y-100575904D01*
X189809476Y-100528285D01*
X189714238Y-100480666D01*
X189619000Y-100385428D01*
X189571380Y-100242571D01*
X189571380Y-100147333D01*
X189619000Y-100004476D01*
X189666619Y-99956857D01*
X189571380Y-99623523D02*
X189571380Y-99004476D01*
X189952333Y-99337809D01*
X189952333Y-99194952D01*
X189999952Y-99099714D01*
X190047571Y-99052095D01*
X190142809Y-99004476D01*
X190380904Y-99004476D01*
X190476142Y-99052095D01*
X190523761Y-99099714D01*
X190571380Y-99194952D01*
X190571380Y-99480666D01*
X190523761Y-99575904D01*
X190476142Y-99623523D01*
X189904714Y-98147333D02*
X190571380Y-98147333D01*
X189523761Y-98385428D02*
X190238047Y-98623523D01*
X190238047Y-98004476D01*
X170680142Y-103735142D02*
X170632523Y-103782761D01*
X170489666Y-103830380D01*
X170394428Y-103830380D01*
X170251571Y-103782761D01*
X170156333Y-103687523D01*
X170108714Y-103592285D01*
X170061095Y-103401809D01*
X170061095Y-103258952D01*
X170108714Y-103068476D01*
X170156333Y-102973238D01*
X170251571Y-102878000D01*
X170394428Y-102830380D01*
X170489666Y-102830380D01*
X170632523Y-102878000D01*
X170680142Y-102925619D01*
X171013476Y-102830380D02*
X171632523Y-102830380D01*
X171299190Y-103211333D01*
X171442047Y-103211333D01*
X171537285Y-103258952D01*
X171584904Y-103306571D01*
X171632523Y-103401809D01*
X171632523Y-103639904D01*
X171584904Y-103735142D01*
X171537285Y-103782761D01*
X171442047Y-103830380D01*
X171156333Y-103830380D01*
X171061095Y-103782761D01*
X171013476Y-103735142D01*
X172537285Y-102830380D02*
X172061095Y-102830380D01*
X172013476Y-103306571D01*
X172061095Y-103258952D01*
X172156333Y-103211333D01*
X172394428Y-103211333D01*
X172489666Y-103258952D01*
X172537285Y-103306571D01*
X172584904Y-103401809D01*
X172584904Y-103639904D01*
X172537285Y-103735142D01*
X172489666Y-103782761D01*
X172394428Y-103830380D01*
X172156333Y-103830380D01*
X172061095Y-103782761D01*
X172013476Y-103735142D01*
X170680142Y-105132142D02*
X170632523Y-105179761D01*
X170489666Y-105227380D01*
X170394428Y-105227380D01*
X170251571Y-105179761D01*
X170156333Y-105084523D01*
X170108714Y-104989285D01*
X170061095Y-104798809D01*
X170061095Y-104655952D01*
X170108714Y-104465476D01*
X170156333Y-104370238D01*
X170251571Y-104275000D01*
X170394428Y-104227380D01*
X170489666Y-104227380D01*
X170632523Y-104275000D01*
X170680142Y-104322619D01*
X171013476Y-104227380D02*
X171632523Y-104227380D01*
X171299190Y-104608333D01*
X171442047Y-104608333D01*
X171537285Y-104655952D01*
X171584904Y-104703571D01*
X171632523Y-104798809D01*
X171632523Y-105036904D01*
X171584904Y-105132142D01*
X171537285Y-105179761D01*
X171442047Y-105227380D01*
X171156333Y-105227380D01*
X171061095Y-105179761D01*
X171013476Y-105132142D01*
X172489666Y-104227380D02*
X172299190Y-104227380D01*
X172203952Y-104275000D01*
X172156333Y-104322619D01*
X172061095Y-104465476D01*
X172013476Y-104655952D01*
X172013476Y-105036904D01*
X172061095Y-105132142D01*
X172108714Y-105179761D01*
X172203952Y-105227380D01*
X172394428Y-105227380D01*
X172489666Y-105179761D01*
X172537285Y-105132142D01*
X172584904Y-105036904D01*
X172584904Y-104798809D01*
X172537285Y-104703571D01*
X172489666Y-104655952D01*
X172394428Y-104608333D01*
X172203952Y-104608333D01*
X172108714Y-104655952D01*
X172061095Y-104703571D01*
X172013476Y-104798809D01*
X188190142Y-143009857D02*
X188237761Y-143057476D01*
X188285380Y-143200333D01*
X188285380Y-143295571D01*
X188237761Y-143438428D01*
X188142523Y-143533666D01*
X188047285Y-143581285D01*
X187856809Y-143628904D01*
X187713952Y-143628904D01*
X187523476Y-143581285D01*
X187428238Y-143533666D01*
X187333000Y-143438428D01*
X187285380Y-143295571D01*
X187285380Y-143200333D01*
X187333000Y-143057476D01*
X187380619Y-143009857D01*
X187618714Y-142152714D02*
X188285380Y-142152714D01*
X187237761Y-142390809D02*
X187952047Y-142628904D01*
X187952047Y-142009857D01*
X187285380Y-141438428D02*
X187285380Y-141343190D01*
X187333000Y-141247952D01*
X187380619Y-141200333D01*
X187475857Y-141152714D01*
X187666333Y-141105095D01*
X187904428Y-141105095D01*
X188094904Y-141152714D01*
X188190142Y-141200333D01*
X188237761Y-141247952D01*
X188285380Y-141343190D01*
X188285380Y-141438428D01*
X188237761Y-141533666D01*
X188190142Y-141581285D01*
X188094904Y-141628904D01*
X187904428Y-141676523D01*
X187666333Y-141676523D01*
X187475857Y-141628904D01*
X187380619Y-141581285D01*
X187333000Y-141533666D01*
X187285380Y-141438428D01*
X186386742Y-142806657D02*
X186434361Y-142854276D01*
X186481980Y-142997133D01*
X186481980Y-143092371D01*
X186434361Y-143235228D01*
X186339123Y-143330466D01*
X186243885Y-143378085D01*
X186053409Y-143425704D01*
X185910552Y-143425704D01*
X185720076Y-143378085D01*
X185624838Y-143330466D01*
X185529600Y-143235228D01*
X185481980Y-143092371D01*
X185481980Y-142997133D01*
X185529600Y-142854276D01*
X185577219Y-142806657D01*
X185815314Y-141949514D02*
X186481980Y-141949514D01*
X185434361Y-142187609D02*
X186148647Y-142425704D01*
X186148647Y-141806657D01*
X186481980Y-140901895D02*
X186481980Y-141473323D01*
X186481980Y-141187609D02*
X185481980Y-141187609D01*
X185624838Y-141282847D01*
X185720076Y-141378085D01*
X185767695Y-141473323D01*
X184443642Y-141295357D02*
X184491261Y-141342976D01*
X184538880Y-141485833D01*
X184538880Y-141581071D01*
X184491261Y-141723928D01*
X184396023Y-141819166D01*
X184300785Y-141866785D01*
X184110309Y-141914404D01*
X183967452Y-141914404D01*
X183776976Y-141866785D01*
X183681738Y-141819166D01*
X183586500Y-141723928D01*
X183538880Y-141581071D01*
X183538880Y-141485833D01*
X183586500Y-141342976D01*
X183634119Y-141295357D01*
X183872214Y-140438214D02*
X184538880Y-140438214D01*
X183491261Y-140676309D02*
X184205547Y-140914404D01*
X184205547Y-140295357D01*
X183634119Y-139962023D02*
X183586500Y-139914404D01*
X183538880Y-139819166D01*
X183538880Y-139581071D01*
X183586500Y-139485833D01*
X183634119Y-139438214D01*
X183729357Y-139390595D01*
X183824595Y-139390595D01*
X183967452Y-139438214D01*
X184538880Y-140009642D01*
X184538880Y-139390595D01*
X186872642Y-126805642D02*
X186825023Y-126853261D01*
X186682166Y-126900880D01*
X186586928Y-126900880D01*
X186444071Y-126853261D01*
X186348833Y-126758023D01*
X186301214Y-126662785D01*
X186253595Y-126472309D01*
X186253595Y-126329452D01*
X186301214Y-126138976D01*
X186348833Y-126043738D01*
X186444071Y-125948500D01*
X186586928Y-125900880D01*
X186682166Y-125900880D01*
X186825023Y-125948500D01*
X186872642Y-125996119D01*
X187729785Y-126234214D02*
X187729785Y-126900880D01*
X187491690Y-125853261D02*
X187253595Y-126567547D01*
X187872642Y-126567547D01*
X188158357Y-125900880D02*
X188777404Y-125900880D01*
X188444071Y-126281833D01*
X188586928Y-126281833D01*
X188682166Y-126329452D01*
X188729785Y-126377071D01*
X188777404Y-126472309D01*
X188777404Y-126710404D01*
X188729785Y-126805642D01*
X188682166Y-126853261D01*
X188586928Y-126900880D01*
X188301214Y-126900880D01*
X188205976Y-126853261D01*
X188158357Y-126805642D01*
X176899842Y-139720557D02*
X176947461Y-139768176D01*
X176995080Y-139911033D01*
X176995080Y-140006271D01*
X176947461Y-140149128D01*
X176852223Y-140244366D01*
X176756985Y-140291985D01*
X176566509Y-140339604D01*
X176423652Y-140339604D01*
X176233176Y-140291985D01*
X176137938Y-140244366D01*
X176042700Y-140149128D01*
X175995080Y-140006271D01*
X175995080Y-139911033D01*
X176042700Y-139768176D01*
X176090319Y-139720557D01*
X176328414Y-138863414D02*
X176995080Y-138863414D01*
X175947461Y-139101509D02*
X176661747Y-139339604D01*
X176661747Y-138720557D01*
X176328414Y-137911033D02*
X176995080Y-137911033D01*
X175947461Y-138149128D02*
X176661747Y-138387223D01*
X176661747Y-137768176D01*
X180395642Y-130869642D02*
X180348023Y-130917261D01*
X180205166Y-130964880D01*
X180109928Y-130964880D01*
X179967071Y-130917261D01*
X179871833Y-130822023D01*
X179824214Y-130726785D01*
X179776595Y-130536309D01*
X179776595Y-130393452D01*
X179824214Y-130202976D01*
X179871833Y-130107738D01*
X179967071Y-130012500D01*
X180109928Y-129964880D01*
X180205166Y-129964880D01*
X180348023Y-130012500D01*
X180395642Y-130060119D01*
X181252785Y-130298214D02*
X181252785Y-130964880D01*
X181014690Y-129917261D02*
X180776595Y-130631547D01*
X181395642Y-130631547D01*
X182205166Y-129964880D02*
X182014690Y-129964880D01*
X181919452Y-130012500D01*
X181871833Y-130060119D01*
X181776595Y-130202976D01*
X181728976Y-130393452D01*
X181728976Y-130774404D01*
X181776595Y-130869642D01*
X181824214Y-130917261D01*
X181919452Y-130964880D01*
X182109928Y-130964880D01*
X182205166Y-130917261D01*
X182252785Y-130869642D01*
X182300404Y-130774404D01*
X182300404Y-130536309D01*
X182252785Y-130441071D01*
X182205166Y-130393452D01*
X182109928Y-130345833D01*
X181919452Y-130345833D01*
X181824214Y-130393452D01*
X181776595Y-130441071D01*
X181728976Y-130536309D01*
X175518842Y-86526642D02*
X175471223Y-86574261D01*
X175328366Y-86621880D01*
X175233128Y-86621880D01*
X175090271Y-86574261D01*
X174995033Y-86479023D01*
X174947414Y-86383785D01*
X174899795Y-86193309D01*
X174899795Y-86050452D01*
X174947414Y-85859976D01*
X174995033Y-85764738D01*
X175090271Y-85669500D01*
X175233128Y-85621880D01*
X175328366Y-85621880D01*
X175471223Y-85669500D01*
X175518842Y-85717119D01*
X176375985Y-85955214D02*
X176375985Y-86621880D01*
X176137890Y-85574261D02*
X175899795Y-86288547D01*
X176518842Y-86288547D01*
X176804557Y-85621880D02*
X177471223Y-85621880D01*
X177042652Y-86621880D01*
X176018142Y-123830357D02*
X176065761Y-123877976D01*
X176113380Y-124020833D01*
X176113380Y-124116071D01*
X176065761Y-124258928D01*
X175970523Y-124354166D01*
X175875285Y-124401785D01*
X175684809Y-124449404D01*
X175541952Y-124449404D01*
X175351476Y-124401785D01*
X175256238Y-124354166D01*
X175161000Y-124258928D01*
X175113380Y-124116071D01*
X175113380Y-124020833D01*
X175161000Y-123877976D01*
X175208619Y-123830357D01*
X175446714Y-122973214D02*
X176113380Y-122973214D01*
X175065761Y-123211309D02*
X175780047Y-123449404D01*
X175780047Y-122830357D01*
X175541952Y-122306547D02*
X175494333Y-122401785D01*
X175446714Y-122449404D01*
X175351476Y-122497023D01*
X175303857Y-122497023D01*
X175208619Y-122449404D01*
X175161000Y-122401785D01*
X175113380Y-122306547D01*
X175113380Y-122116071D01*
X175161000Y-122020833D01*
X175208619Y-121973214D01*
X175303857Y-121925595D01*
X175351476Y-121925595D01*
X175446714Y-121973214D01*
X175494333Y-122020833D01*
X175541952Y-122116071D01*
X175541952Y-122306547D01*
X175589571Y-122401785D01*
X175637190Y-122449404D01*
X175732428Y-122497023D01*
X175922904Y-122497023D01*
X176018142Y-122449404D01*
X176065761Y-122401785D01*
X176113380Y-122306547D01*
X176113380Y-122116071D01*
X176065761Y-122020833D01*
X176018142Y-121973214D01*
X175922904Y-121925595D01*
X175732428Y-121925595D01*
X175637190Y-121973214D01*
X175589571Y-122020833D01*
X175541952Y-122116071D01*
X175506142Y-88152242D02*
X175458523Y-88199861D01*
X175315666Y-88247480D01*
X175220428Y-88247480D01*
X175077571Y-88199861D01*
X174982333Y-88104623D01*
X174934714Y-88009385D01*
X174887095Y-87818909D01*
X174887095Y-87676052D01*
X174934714Y-87485576D01*
X174982333Y-87390338D01*
X175077571Y-87295100D01*
X175220428Y-87247480D01*
X175315666Y-87247480D01*
X175458523Y-87295100D01*
X175506142Y-87342719D01*
X176363285Y-87580814D02*
X176363285Y-88247480D01*
X176125190Y-87199861D02*
X175887095Y-87914147D01*
X176506142Y-87914147D01*
X176934714Y-88247480D02*
X177125190Y-88247480D01*
X177220428Y-88199861D01*
X177268047Y-88152242D01*
X177363285Y-88009385D01*
X177410904Y-87818909D01*
X177410904Y-87437957D01*
X177363285Y-87342719D01*
X177315666Y-87295100D01*
X177220428Y-87247480D01*
X177029952Y-87247480D01*
X176934714Y-87295100D01*
X176887095Y-87342719D01*
X176839476Y-87437957D01*
X176839476Y-87676052D01*
X176887095Y-87771290D01*
X176934714Y-87818909D01*
X177029952Y-87866528D01*
X177220428Y-87866528D01*
X177315666Y-87818909D01*
X177363285Y-87771290D01*
X177410904Y-87676052D01*
X177652442Y-126455442D02*
X177604823Y-126503061D01*
X177461966Y-126550680D01*
X177366728Y-126550680D01*
X177223871Y-126503061D01*
X177128633Y-126407823D01*
X177081014Y-126312585D01*
X177033395Y-126122109D01*
X177033395Y-125979252D01*
X177081014Y-125788776D01*
X177128633Y-125693538D01*
X177223871Y-125598300D01*
X177366728Y-125550680D01*
X177461966Y-125550680D01*
X177604823Y-125598300D01*
X177652442Y-125645919D01*
X178557204Y-125550680D02*
X178081014Y-125550680D01*
X178033395Y-126026871D01*
X178081014Y-125979252D01*
X178176252Y-125931633D01*
X178414347Y-125931633D01*
X178509585Y-125979252D01*
X178557204Y-126026871D01*
X178604823Y-126122109D01*
X178604823Y-126360204D01*
X178557204Y-126455442D01*
X178509585Y-126503061D01*
X178414347Y-126550680D01*
X178176252Y-126550680D01*
X178081014Y-126503061D01*
X178033395Y-126455442D01*
X179223871Y-125550680D02*
X179319109Y-125550680D01*
X179414347Y-125598300D01*
X179461966Y-125645919D01*
X179509585Y-125741157D01*
X179557204Y-125931633D01*
X179557204Y-126169728D01*
X179509585Y-126360204D01*
X179461966Y-126455442D01*
X179414347Y-126503061D01*
X179319109Y-126550680D01*
X179223871Y-126550680D01*
X179128633Y-126503061D01*
X179081014Y-126455442D01*
X179033395Y-126360204D01*
X178985776Y-126169728D01*
X178985776Y-125931633D01*
X179033395Y-125741157D01*
X179081014Y-125645919D01*
X179128633Y-125598300D01*
X179223871Y-125550680D01*
X171756342Y-73134457D02*
X171803961Y-73182076D01*
X171851580Y-73324933D01*
X171851580Y-73420171D01*
X171803961Y-73563028D01*
X171708723Y-73658266D01*
X171613485Y-73705885D01*
X171423009Y-73753504D01*
X171280152Y-73753504D01*
X171089676Y-73705885D01*
X170994438Y-73658266D01*
X170899200Y-73563028D01*
X170851580Y-73420171D01*
X170851580Y-73324933D01*
X170899200Y-73182076D01*
X170946819Y-73134457D01*
X170851580Y-72229695D02*
X170851580Y-72705885D01*
X171327771Y-72753504D01*
X171280152Y-72705885D01*
X171232533Y-72610647D01*
X171232533Y-72372552D01*
X171280152Y-72277314D01*
X171327771Y-72229695D01*
X171423009Y-72182076D01*
X171661104Y-72182076D01*
X171756342Y-72229695D01*
X171803961Y-72277314D01*
X171851580Y-72372552D01*
X171851580Y-72610647D01*
X171803961Y-72705885D01*
X171756342Y-72753504D01*
X170946819Y-71801123D02*
X170899200Y-71753504D01*
X170851580Y-71658266D01*
X170851580Y-71420171D01*
X170899200Y-71324933D01*
X170946819Y-71277314D01*
X171042057Y-71229695D01*
X171137295Y-71229695D01*
X171280152Y-71277314D01*
X171851580Y-71848742D01*
X171851580Y-71229695D01*
X192359042Y-83072242D02*
X192311423Y-83119861D01*
X192168566Y-83167480D01*
X192073328Y-83167480D01*
X191930471Y-83119861D01*
X191835233Y-83024623D01*
X191787614Y-82929385D01*
X191739995Y-82738909D01*
X191739995Y-82596052D01*
X191787614Y-82405576D01*
X191835233Y-82310338D01*
X191930471Y-82215100D01*
X192073328Y-82167480D01*
X192168566Y-82167480D01*
X192311423Y-82215100D01*
X192359042Y-82262719D01*
X193263804Y-82167480D02*
X192787614Y-82167480D01*
X192739995Y-82643671D01*
X192787614Y-82596052D01*
X192882852Y-82548433D01*
X193120947Y-82548433D01*
X193216185Y-82596052D01*
X193263804Y-82643671D01*
X193311423Y-82738909D01*
X193311423Y-82977004D01*
X193263804Y-83072242D01*
X193216185Y-83119861D01*
X193120947Y-83167480D01*
X192882852Y-83167480D01*
X192787614Y-83119861D01*
X192739995Y-83072242D01*
X193644757Y-82167480D02*
X194311423Y-82167480D01*
X193882852Y-83167480D01*
X182729142Y-85859857D02*
X182776761Y-85907476D01*
X182824380Y-86050333D01*
X182824380Y-86145571D01*
X182776761Y-86288428D01*
X182681523Y-86383666D01*
X182586285Y-86431285D01*
X182395809Y-86478904D01*
X182252952Y-86478904D01*
X182062476Y-86431285D01*
X181967238Y-86383666D01*
X181872000Y-86288428D01*
X181824380Y-86145571D01*
X181824380Y-86050333D01*
X181872000Y-85907476D01*
X181919619Y-85859857D01*
X181824380Y-84955095D02*
X181824380Y-85431285D01*
X182300571Y-85478904D01*
X182252952Y-85431285D01*
X182205333Y-85336047D01*
X182205333Y-85097952D01*
X182252952Y-85002714D01*
X182300571Y-84955095D01*
X182395809Y-84907476D01*
X182633904Y-84907476D01*
X182729142Y-84955095D01*
X182776761Y-85002714D01*
X182824380Y-85097952D01*
X182824380Y-85336047D01*
X182776761Y-85431285D01*
X182729142Y-85478904D01*
X182824380Y-84431285D02*
X182824380Y-84240809D01*
X182776761Y-84145571D01*
X182729142Y-84097952D01*
X182586285Y-84002714D01*
X182395809Y-83955095D01*
X182014857Y-83955095D01*
X181919619Y-84002714D01*
X181872000Y-84050333D01*
X181824380Y-84145571D01*
X181824380Y-84336047D01*
X181872000Y-84431285D01*
X181919619Y-84478904D01*
X182014857Y-84526523D01*
X182252952Y-84526523D01*
X182348190Y-84478904D01*
X182395809Y-84431285D01*
X182443428Y-84336047D01*
X182443428Y-84145571D01*
X182395809Y-84050333D01*
X182348190Y-84002714D01*
X182252952Y-83955095D01*
X191800242Y-80417942D02*
X191752623Y-80465561D01*
X191609766Y-80513180D01*
X191514528Y-80513180D01*
X191371671Y-80465561D01*
X191276433Y-80370323D01*
X191228814Y-80275085D01*
X191181195Y-80084609D01*
X191181195Y-79941752D01*
X191228814Y-79751276D01*
X191276433Y-79656038D01*
X191371671Y-79560800D01*
X191514528Y-79513180D01*
X191609766Y-79513180D01*
X191752623Y-79560800D01*
X191800242Y-79608419D01*
X192657385Y-79513180D02*
X192466909Y-79513180D01*
X192371671Y-79560800D01*
X192324052Y-79608419D01*
X192228814Y-79751276D01*
X192181195Y-79941752D01*
X192181195Y-80322704D01*
X192228814Y-80417942D01*
X192276433Y-80465561D01*
X192371671Y-80513180D01*
X192562147Y-80513180D01*
X192657385Y-80465561D01*
X192705004Y-80417942D01*
X192752623Y-80322704D01*
X192752623Y-80084609D01*
X192705004Y-79989371D01*
X192657385Y-79941752D01*
X192562147Y-79894133D01*
X192371671Y-79894133D01*
X192276433Y-79941752D01*
X192228814Y-79989371D01*
X192181195Y-80084609D01*
X193705004Y-80513180D02*
X193133576Y-80513180D01*
X193419290Y-80513180D02*
X193419290Y-79513180D01*
X193324052Y-79656038D01*
X193228814Y-79751276D01*
X193133576Y-79798895D01*
X155259042Y-70911957D02*
X155306661Y-70959576D01*
X155354280Y-71102433D01*
X155354280Y-71197671D01*
X155306661Y-71340528D01*
X155211423Y-71435766D01*
X155116185Y-71483385D01*
X154925709Y-71531004D01*
X154782852Y-71531004D01*
X154592376Y-71483385D01*
X154497138Y-71435766D01*
X154401900Y-71340528D01*
X154354280Y-71197671D01*
X154354280Y-71102433D01*
X154401900Y-70959576D01*
X154449519Y-70911957D01*
X154354280Y-70054814D02*
X154354280Y-70245290D01*
X154401900Y-70340528D01*
X154449519Y-70388147D01*
X154592376Y-70483385D01*
X154782852Y-70531004D01*
X155163804Y-70531004D01*
X155259042Y-70483385D01*
X155306661Y-70435766D01*
X155354280Y-70340528D01*
X155354280Y-70150052D01*
X155306661Y-70054814D01*
X155259042Y-70007195D01*
X155163804Y-69959576D01*
X154925709Y-69959576D01*
X154830471Y-70007195D01*
X154782852Y-70054814D01*
X154735233Y-70150052D01*
X154735233Y-70340528D01*
X154782852Y-70435766D01*
X154830471Y-70483385D01*
X154925709Y-70531004D01*
X154449519Y-69578623D02*
X154401900Y-69531004D01*
X154354280Y-69435766D01*
X154354280Y-69197671D01*
X154401900Y-69102433D01*
X154449519Y-69054814D01*
X154544757Y-69007195D01*
X154639995Y-69007195D01*
X154782852Y-69054814D01*
X155354280Y-69626242D01*
X155354280Y-69007195D01*
X156824442Y-68314842D02*
X156776823Y-68362461D01*
X156633966Y-68410080D01*
X156538728Y-68410080D01*
X156395871Y-68362461D01*
X156300633Y-68267223D01*
X156253014Y-68171985D01*
X156205395Y-67981509D01*
X156205395Y-67838652D01*
X156253014Y-67648176D01*
X156300633Y-67552938D01*
X156395871Y-67457700D01*
X156538728Y-67410080D01*
X156633966Y-67410080D01*
X156776823Y-67457700D01*
X156824442Y-67505319D01*
X157681585Y-67410080D02*
X157491109Y-67410080D01*
X157395871Y-67457700D01*
X157348252Y-67505319D01*
X157253014Y-67648176D01*
X157205395Y-67838652D01*
X157205395Y-68219604D01*
X157253014Y-68314842D01*
X157300633Y-68362461D01*
X157395871Y-68410080D01*
X157586347Y-68410080D01*
X157681585Y-68362461D01*
X157729204Y-68314842D01*
X157776823Y-68219604D01*
X157776823Y-67981509D01*
X157729204Y-67886271D01*
X157681585Y-67838652D01*
X157586347Y-67791033D01*
X157395871Y-67791033D01*
X157300633Y-67838652D01*
X157253014Y-67886271D01*
X157205395Y-67981509D01*
X158110157Y-67410080D02*
X158729204Y-67410080D01*
X158395871Y-67791033D01*
X158538728Y-67791033D01*
X158633966Y-67838652D01*
X158681585Y-67886271D01*
X158729204Y-67981509D01*
X158729204Y-68219604D01*
X158681585Y-68314842D01*
X158633966Y-68362461D01*
X158538728Y-68410080D01*
X158253014Y-68410080D01*
X158157776Y-68362461D01*
X158110157Y-68314842D01*
X158764242Y-55024257D02*
X158811861Y-55071876D01*
X158859480Y-55214733D01*
X158859480Y-55309971D01*
X158811861Y-55452828D01*
X158716623Y-55548066D01*
X158621385Y-55595685D01*
X158430909Y-55643304D01*
X158288052Y-55643304D01*
X158097576Y-55595685D01*
X158002338Y-55548066D01*
X157907100Y-55452828D01*
X157859480Y-55309971D01*
X157859480Y-55214733D01*
X157907100Y-55071876D01*
X157954719Y-55024257D01*
X157859480Y-54167114D02*
X157859480Y-54357590D01*
X157907100Y-54452828D01*
X157954719Y-54500447D01*
X158097576Y-54595685D01*
X158288052Y-54643304D01*
X158669004Y-54643304D01*
X158764242Y-54595685D01*
X158811861Y-54548066D01*
X158859480Y-54452828D01*
X158859480Y-54262352D01*
X158811861Y-54167114D01*
X158764242Y-54119495D01*
X158669004Y-54071876D01*
X158430909Y-54071876D01*
X158335671Y-54119495D01*
X158288052Y-54167114D01*
X158240433Y-54262352D01*
X158240433Y-54452828D01*
X158288052Y-54548066D01*
X158335671Y-54595685D01*
X158430909Y-54643304D01*
X158192814Y-53214733D02*
X158859480Y-53214733D01*
X157811861Y-53452828D02*
X158526147Y-53690923D01*
X158526147Y-53071876D01*
X160580342Y-54973457D02*
X160627961Y-55021076D01*
X160675580Y-55163933D01*
X160675580Y-55259171D01*
X160627961Y-55402028D01*
X160532723Y-55497266D01*
X160437485Y-55544885D01*
X160247009Y-55592504D01*
X160104152Y-55592504D01*
X159913676Y-55544885D01*
X159818438Y-55497266D01*
X159723200Y-55402028D01*
X159675580Y-55259171D01*
X159675580Y-55163933D01*
X159723200Y-55021076D01*
X159770819Y-54973457D01*
X159675580Y-54116314D02*
X159675580Y-54306790D01*
X159723200Y-54402028D01*
X159770819Y-54449647D01*
X159913676Y-54544885D01*
X160104152Y-54592504D01*
X160485104Y-54592504D01*
X160580342Y-54544885D01*
X160627961Y-54497266D01*
X160675580Y-54402028D01*
X160675580Y-54211552D01*
X160627961Y-54116314D01*
X160580342Y-54068695D01*
X160485104Y-54021076D01*
X160247009Y-54021076D01*
X160151771Y-54068695D01*
X160104152Y-54116314D01*
X160056533Y-54211552D01*
X160056533Y-54402028D01*
X160104152Y-54497266D01*
X160151771Y-54544885D01*
X160247009Y-54592504D01*
X159675580Y-53116314D02*
X159675580Y-53592504D01*
X160151771Y-53640123D01*
X160104152Y-53592504D01*
X160056533Y-53497266D01*
X160056533Y-53259171D01*
X160104152Y-53163933D01*
X160151771Y-53116314D01*
X160247009Y-53068695D01*
X160485104Y-53068695D01*
X160580342Y-53116314D01*
X160627961Y-53163933D01*
X160675580Y-53259171D01*
X160675580Y-53497266D01*
X160627961Y-53592504D01*
X160580342Y-53640123D01*
X162688542Y-56014857D02*
X162736161Y-56062476D01*
X162783780Y-56205333D01*
X162783780Y-56300571D01*
X162736161Y-56443428D01*
X162640923Y-56538666D01*
X162545685Y-56586285D01*
X162355209Y-56633904D01*
X162212352Y-56633904D01*
X162021876Y-56586285D01*
X161926638Y-56538666D01*
X161831400Y-56443428D01*
X161783780Y-56300571D01*
X161783780Y-56205333D01*
X161831400Y-56062476D01*
X161879019Y-56014857D01*
X161783780Y-55157714D02*
X161783780Y-55348190D01*
X161831400Y-55443428D01*
X161879019Y-55491047D01*
X162021876Y-55586285D01*
X162212352Y-55633904D01*
X162593304Y-55633904D01*
X162688542Y-55586285D01*
X162736161Y-55538666D01*
X162783780Y-55443428D01*
X162783780Y-55252952D01*
X162736161Y-55157714D01*
X162688542Y-55110095D01*
X162593304Y-55062476D01*
X162355209Y-55062476D01*
X162259971Y-55110095D01*
X162212352Y-55157714D01*
X162164733Y-55252952D01*
X162164733Y-55443428D01*
X162212352Y-55538666D01*
X162259971Y-55586285D01*
X162355209Y-55633904D01*
X161783780Y-54205333D02*
X161783780Y-54395809D01*
X161831400Y-54491047D01*
X161879019Y-54538666D01*
X162021876Y-54633904D01*
X162212352Y-54681523D01*
X162593304Y-54681523D01*
X162688542Y-54633904D01*
X162736161Y-54586285D01*
X162783780Y-54491047D01*
X162783780Y-54300571D01*
X162736161Y-54205333D01*
X162688542Y-54157714D01*
X162593304Y-54110095D01*
X162355209Y-54110095D01*
X162259971Y-54157714D01*
X162212352Y-54205333D01*
X162164733Y-54300571D01*
X162164733Y-54491047D01*
X162212352Y-54586285D01*
X162259971Y-54633904D01*
X162355209Y-54681523D01*
X169486342Y-66549542D02*
X169438723Y-66597161D01*
X169295866Y-66644780D01*
X169200628Y-66644780D01*
X169057771Y-66597161D01*
X168962533Y-66501923D01*
X168914914Y-66406685D01*
X168867295Y-66216209D01*
X168867295Y-66073352D01*
X168914914Y-65882876D01*
X168962533Y-65787638D01*
X169057771Y-65692400D01*
X169200628Y-65644780D01*
X169295866Y-65644780D01*
X169438723Y-65692400D01*
X169486342Y-65740019D01*
X170343485Y-65644780D02*
X170153009Y-65644780D01*
X170057771Y-65692400D01*
X170010152Y-65740019D01*
X169914914Y-65882876D01*
X169867295Y-66073352D01*
X169867295Y-66454304D01*
X169914914Y-66549542D01*
X169962533Y-66597161D01*
X170057771Y-66644780D01*
X170248247Y-66644780D01*
X170343485Y-66597161D01*
X170391104Y-66549542D01*
X170438723Y-66454304D01*
X170438723Y-66216209D01*
X170391104Y-66120971D01*
X170343485Y-66073352D01*
X170248247Y-66025733D01*
X170057771Y-66025733D01*
X169962533Y-66073352D01*
X169914914Y-66120971D01*
X169867295Y-66216209D01*
X170772057Y-65644780D02*
X171438723Y-65644780D01*
X171010152Y-66644780D01*
X169952942Y-55925957D02*
X170000561Y-55973576D01*
X170048180Y-56116433D01*
X170048180Y-56211671D01*
X170000561Y-56354528D01*
X169905323Y-56449766D01*
X169810085Y-56497385D01*
X169619609Y-56545004D01*
X169476752Y-56545004D01*
X169286276Y-56497385D01*
X169191038Y-56449766D01*
X169095800Y-56354528D01*
X169048180Y-56211671D01*
X169048180Y-56116433D01*
X169095800Y-55973576D01*
X169143419Y-55925957D01*
X169048180Y-55068814D02*
X169048180Y-55259290D01*
X169095800Y-55354528D01*
X169143419Y-55402147D01*
X169286276Y-55497385D01*
X169476752Y-55545004D01*
X169857704Y-55545004D01*
X169952942Y-55497385D01*
X170000561Y-55449766D01*
X170048180Y-55354528D01*
X170048180Y-55164052D01*
X170000561Y-55068814D01*
X169952942Y-55021195D01*
X169857704Y-54973576D01*
X169619609Y-54973576D01*
X169524371Y-55021195D01*
X169476752Y-55068814D01*
X169429133Y-55164052D01*
X169429133Y-55354528D01*
X169476752Y-55449766D01*
X169524371Y-55497385D01*
X169619609Y-55545004D01*
X169476752Y-54402147D02*
X169429133Y-54497385D01*
X169381514Y-54545004D01*
X169286276Y-54592623D01*
X169238657Y-54592623D01*
X169143419Y-54545004D01*
X169095800Y-54497385D01*
X169048180Y-54402147D01*
X169048180Y-54211671D01*
X169095800Y-54116433D01*
X169143419Y-54068814D01*
X169238657Y-54021195D01*
X169286276Y-54021195D01*
X169381514Y-54068814D01*
X169429133Y-54116433D01*
X169476752Y-54211671D01*
X169476752Y-54402147D01*
X169524371Y-54497385D01*
X169571990Y-54545004D01*
X169667228Y-54592623D01*
X169857704Y-54592623D01*
X169952942Y-54545004D01*
X170000561Y-54497385D01*
X170048180Y-54402147D01*
X170048180Y-54211671D01*
X170000561Y-54116433D01*
X169952942Y-54068814D01*
X169857704Y-54021195D01*
X169667228Y-54021195D01*
X169571990Y-54068814D01*
X169524371Y-54116433D01*
X169476752Y-54211671D01*
X175947342Y-54986157D02*
X175994961Y-55033776D01*
X176042580Y-55176633D01*
X176042580Y-55271871D01*
X175994961Y-55414728D01*
X175899723Y-55509966D01*
X175804485Y-55557585D01*
X175614009Y-55605204D01*
X175471152Y-55605204D01*
X175280676Y-55557585D01*
X175185438Y-55509966D01*
X175090200Y-55414728D01*
X175042580Y-55271871D01*
X175042580Y-55176633D01*
X175090200Y-55033776D01*
X175137819Y-54986157D01*
X175042580Y-54129014D02*
X175042580Y-54319490D01*
X175090200Y-54414728D01*
X175137819Y-54462347D01*
X175280676Y-54557585D01*
X175471152Y-54605204D01*
X175852104Y-54605204D01*
X175947342Y-54557585D01*
X175994961Y-54509966D01*
X176042580Y-54414728D01*
X176042580Y-54224252D01*
X175994961Y-54129014D01*
X175947342Y-54081395D01*
X175852104Y-54033776D01*
X175614009Y-54033776D01*
X175518771Y-54081395D01*
X175471152Y-54129014D01*
X175423533Y-54224252D01*
X175423533Y-54414728D01*
X175471152Y-54509966D01*
X175518771Y-54557585D01*
X175614009Y-54605204D01*
X176042580Y-53557585D02*
X176042580Y-53367109D01*
X175994961Y-53271871D01*
X175947342Y-53224252D01*
X175804485Y-53129014D01*
X175614009Y-53081395D01*
X175233057Y-53081395D01*
X175137819Y-53129014D01*
X175090200Y-53176633D01*
X175042580Y-53271871D01*
X175042580Y-53462347D01*
X175090200Y-53557585D01*
X175137819Y-53605204D01*
X175233057Y-53652823D01*
X175471152Y-53652823D01*
X175566390Y-53605204D01*
X175614009Y-53557585D01*
X175661628Y-53462347D01*
X175661628Y-53271871D01*
X175614009Y-53176633D01*
X175566390Y-53129014D01*
X175471152Y-53081395D01*
X173737542Y-55049657D02*
X173785161Y-55097276D01*
X173832780Y-55240133D01*
X173832780Y-55335371D01*
X173785161Y-55478228D01*
X173689923Y-55573466D01*
X173594685Y-55621085D01*
X173404209Y-55668704D01*
X173261352Y-55668704D01*
X173070876Y-55621085D01*
X172975638Y-55573466D01*
X172880400Y-55478228D01*
X172832780Y-55335371D01*
X172832780Y-55240133D01*
X172880400Y-55097276D01*
X172928019Y-55049657D01*
X172832780Y-54716323D02*
X172832780Y-54049657D01*
X173832780Y-54478228D01*
X172832780Y-53478228D02*
X172832780Y-53382990D01*
X172880400Y-53287752D01*
X172928019Y-53240133D01*
X173023257Y-53192514D01*
X173213733Y-53144895D01*
X173451828Y-53144895D01*
X173642304Y-53192514D01*
X173737542Y-53240133D01*
X173785161Y-53287752D01*
X173832780Y-53382990D01*
X173832780Y-53478228D01*
X173785161Y-53573466D01*
X173737542Y-53621085D01*
X173642304Y-53668704D01*
X173451828Y-53716323D01*
X173213733Y-53716323D01*
X173023257Y-53668704D01*
X172928019Y-53621085D01*
X172880400Y-53573466D01*
X172832780Y-53478228D01*
X171743642Y-55049657D02*
X171791261Y-55097276D01*
X171838880Y-55240133D01*
X171838880Y-55335371D01*
X171791261Y-55478228D01*
X171696023Y-55573466D01*
X171600785Y-55621085D01*
X171410309Y-55668704D01*
X171267452Y-55668704D01*
X171076976Y-55621085D01*
X170981738Y-55573466D01*
X170886500Y-55478228D01*
X170838880Y-55335371D01*
X170838880Y-55240133D01*
X170886500Y-55097276D01*
X170934119Y-55049657D01*
X170838880Y-54716323D02*
X170838880Y-54049657D01*
X171838880Y-54478228D01*
X171838880Y-53144895D02*
X171838880Y-53716323D01*
X171838880Y-53430609D02*
X170838880Y-53430609D01*
X170981738Y-53525847D01*
X171076976Y-53621085D01*
X171124595Y-53716323D01*
X146293404Y-69195380D02*
X146293404Y-68195380D01*
X146531500Y-68195380D01*
X146674357Y-68243000D01*
X146769595Y-68338238D01*
X146817214Y-68433476D01*
X146864833Y-68623952D01*
X146864833Y-68766809D01*
X146817214Y-68957285D01*
X146769595Y-69052523D01*
X146674357Y-69147761D01*
X146531500Y-69195380D01*
X146293404Y-69195380D01*
X147245785Y-68290619D02*
X147293404Y-68243000D01*
X147388642Y-68195380D01*
X147626738Y-68195380D01*
X147721976Y-68243000D01*
X147769595Y-68290619D01*
X147817214Y-68385857D01*
X147817214Y-68481095D01*
X147769595Y-68623952D01*
X147198166Y-69195380D01*
X147817214Y-69195380D01*
X148498380Y-56202595D02*
X147498380Y-56202595D01*
X147498380Y-55964500D01*
X147546000Y-55821642D01*
X147641238Y-55726404D01*
X147736476Y-55678785D01*
X147926952Y-55631166D01*
X148069809Y-55631166D01*
X148260285Y-55678785D01*
X148355523Y-55726404D01*
X148450761Y-55821642D01*
X148498380Y-55964500D01*
X148498380Y-56202595D01*
X147498380Y-55297833D02*
X147498380Y-54678785D01*
X147879333Y-55012119D01*
X147879333Y-54869261D01*
X147926952Y-54774023D01*
X147974571Y-54726404D01*
X148069809Y-54678785D01*
X148307904Y-54678785D01*
X148403142Y-54726404D01*
X148450761Y-54774023D01*
X148498380Y-54869261D01*
X148498380Y-55154976D01*
X148450761Y-55250214D01*
X148403142Y-55297833D01*
X144065666Y-49192380D02*
X144065666Y-49906666D01*
X144018047Y-50049523D01*
X143922809Y-50144761D01*
X143779952Y-50192380D01*
X143684714Y-50192380D01*
X145018047Y-49192380D02*
X144541857Y-49192380D01*
X144494238Y-49668571D01*
X144541857Y-49620952D01*
X144637095Y-49573333D01*
X144875190Y-49573333D01*
X144970428Y-49620952D01*
X145018047Y-49668571D01*
X145065666Y-49763809D01*
X145065666Y-50001904D01*
X145018047Y-50097142D01*
X144970428Y-50144761D01*
X144875190Y-50192380D01*
X144637095Y-50192380D01*
X144541857Y-50144761D01*
X144494238Y-50097142D01*
X162698133Y-52535080D02*
X162221942Y-52535080D01*
X162221942Y-51535080D01*
X163079085Y-52535080D02*
X163269561Y-52535080D01*
X163364800Y-52487461D01*
X163412419Y-52439842D01*
X163507657Y-52296985D01*
X163555276Y-52106509D01*
X163555276Y-51725557D01*
X163507657Y-51630319D01*
X163460038Y-51582700D01*
X163364800Y-51535080D01*
X163174323Y-51535080D01*
X163079085Y-51582700D01*
X163031466Y-51630319D01*
X162983847Y-51725557D01*
X162983847Y-51963652D01*
X163031466Y-52058890D01*
X163079085Y-52106509D01*
X163174323Y-52154128D01*
X163364800Y-52154128D01*
X163460038Y-52106509D01*
X163507657Y-52058890D01*
X163555276Y-51963652D01*
X192476380Y-109016857D02*
X192000190Y-109350190D01*
X192476380Y-109588285D02*
X191476380Y-109588285D01*
X191476380Y-109207333D01*
X191524000Y-109112095D01*
X191571619Y-109064476D01*
X191666857Y-109016857D01*
X191809714Y-109016857D01*
X191904952Y-109064476D01*
X191952571Y-109112095D01*
X192000190Y-109207333D01*
X192000190Y-109588285D01*
X192476380Y-108064476D02*
X192476380Y-108635904D01*
X192476380Y-108350190D02*
X191476380Y-108350190D01*
X191619238Y-108445428D01*
X191714476Y-108540666D01*
X191762095Y-108635904D01*
X191809714Y-107207333D02*
X192476380Y-107207333D01*
X191428761Y-107445428D02*
X192143047Y-107683523D01*
X192143047Y-107064476D01*
X178519080Y-100553757D02*
X178042890Y-100887090D01*
X178519080Y-101125185D02*
X177519080Y-101125185D01*
X177519080Y-100744233D01*
X177566700Y-100648995D01*
X177614319Y-100601376D01*
X177709557Y-100553757D01*
X177852414Y-100553757D01*
X177947652Y-100601376D01*
X177995271Y-100648995D01*
X178042890Y-100744233D01*
X178042890Y-101125185D01*
X178519080Y-99601376D02*
X178519080Y-100172804D01*
X178519080Y-99887090D02*
X177519080Y-99887090D01*
X177661938Y-99982328D01*
X177757176Y-100077566D01*
X177804795Y-100172804D01*
X178519080Y-99125185D02*
X178519080Y-98934709D01*
X178471461Y-98839471D01*
X178423842Y-98791852D01*
X178280985Y-98696614D01*
X178090509Y-98648995D01*
X177709557Y-98648995D01*
X177614319Y-98696614D01*
X177566700Y-98744233D01*
X177519080Y-98839471D01*
X177519080Y-99029947D01*
X177566700Y-99125185D01*
X177614319Y-99172804D01*
X177709557Y-99220423D01*
X177947652Y-99220423D01*
X178042890Y-99172804D01*
X178090509Y-99125185D01*
X178138128Y-99029947D01*
X178138128Y-98839471D01*
X178090509Y-98744233D01*
X178042890Y-98696614D01*
X177947652Y-98648995D01*
X190174642Y-135885180D02*
X189841309Y-135408990D01*
X189603214Y-135885180D02*
X189603214Y-134885180D01*
X189984166Y-134885180D01*
X190079404Y-134932800D01*
X190127023Y-134980419D01*
X190174642Y-135075657D01*
X190174642Y-135218514D01*
X190127023Y-135313752D01*
X190079404Y-135361371D01*
X189984166Y-135408990D01*
X189603214Y-135408990D01*
X190555595Y-134980419D02*
X190603214Y-134932800D01*
X190698452Y-134885180D01*
X190936547Y-134885180D01*
X191031785Y-134932800D01*
X191079404Y-134980419D01*
X191127023Y-135075657D01*
X191127023Y-135170895D01*
X191079404Y-135313752D01*
X190507976Y-135885180D01*
X191127023Y-135885180D01*
X191507976Y-134980419D02*
X191555595Y-134932800D01*
X191650833Y-134885180D01*
X191888928Y-134885180D01*
X191984166Y-134932800D01*
X192031785Y-134980419D01*
X192079404Y-135075657D01*
X192079404Y-135170895D01*
X192031785Y-135313752D01*
X191460357Y-135885180D01*
X192079404Y-135885180D01*
X179976542Y-144787880D02*
X179643209Y-144311690D01*
X179405114Y-144787880D02*
X179405114Y-143787880D01*
X179786066Y-143787880D01*
X179881304Y-143835500D01*
X179928923Y-143883119D01*
X179976542Y-143978357D01*
X179976542Y-144121214D01*
X179928923Y-144216452D01*
X179881304Y-144264071D01*
X179786066Y-144311690D01*
X179405114Y-144311690D01*
X180357495Y-143883119D02*
X180405114Y-143835500D01*
X180500352Y-143787880D01*
X180738447Y-143787880D01*
X180833685Y-143835500D01*
X180881304Y-143883119D01*
X180928923Y-143978357D01*
X180928923Y-144073595D01*
X180881304Y-144216452D01*
X180309876Y-144787880D01*
X180928923Y-144787880D01*
X181262257Y-143787880D02*
X181881304Y-143787880D01*
X181547971Y-144168833D01*
X181690828Y-144168833D01*
X181786066Y-144216452D01*
X181833685Y-144264071D01*
X181881304Y-144359309D01*
X181881304Y-144597404D01*
X181833685Y-144692642D01*
X181786066Y-144740261D01*
X181690828Y-144787880D01*
X181405114Y-144787880D01*
X181309876Y-144740261D01*
X181262257Y-144692642D01*
X177119880Y-134861357D02*
X176643690Y-135194690D01*
X177119880Y-135432785D02*
X176119880Y-135432785D01*
X176119880Y-135051833D01*
X176167500Y-134956595D01*
X176215119Y-134908976D01*
X176310357Y-134861357D01*
X176453214Y-134861357D01*
X176548452Y-134908976D01*
X176596071Y-134956595D01*
X176643690Y-135051833D01*
X176643690Y-135432785D01*
X176215119Y-134480404D02*
X176167500Y-134432785D01*
X176119880Y-134337547D01*
X176119880Y-134099452D01*
X176167500Y-134004214D01*
X176215119Y-133956595D01*
X176310357Y-133908976D01*
X176405595Y-133908976D01*
X176548452Y-133956595D01*
X177119880Y-134528023D01*
X177119880Y-133908976D01*
X176453214Y-133051833D02*
X177119880Y-133051833D01*
X176072261Y-133289928D02*
X176786547Y-133528023D01*
X176786547Y-132908976D01*
X172034142Y-81531380D02*
X171700809Y-81055190D01*
X171462714Y-81531380D02*
X171462714Y-80531380D01*
X171843666Y-80531380D01*
X171938904Y-80579000D01*
X171986523Y-80626619D01*
X172034142Y-80721857D01*
X172034142Y-80864714D01*
X171986523Y-80959952D01*
X171938904Y-81007571D01*
X171843666Y-81055190D01*
X171462714Y-81055190D01*
X172415095Y-80626619D02*
X172462714Y-80579000D01*
X172557952Y-80531380D01*
X172796047Y-80531380D01*
X172891285Y-80579000D01*
X172938904Y-80626619D01*
X172986523Y-80721857D01*
X172986523Y-80817095D01*
X172938904Y-80959952D01*
X172367476Y-81531380D01*
X172986523Y-81531380D01*
X173891285Y-80531380D02*
X173415095Y-80531380D01*
X173367476Y-81007571D01*
X173415095Y-80959952D01*
X173510333Y-80912333D01*
X173748428Y-80912333D01*
X173843666Y-80959952D01*
X173891285Y-81007571D01*
X173938904Y-81102809D01*
X173938904Y-81340904D01*
X173891285Y-81436142D01*
X173843666Y-81483761D01*
X173748428Y-81531380D01*
X173510333Y-81531380D01*
X173415095Y-81483761D01*
X173367476Y-81436142D01*
X179011342Y-129484380D02*
X178678009Y-129008190D01*
X178439914Y-129484380D02*
X178439914Y-128484380D01*
X178820866Y-128484380D01*
X178916104Y-128532000D01*
X178963723Y-128579619D01*
X179011342Y-128674857D01*
X179011342Y-128817714D01*
X178963723Y-128912952D01*
X178916104Y-128960571D01*
X178820866Y-129008190D01*
X178439914Y-129008190D01*
X179392295Y-128579619D02*
X179439914Y-128532000D01*
X179535152Y-128484380D01*
X179773247Y-128484380D01*
X179868485Y-128532000D01*
X179916104Y-128579619D01*
X179963723Y-128674857D01*
X179963723Y-128770095D01*
X179916104Y-128912952D01*
X179344676Y-129484380D01*
X179963723Y-129484380D01*
X180820866Y-128484380D02*
X180630390Y-128484380D01*
X180535152Y-128532000D01*
X180487533Y-128579619D01*
X180392295Y-128722476D01*
X180344676Y-128912952D01*
X180344676Y-129293904D01*
X180392295Y-129389142D01*
X180439914Y-129436761D01*
X180535152Y-129484380D01*
X180725628Y-129484380D01*
X180820866Y-129436761D01*
X180868485Y-129389142D01*
X180916104Y-129293904D01*
X180916104Y-129055809D01*
X180868485Y-128960571D01*
X180820866Y-128912952D01*
X180725628Y-128865333D01*
X180535152Y-128865333D01*
X180439914Y-128912952D01*
X180392295Y-128960571D01*
X180344676Y-129055809D01*
X168928380Y-87975857D02*
X168452190Y-88309190D01*
X168928380Y-88547285D02*
X167928380Y-88547285D01*
X167928380Y-88166333D01*
X167976000Y-88071095D01*
X168023619Y-88023476D01*
X168118857Y-87975857D01*
X168261714Y-87975857D01*
X168356952Y-88023476D01*
X168404571Y-88071095D01*
X168452190Y-88166333D01*
X168452190Y-88547285D01*
X168023619Y-87594904D02*
X167976000Y-87547285D01*
X167928380Y-87452047D01*
X167928380Y-87213952D01*
X167976000Y-87118714D01*
X168023619Y-87071095D01*
X168118857Y-87023476D01*
X168214095Y-87023476D01*
X168356952Y-87071095D01*
X168928380Y-87642523D01*
X168928380Y-87023476D01*
X167928380Y-86690142D02*
X167928380Y-86023476D01*
X168928380Y-86452047D01*
X177876142Y-118128380D02*
X177542809Y-117652190D01*
X177304714Y-118128380D02*
X177304714Y-117128380D01*
X177685666Y-117128380D01*
X177780904Y-117176000D01*
X177828523Y-117223619D01*
X177876142Y-117318857D01*
X177876142Y-117461714D01*
X177828523Y-117556952D01*
X177780904Y-117604571D01*
X177685666Y-117652190D01*
X177304714Y-117652190D01*
X178257095Y-117223619D02*
X178304714Y-117176000D01*
X178399952Y-117128380D01*
X178638047Y-117128380D01*
X178733285Y-117176000D01*
X178780904Y-117223619D01*
X178828523Y-117318857D01*
X178828523Y-117414095D01*
X178780904Y-117556952D01*
X178209476Y-118128380D01*
X178828523Y-118128380D01*
X179399952Y-117556952D02*
X179304714Y-117509333D01*
X179257095Y-117461714D01*
X179209476Y-117366476D01*
X179209476Y-117318857D01*
X179257095Y-117223619D01*
X179304714Y-117176000D01*
X179399952Y-117128380D01*
X179590428Y-117128380D01*
X179685666Y-117176000D01*
X179733285Y-117223619D01*
X179780904Y-117318857D01*
X179780904Y-117366476D01*
X179733285Y-117461714D01*
X179685666Y-117509333D01*
X179590428Y-117556952D01*
X179399952Y-117556952D01*
X179304714Y-117604571D01*
X179257095Y-117652190D01*
X179209476Y-117747428D01*
X179209476Y-117937904D01*
X179257095Y-118033142D01*
X179304714Y-118080761D01*
X179399952Y-118128380D01*
X179590428Y-118128380D01*
X179685666Y-118080761D01*
X179733285Y-118033142D01*
X179780904Y-117937904D01*
X179780904Y-117747428D01*
X179733285Y-117652190D01*
X179685666Y-117604571D01*
X179590428Y-117556952D01*
X180500142Y-78176380D02*
X180166809Y-77700190D01*
X179928714Y-78176380D02*
X179928714Y-77176380D01*
X180309666Y-77176380D01*
X180404904Y-77224000D01*
X180452523Y-77271619D01*
X180500142Y-77366857D01*
X180500142Y-77509714D01*
X180452523Y-77604952D01*
X180404904Y-77652571D01*
X180309666Y-77700190D01*
X179928714Y-77700190D01*
X180833476Y-77176380D02*
X181452523Y-77176380D01*
X181119190Y-77557333D01*
X181262047Y-77557333D01*
X181357285Y-77604952D01*
X181404904Y-77652571D01*
X181452523Y-77747809D01*
X181452523Y-77985904D01*
X181404904Y-78081142D01*
X181357285Y-78128761D01*
X181262047Y-78176380D01*
X180976333Y-78176380D01*
X180881095Y-78128761D01*
X180833476Y-78081142D01*
X181833476Y-77271619D02*
X181881095Y-77224000D01*
X181976333Y-77176380D01*
X182214428Y-77176380D01*
X182309666Y-77224000D01*
X182357285Y-77271619D01*
X182404904Y-77366857D01*
X182404904Y-77462095D01*
X182357285Y-77604952D01*
X181785857Y-78176380D01*
X182404904Y-78176380D01*
X153258780Y-75344257D02*
X152782590Y-75677590D01*
X153258780Y-75915685D02*
X152258780Y-75915685D01*
X152258780Y-75534733D01*
X152306400Y-75439495D01*
X152354019Y-75391876D01*
X152449257Y-75344257D01*
X152592114Y-75344257D01*
X152687352Y-75391876D01*
X152734971Y-75439495D01*
X152782590Y-75534733D01*
X152782590Y-75915685D01*
X152258780Y-75010923D02*
X152258780Y-74391876D01*
X152639733Y-74725209D01*
X152639733Y-74582352D01*
X152687352Y-74487114D01*
X152734971Y-74439495D01*
X152830209Y-74391876D01*
X153068304Y-74391876D01*
X153163542Y-74439495D01*
X153211161Y-74487114D01*
X153258780Y-74582352D01*
X153258780Y-74868066D01*
X153211161Y-74963304D01*
X153163542Y-75010923D01*
X152258780Y-74058542D02*
X152258780Y-73439495D01*
X152639733Y-73772828D01*
X152639733Y-73629971D01*
X152687352Y-73534733D01*
X152734971Y-73487114D01*
X152830209Y-73439495D01*
X153068304Y-73439495D01*
X153163542Y-73487114D01*
X153211161Y-73534733D01*
X153258780Y-73629971D01*
X153258780Y-73915685D01*
X153211161Y-74010923D01*
X153163542Y-74058542D01*
X162644080Y-75966557D02*
X162167890Y-76299890D01*
X162644080Y-76537985D02*
X161644080Y-76537985D01*
X161644080Y-76157033D01*
X161691700Y-76061795D01*
X161739319Y-76014176D01*
X161834557Y-75966557D01*
X161977414Y-75966557D01*
X162072652Y-76014176D01*
X162120271Y-76061795D01*
X162167890Y-76157033D01*
X162167890Y-76537985D01*
X161644080Y-75633223D02*
X161644080Y-75014176D01*
X162025033Y-75347509D01*
X162025033Y-75204652D01*
X162072652Y-75109414D01*
X162120271Y-75061795D01*
X162215509Y-75014176D01*
X162453604Y-75014176D01*
X162548842Y-75061795D01*
X162596461Y-75109414D01*
X162644080Y-75204652D01*
X162644080Y-75490366D01*
X162596461Y-75585604D01*
X162548842Y-75633223D01*
X161977414Y-74157033D02*
X162644080Y-74157033D01*
X161596461Y-74395128D02*
X162310747Y-74633223D01*
X162310747Y-74014176D01*
X164536380Y-75966557D02*
X164060190Y-76299890D01*
X164536380Y-76537985D02*
X163536380Y-76537985D01*
X163536380Y-76157033D01*
X163584000Y-76061795D01*
X163631619Y-76014176D01*
X163726857Y-75966557D01*
X163869714Y-75966557D01*
X163964952Y-76014176D01*
X164012571Y-76061795D01*
X164060190Y-76157033D01*
X164060190Y-76537985D01*
X163536380Y-75633223D02*
X163536380Y-75014176D01*
X163917333Y-75347509D01*
X163917333Y-75204652D01*
X163964952Y-75109414D01*
X164012571Y-75061795D01*
X164107809Y-75014176D01*
X164345904Y-75014176D01*
X164441142Y-75061795D01*
X164488761Y-75109414D01*
X164536380Y-75204652D01*
X164536380Y-75490366D01*
X164488761Y-75585604D01*
X164441142Y-75633223D01*
X163536380Y-74109414D02*
X163536380Y-74585604D01*
X164012571Y-74633223D01*
X163964952Y-74585604D01*
X163917333Y-74490366D01*
X163917333Y-74252271D01*
X163964952Y-74157033D01*
X164012571Y-74109414D01*
X164107809Y-74061795D01*
X164345904Y-74061795D01*
X164441142Y-74109414D01*
X164488761Y-74157033D01*
X164536380Y-74252271D01*
X164536380Y-74490366D01*
X164488761Y-74585604D01*
X164441142Y-74633223D01*
X155535642Y-64532380D02*
X155202309Y-64056190D01*
X154964214Y-64532380D02*
X154964214Y-63532380D01*
X155345166Y-63532380D01*
X155440404Y-63580000D01*
X155488023Y-63627619D01*
X155535642Y-63722857D01*
X155535642Y-63865714D01*
X155488023Y-63960952D01*
X155440404Y-64008571D01*
X155345166Y-64056190D01*
X154964214Y-64056190D01*
X155868976Y-63532380D02*
X156488023Y-63532380D01*
X156154690Y-63913333D01*
X156297547Y-63913333D01*
X156392785Y-63960952D01*
X156440404Y-64008571D01*
X156488023Y-64103809D01*
X156488023Y-64341904D01*
X156440404Y-64437142D01*
X156392785Y-64484761D01*
X156297547Y-64532380D01*
X156011833Y-64532380D01*
X155916595Y-64484761D01*
X155868976Y-64437142D01*
X157345166Y-63532380D02*
X157154690Y-63532380D01*
X157059452Y-63580000D01*
X157011833Y-63627619D01*
X156916595Y-63770476D01*
X156868976Y-63960952D01*
X156868976Y-64341904D01*
X156916595Y-64437142D01*
X156964214Y-64484761D01*
X157059452Y-64532380D01*
X157249928Y-64532380D01*
X157345166Y-64484761D01*
X157392785Y-64437142D01*
X157440404Y-64341904D01*
X157440404Y-64103809D01*
X157392785Y-64008571D01*
X157345166Y-63960952D01*
X157249928Y-63913333D01*
X157059452Y-63913333D01*
X156964214Y-63960952D01*
X156916595Y-64008571D01*
X156868976Y-64103809D01*
X151417280Y-75382357D02*
X150941090Y-75715690D01*
X151417280Y-75953785D02*
X150417280Y-75953785D01*
X150417280Y-75572833D01*
X150464900Y-75477595D01*
X150512519Y-75429976D01*
X150607757Y-75382357D01*
X150750614Y-75382357D01*
X150845852Y-75429976D01*
X150893471Y-75477595D01*
X150941090Y-75572833D01*
X150941090Y-75953785D01*
X150417280Y-75049023D02*
X150417280Y-74429976D01*
X150798233Y-74763309D01*
X150798233Y-74620452D01*
X150845852Y-74525214D01*
X150893471Y-74477595D01*
X150988709Y-74429976D01*
X151226804Y-74429976D01*
X151322042Y-74477595D01*
X151369661Y-74525214D01*
X151417280Y-74620452D01*
X151417280Y-74906166D01*
X151369661Y-75001404D01*
X151322042Y-75049023D01*
X150417280Y-74096642D02*
X150417280Y-73429976D01*
X151417280Y-73858547D01*
X161244880Y-63274357D02*
X160768690Y-63607690D01*
X161244880Y-63845785D02*
X160244880Y-63845785D01*
X160244880Y-63464833D01*
X160292500Y-63369595D01*
X160340119Y-63321976D01*
X160435357Y-63274357D01*
X160578214Y-63274357D01*
X160673452Y-63321976D01*
X160721071Y-63369595D01*
X160768690Y-63464833D01*
X160768690Y-63845785D01*
X160244880Y-62941023D02*
X160244880Y-62321976D01*
X160625833Y-62655309D01*
X160625833Y-62512452D01*
X160673452Y-62417214D01*
X160721071Y-62369595D01*
X160816309Y-62321976D01*
X161054404Y-62321976D01*
X161149642Y-62369595D01*
X161197261Y-62417214D01*
X161244880Y-62512452D01*
X161244880Y-62798166D01*
X161197261Y-62893404D01*
X161149642Y-62941023D01*
X160673452Y-61750547D02*
X160625833Y-61845785D01*
X160578214Y-61893404D01*
X160482976Y-61941023D01*
X160435357Y-61941023D01*
X160340119Y-61893404D01*
X160292500Y-61845785D01*
X160244880Y-61750547D01*
X160244880Y-61560071D01*
X160292500Y-61464833D01*
X160340119Y-61417214D01*
X160435357Y-61369595D01*
X160482976Y-61369595D01*
X160578214Y-61417214D01*
X160625833Y-61464833D01*
X160673452Y-61560071D01*
X160673452Y-61750547D01*
X160721071Y-61845785D01*
X160768690Y-61893404D01*
X160863928Y-61941023D01*
X161054404Y-61941023D01*
X161149642Y-61893404D01*
X161197261Y-61845785D01*
X161244880Y-61750547D01*
X161244880Y-61560071D01*
X161197261Y-61464833D01*
X161149642Y-61417214D01*
X161054404Y-61369595D01*
X160863928Y-61369595D01*
X160768690Y-61417214D01*
X160721071Y-61464833D01*
X160673452Y-61560071D01*
X175163242Y-63596780D02*
X174829909Y-63120590D01*
X174591814Y-63596780D02*
X174591814Y-62596780D01*
X174972766Y-62596780D01*
X175068004Y-62644400D01*
X175115623Y-62692019D01*
X175163242Y-62787257D01*
X175163242Y-62930114D01*
X175115623Y-63025352D01*
X175068004Y-63072971D01*
X174972766Y-63120590D01*
X174591814Y-63120590D01*
X175496576Y-62596780D02*
X176115623Y-62596780D01*
X175782290Y-62977733D01*
X175925147Y-62977733D01*
X176020385Y-63025352D01*
X176068004Y-63072971D01*
X176115623Y-63168209D01*
X176115623Y-63406304D01*
X176068004Y-63501542D01*
X176020385Y-63549161D01*
X175925147Y-63596780D01*
X175639433Y-63596780D01*
X175544195Y-63549161D01*
X175496576Y-63501542D01*
X176591814Y-63596780D02*
X176782290Y-63596780D01*
X176877528Y-63549161D01*
X176925147Y-63501542D01*
X177020385Y-63358685D01*
X177068004Y-63168209D01*
X177068004Y-62787257D01*
X177020385Y-62692019D01*
X176972766Y-62644400D01*
X176877528Y-62596780D01*
X176687052Y-62596780D01*
X176591814Y-62644400D01*
X176544195Y-62692019D01*
X176496576Y-62787257D01*
X176496576Y-63025352D01*
X176544195Y-63120590D01*
X176591814Y-63168209D01*
X176687052Y-63215828D01*
X176877528Y-63215828D01*
X176972766Y-63168209D01*
X177020385Y-63120590D01*
X177068004Y-63025352D01*
X175036242Y-61958480D02*
X174702909Y-61482290D01*
X174464814Y-61958480D02*
X174464814Y-60958480D01*
X174845766Y-60958480D01*
X174941004Y-61006100D01*
X174988623Y-61053719D01*
X175036242Y-61148957D01*
X175036242Y-61291814D01*
X174988623Y-61387052D01*
X174941004Y-61434671D01*
X174845766Y-61482290D01*
X174464814Y-61482290D01*
X175893385Y-61291814D02*
X175893385Y-61958480D01*
X175655290Y-60910861D02*
X175417195Y-61625147D01*
X176036242Y-61625147D01*
X176607671Y-60958480D02*
X176702909Y-60958480D01*
X176798147Y-61006100D01*
X176845766Y-61053719D01*
X176893385Y-61148957D01*
X176941004Y-61339433D01*
X176941004Y-61577528D01*
X176893385Y-61768004D01*
X176845766Y-61863242D01*
X176798147Y-61910861D01*
X176702909Y-61958480D01*
X176607671Y-61958480D01*
X176512433Y-61910861D01*
X176464814Y-61863242D01*
X176417195Y-61768004D01*
X176369576Y-61577528D01*
X176369576Y-61339433D01*
X176417195Y-61148957D01*
X176464814Y-61053719D01*
X176512433Y-61006100D01*
X176607671Y-60958480D01*
X165325642Y-66608880D02*
X164992309Y-66132690D01*
X164754214Y-66608880D02*
X164754214Y-65608880D01*
X165135166Y-65608880D01*
X165230404Y-65656500D01*
X165278023Y-65704119D01*
X165325642Y-65799357D01*
X165325642Y-65942214D01*
X165278023Y-66037452D01*
X165230404Y-66085071D01*
X165135166Y-66132690D01*
X164754214Y-66132690D01*
X166182785Y-65942214D02*
X166182785Y-66608880D01*
X165944690Y-65561261D02*
X165706595Y-66275547D01*
X166325642Y-66275547D01*
X167230404Y-66608880D02*
X166658976Y-66608880D01*
X166944690Y-66608880D02*
X166944690Y-65608880D01*
X166849452Y-65751738D01*
X166754214Y-65846976D01*
X166658976Y-65894595D01*
X182956295Y-108088180D02*
X182956295Y-108897704D01*
X183003914Y-108992942D01*
X183051533Y-109040561D01*
X183146771Y-109088180D01*
X183337247Y-109088180D01*
X183432485Y-109040561D01*
X183480104Y-108992942D01*
X183527723Y-108897704D01*
X183527723Y-108088180D01*
X184432485Y-108421514D02*
X184432485Y-109088180D01*
X184194390Y-108040561D02*
X183956295Y-108754847D01*
X184575342Y-108754847D01*
X173151895Y-107592880D02*
X173151895Y-108402404D01*
X173199514Y-108497642D01*
X173247133Y-108545261D01*
X173342371Y-108592880D01*
X173532847Y-108592880D01*
X173628085Y-108545261D01*
X173675704Y-108497642D01*
X173723323Y-108402404D01*
X173723323Y-107592880D01*
X174628085Y-107592880D02*
X174437609Y-107592880D01*
X174342371Y-107640500D01*
X174294752Y-107688119D01*
X174199514Y-107830976D01*
X174151895Y-108021452D01*
X174151895Y-108402404D01*
X174199514Y-108497642D01*
X174247133Y-108545261D01*
X174342371Y-108592880D01*
X174532847Y-108592880D01*
X174628085Y-108545261D01*
X174675704Y-108497642D01*
X174723323Y-108402404D01*
X174723323Y-108164309D01*
X174675704Y-108069071D01*
X174628085Y-108021452D01*
X174532847Y-107973833D01*
X174342371Y-107973833D01*
X174247133Y-108021452D01*
X174199514Y-108069071D01*
X174151895Y-108164309D01*
X189026895Y-129614680D02*
X189026895Y-130424204D01*
X189074514Y-130519442D01*
X189122133Y-130567061D01*
X189217371Y-130614680D01*
X189407847Y-130614680D01*
X189503085Y-130567061D01*
X189550704Y-130519442D01*
X189598323Y-130424204D01*
X189598323Y-129614680D01*
X190122133Y-130614680D02*
X190312609Y-130614680D01*
X190407847Y-130567061D01*
X190455466Y-130519442D01*
X190550704Y-130376585D01*
X190598323Y-130186109D01*
X190598323Y-129805157D01*
X190550704Y-129709919D01*
X190503085Y-129662300D01*
X190407847Y-129614680D01*
X190217371Y-129614680D01*
X190122133Y-129662300D01*
X190074514Y-129709919D01*
X190026895Y-129805157D01*
X190026895Y-130043252D01*
X190074514Y-130138490D01*
X190122133Y-130186109D01*
X190217371Y-130233728D01*
X190407847Y-130233728D01*
X190503085Y-130186109D01*
X190550704Y-130138490D01*
X190598323Y-130043252D01*
X179698804Y-132929380D02*
X179698804Y-133738904D01*
X179746423Y-133834142D01*
X179794042Y-133881761D01*
X179889280Y-133929380D01*
X180079757Y-133929380D01*
X180174995Y-133881761D01*
X180222614Y-133834142D01*
X180270233Y-133738904D01*
X180270233Y-132929380D01*
X181270233Y-133929380D02*
X180698804Y-133929380D01*
X180984519Y-133929380D02*
X180984519Y-132929380D01*
X180889280Y-133072238D01*
X180794042Y-133167476D01*
X180698804Y-133215095D01*
X181889280Y-132929380D02*
X181984519Y-132929380D01*
X182079757Y-132977000D01*
X182127376Y-133024619D01*
X182174995Y-133119857D01*
X182222614Y-133310333D01*
X182222614Y-133548428D01*
X182174995Y-133738904D01*
X182127376Y-133834142D01*
X182079757Y-133881761D01*
X181984519Y-133929380D01*
X181889280Y-133929380D01*
X181794042Y-133881761D01*
X181746423Y-133834142D01*
X181698804Y-133738904D01*
X181651185Y-133548428D01*
X181651185Y-133310333D01*
X181698804Y-133119857D01*
X181746423Y-133024619D01*
X181794042Y-132977000D01*
X181889280Y-132929380D01*
X176092004Y-83640680D02*
X176092004Y-84450204D01*
X176139623Y-84545442D01*
X176187242Y-84593061D01*
X176282480Y-84640680D01*
X176472957Y-84640680D01*
X176568195Y-84593061D01*
X176615814Y-84545442D01*
X176663433Y-84450204D01*
X176663433Y-83640680D01*
X177663433Y-84640680D02*
X177092004Y-84640680D01*
X177377719Y-84640680D02*
X177377719Y-83640680D01*
X177282480Y-83783538D01*
X177187242Y-83878776D01*
X177092004Y-83926395D01*
X178615814Y-84640680D02*
X178044385Y-84640680D01*
X178330100Y-84640680D02*
X178330100Y-83640680D01*
X178234861Y-83783538D01*
X178139623Y-83878776D01*
X178044385Y-83926395D01*
X183381804Y-121512080D02*
X183381804Y-122321604D01*
X183429423Y-122416842D01*
X183477042Y-122464461D01*
X183572280Y-122512080D01*
X183762757Y-122512080D01*
X183857995Y-122464461D01*
X183905614Y-122416842D01*
X183953233Y-122321604D01*
X183953233Y-121512080D01*
X184953233Y-122512080D02*
X184381804Y-122512080D01*
X184667519Y-122512080D02*
X184667519Y-121512080D01*
X184572280Y-121654938D01*
X184477042Y-121750176D01*
X184381804Y-121797795D01*
X185334185Y-121607319D02*
X185381804Y-121559700D01*
X185477042Y-121512080D01*
X185715138Y-121512080D01*
X185810376Y-121559700D01*
X185857995Y-121607319D01*
X185905614Y-121702557D01*
X185905614Y-121797795D01*
X185857995Y-121940652D01*
X185286566Y-122512080D01*
X185905614Y-122512080D01*
X176333304Y-73277480D02*
X176333304Y-74087004D01*
X176380923Y-74182242D01*
X176428542Y-74229861D01*
X176523780Y-74277480D01*
X176714257Y-74277480D01*
X176809495Y-74229861D01*
X176857114Y-74182242D01*
X176904733Y-74087004D01*
X176904733Y-73277480D01*
X177904733Y-74277480D02*
X177333304Y-74277480D01*
X177619019Y-74277480D02*
X177619019Y-73277480D01*
X177523780Y-73420338D01*
X177428542Y-73515576D01*
X177333304Y-73563195D01*
X178238066Y-73277480D02*
X178857114Y-73277480D01*
X178523780Y-73658433D01*
X178666638Y-73658433D01*
X178761876Y-73706052D01*
X178809495Y-73753671D01*
X178857114Y-73848909D01*
X178857114Y-74087004D01*
X178809495Y-74182242D01*
X178761876Y-74229861D01*
X178666638Y-74277480D01*
X178380923Y-74277480D01*
X178285685Y-74229861D01*
X178238066Y-74182242D01*
X185189880Y-78644595D02*
X185999404Y-78644595D01*
X186094642Y-78596976D01*
X186142261Y-78549357D01*
X186189880Y-78454119D01*
X186189880Y-78263642D01*
X186142261Y-78168404D01*
X186094642Y-78120785D01*
X185999404Y-78073166D01*
X185189880Y-78073166D01*
X186189880Y-77073166D02*
X186189880Y-77644595D01*
X186189880Y-77358880D02*
X185189880Y-77358880D01*
X185332738Y-77454119D01*
X185427976Y-77549357D01*
X185475595Y-77644595D01*
X185189880Y-76168404D02*
X185189880Y-76644595D01*
X185666071Y-76692214D01*
X185618452Y-76644595D01*
X185570833Y-76549357D01*
X185570833Y-76311261D01*
X185618452Y-76216023D01*
X185666071Y-76168404D01*
X185761309Y-76120785D01*
X185999404Y-76120785D01*
X186094642Y-76168404D01*
X186142261Y-76216023D01*
X186189880Y-76311261D01*
X186189880Y-76549357D01*
X186142261Y-76644595D01*
X186094642Y-76692214D01*
X156214124Y-75646348D02*
X156214124Y-76455872D01*
X156261743Y-76551110D01*
X156309362Y-76598729D01*
X156404600Y-76646348D01*
X156595077Y-76646348D01*
X156690315Y-76598729D01*
X156737934Y-76551110D01*
X156785553Y-76455872D01*
X156785553Y-75646348D01*
X157785553Y-76646348D02*
X157214124Y-76646348D01*
X157499839Y-76646348D02*
X157499839Y-75646348D01*
X157404600Y-75789206D01*
X157309362Y-75884444D01*
X157214124Y-75932063D01*
X158642696Y-75646348D02*
X158452220Y-75646348D01*
X158356981Y-75693968D01*
X158309362Y-75741587D01*
X158214124Y-75884444D01*
X158166505Y-76074920D01*
X158166505Y-76455872D01*
X158214124Y-76551110D01*
X158261743Y-76598729D01*
X158356981Y-76646348D01*
X158547458Y-76646348D01*
X158642696Y-76598729D01*
X158690315Y-76551110D01*
X158737934Y-76455872D01*
X158737934Y-76217777D01*
X158690315Y-76122539D01*
X158642696Y-76074920D01*
X158547458Y-76027301D01*
X158356981Y-76027301D01*
X158261743Y-76074920D01*
X158214124Y-76122539D01*
X158166505Y-76217777D01*
X168733742Y-103658966D02*
X168781361Y-103706585D01*
X168828980Y-103849442D01*
X168828980Y-103944680D01*
X168781361Y-104087538D01*
X168686123Y-104182776D01*
X168590885Y-104230395D01*
X168400409Y-104278014D01*
X168257552Y-104278014D01*
X168067076Y-104230395D01*
X167971838Y-104182776D01*
X167876600Y-104087538D01*
X167828980Y-103944680D01*
X167828980Y-103849442D01*
X167876600Y-103706585D01*
X167924219Y-103658966D01*
X168828980Y-102706585D02*
X168828980Y-103278014D01*
X168828980Y-102992300D02*
X167828980Y-102992300D01*
X167971838Y-103087538D01*
X168067076Y-103182776D01*
X168114695Y-103278014D01*
X165812742Y-103697066D02*
X165860361Y-103744685D01*
X165907980Y-103887542D01*
X165907980Y-103982780D01*
X165860361Y-104125638D01*
X165765123Y-104220876D01*
X165669885Y-104268495D01*
X165479409Y-104316114D01*
X165336552Y-104316114D01*
X165146076Y-104268495D01*
X165050838Y-104220876D01*
X164955600Y-104125638D01*
X164907980Y-103982780D01*
X164907980Y-103887542D01*
X164955600Y-103744685D01*
X165003219Y-103697066D01*
X165003219Y-103316114D02*
X164955600Y-103268495D01*
X164907980Y-103173257D01*
X164907980Y-102935161D01*
X164955600Y-102839923D01*
X165003219Y-102792304D01*
X165098457Y-102744685D01*
X165193695Y-102744685D01*
X165336552Y-102792304D01*
X165907980Y-103363733D01*
X165907980Y-102744685D01*
X165317442Y-137821966D02*
X165365061Y-137869585D01*
X165412680Y-138012442D01*
X165412680Y-138107680D01*
X165365061Y-138250538D01*
X165269823Y-138345776D01*
X165174585Y-138393395D01*
X164984109Y-138441014D01*
X164841252Y-138441014D01*
X164650776Y-138393395D01*
X164555538Y-138345776D01*
X164460300Y-138250538D01*
X164412680Y-138107680D01*
X164412680Y-138012442D01*
X164460300Y-137869585D01*
X164507919Y-137821966D01*
X164746014Y-136964823D02*
X165412680Y-136964823D01*
X164365061Y-137202919D02*
X165079347Y-137441014D01*
X165079347Y-136821966D01*
X162294842Y-134202466D02*
X162342461Y-134250085D01*
X162390080Y-134392942D01*
X162390080Y-134488180D01*
X162342461Y-134631038D01*
X162247223Y-134726276D01*
X162151985Y-134773895D01*
X161961509Y-134821514D01*
X161818652Y-134821514D01*
X161628176Y-134773895D01*
X161532938Y-134726276D01*
X161437700Y-134631038D01*
X161390080Y-134488180D01*
X161390080Y-134392942D01*
X161437700Y-134250085D01*
X161485319Y-134202466D01*
X161390080Y-133297704D02*
X161390080Y-133773895D01*
X161866271Y-133821514D01*
X161818652Y-133773895D01*
X161771033Y-133678657D01*
X161771033Y-133440561D01*
X161818652Y-133345323D01*
X161866271Y-133297704D01*
X161961509Y-133250085D01*
X162199604Y-133250085D01*
X162294842Y-133297704D01*
X162342461Y-133345323D01*
X162390080Y-133440561D01*
X162390080Y-133678657D01*
X162342461Y-133773895D01*
X162294842Y-133821514D01*
X158903942Y-134126266D02*
X158951561Y-134173885D01*
X158999180Y-134316742D01*
X158999180Y-134411980D01*
X158951561Y-134554838D01*
X158856323Y-134650076D01*
X158761085Y-134697695D01*
X158570609Y-134745314D01*
X158427752Y-134745314D01*
X158237276Y-134697695D01*
X158142038Y-134650076D01*
X158046800Y-134554838D01*
X157999180Y-134411980D01*
X157999180Y-134316742D01*
X158046800Y-134173885D01*
X158094419Y-134126266D01*
X157999180Y-133269123D02*
X157999180Y-133459600D01*
X158046800Y-133554838D01*
X158094419Y-133602457D01*
X158237276Y-133697695D01*
X158427752Y-133745314D01*
X158808704Y-133745314D01*
X158903942Y-133697695D01*
X158951561Y-133650076D01*
X158999180Y-133554838D01*
X158999180Y-133364361D01*
X158951561Y-133269123D01*
X158903942Y-133221504D01*
X158808704Y-133173885D01*
X158570609Y-133173885D01*
X158475371Y-133221504D01*
X158427752Y-133269123D01*
X158380133Y-133364361D01*
X158380133Y-133554838D01*
X158427752Y-133650076D01*
X158475371Y-133697695D01*
X158570609Y-133745314D01*
X141271666Y-143560380D02*
X141271666Y-144274666D01*
X141224047Y-144417523D01*
X141128809Y-144512761D01*
X140985952Y-144560380D01*
X140890714Y-144560380D01*
X142176428Y-143893714D02*
X142176428Y-144560380D01*
X141938333Y-143512761D02*
X141700238Y-144227047D01*
X142319285Y-144227047D01*
X157348180Y-133935766D02*
X156871990Y-134269100D01*
X157348180Y-134507195D02*
X156348180Y-134507195D01*
X156348180Y-134126242D01*
X156395800Y-134031004D01*
X156443419Y-133983385D01*
X156538657Y-133935766D01*
X156681514Y-133935766D01*
X156776752Y-133983385D01*
X156824371Y-134031004D01*
X156871990Y-134126242D01*
X156871990Y-134507195D01*
X156776752Y-133364338D02*
X156729133Y-133459576D01*
X156681514Y-133507195D01*
X156586276Y-133554814D01*
X156538657Y-133554814D01*
X156443419Y-133507195D01*
X156395800Y-133459576D01*
X156348180Y-133364338D01*
X156348180Y-133173861D01*
X156395800Y-133078623D01*
X156443419Y-133031004D01*
X156538657Y-132983385D01*
X156586276Y-132983385D01*
X156681514Y-133031004D01*
X156729133Y-133078623D01*
X156776752Y-133173861D01*
X156776752Y-133364338D01*
X156824371Y-133459576D01*
X156871990Y-133507195D01*
X156967228Y-133554814D01*
X157157704Y-133554814D01*
X157252942Y-133507195D01*
X157300561Y-133459576D01*
X157348180Y-133364338D01*
X157348180Y-133173861D01*
X157300561Y-133078623D01*
X157252942Y-133031004D01*
X157157704Y-132983385D01*
X156967228Y-132983385D01*
X156871990Y-133031004D01*
X156824371Y-133078623D01*
X156776752Y-133173861D01*
X160789880Y-134227866D02*
X160313690Y-134561200D01*
X160789880Y-134799295D02*
X159789880Y-134799295D01*
X159789880Y-134418342D01*
X159837500Y-134323104D01*
X159885119Y-134275485D01*
X159980357Y-134227866D01*
X160123214Y-134227866D01*
X160218452Y-134275485D01*
X160266071Y-134323104D01*
X160313690Y-134418342D01*
X160313690Y-134799295D01*
X160789880Y-133751676D02*
X160789880Y-133561200D01*
X160742261Y-133465961D01*
X160694642Y-133418342D01*
X160551785Y-133323104D01*
X160361309Y-133275485D01*
X159980357Y-133275485D01*
X159885119Y-133323104D01*
X159837500Y-133370723D01*
X159789880Y-133465961D01*
X159789880Y-133656438D01*
X159837500Y-133751676D01*
X159885119Y-133799295D01*
X159980357Y-133846914D01*
X160218452Y-133846914D01*
X160313690Y-133799295D01*
X160361309Y-133751676D01*
X160408928Y-133656438D01*
X160408928Y-133465961D01*
X160361309Y-133370723D01*
X160313690Y-133323104D01*
X160218452Y-133275485D01*
D15*
X150202947Y-134219190D02*
X150202947Y-134623952D01*
X150226757Y-134671571D01*
X150250566Y-134695380D01*
X150298185Y-134719190D01*
X150393423Y-134719190D01*
X150441042Y-134695380D01*
X150464852Y-134671571D01*
X150488661Y-134623952D01*
X150488661Y-134219190D01*
X150988661Y-134719190D02*
X150702947Y-134719190D01*
X150845804Y-134719190D02*
X150845804Y-134219190D01*
X150798185Y-134290619D01*
X150750566Y-134338238D01*
X150702947Y-134362047D01*
D13*
X182392580Y-101582457D02*
X181916390Y-101915790D01*
X182392580Y-102153885D02*
X181392580Y-102153885D01*
X181392580Y-101772933D01*
X181440200Y-101677695D01*
X181487819Y-101630076D01*
X181583057Y-101582457D01*
X181725914Y-101582457D01*
X181821152Y-101630076D01*
X181868771Y-101677695D01*
X181916390Y-101772933D01*
X181916390Y-102153885D01*
X182392580Y-100630076D02*
X182392580Y-101201504D01*
X182392580Y-100915790D02*
X181392580Y-100915790D01*
X181535438Y-101011028D01*
X181630676Y-101106266D01*
X181678295Y-101201504D01*
X182392580Y-99677695D02*
X182392580Y-100249123D01*
X182392580Y-99963409D02*
X181392580Y-99963409D01*
X181535438Y-100058647D01*
X181630676Y-100153885D01*
X181678295Y-100249123D01*
X180639980Y-101544357D02*
X180163790Y-101877690D01*
X180639980Y-102115785D02*
X179639980Y-102115785D01*
X179639980Y-101734833D01*
X179687600Y-101639595D01*
X179735219Y-101591976D01*
X179830457Y-101544357D01*
X179973314Y-101544357D01*
X180068552Y-101591976D01*
X180116171Y-101639595D01*
X180163790Y-101734833D01*
X180163790Y-102115785D01*
X180639980Y-100591976D02*
X180639980Y-101163404D01*
X180639980Y-100877690D02*
X179639980Y-100877690D01*
X179782838Y-100972928D01*
X179878076Y-101068166D01*
X179925695Y-101163404D01*
X179735219Y-100211023D02*
X179687600Y-100163404D01*
X179639980Y-100068166D01*
X179639980Y-99830071D01*
X179687600Y-99734833D01*
X179735219Y-99687214D01*
X179830457Y-99639595D01*
X179925695Y-99639595D01*
X180068552Y-99687214D01*
X180639980Y-100258642D01*
X180639980Y-99639595D01*
D16*
X176538335Y-111325372D02*
X177206595Y-112327762D01*
X177206595Y-111325372D02*
X176538335Y-112327762D01*
X177922587Y-111802700D02*
X178065786Y-111850433D01*
X178113519Y-111898166D01*
X178161252Y-111993632D01*
X178161252Y-112136830D01*
X178113519Y-112232296D01*
X178065786Y-112280029D01*
X177970320Y-112327762D01*
X177588457Y-112327762D01*
X177588457Y-111325372D01*
X177922587Y-111325372D01*
X178018053Y-111373105D01*
X178065786Y-111420837D01*
X178113519Y-111516303D01*
X178113519Y-111611769D01*
X178065786Y-111707235D01*
X178018053Y-111754967D01*
X177922587Y-111802700D01*
X177588457Y-111802700D01*
X178590847Y-112327762D02*
X178590847Y-111325372D01*
X178972710Y-111325372D01*
X179068176Y-111373105D01*
X179115909Y-111420837D01*
X179163642Y-111516303D01*
X179163642Y-111659502D01*
X179115909Y-111754967D01*
X179068176Y-111802700D01*
X178972710Y-111850433D01*
X178590847Y-111850433D01*
X179640970Y-112327762D02*
X179831902Y-112327762D01*
X179927367Y-112280029D01*
X179975100Y-112232296D01*
X180070566Y-112089097D01*
X180118299Y-111898166D01*
X180118299Y-111516303D01*
X180070566Y-111420837D01*
X180022833Y-111373105D01*
X179927367Y-111325372D01*
X179736436Y-111325372D01*
X179640970Y-111373105D01*
X179593237Y-111420837D01*
X179545505Y-111516303D01*
X179545505Y-111754967D01*
X179593237Y-111850433D01*
X179640970Y-111898166D01*
X179736436Y-111945899D01*
X179927367Y-111945899D01*
X180022833Y-111898166D01*
X180070566Y-111850433D01*
X180118299Y-111754967D01*
X180882025Y-111802700D02*
X181025223Y-111850433D01*
X181072956Y-111898166D01*
X181120689Y-111993632D01*
X181120689Y-112136830D01*
X181072956Y-112232296D01*
X181025223Y-112280029D01*
X180929757Y-112327762D01*
X180547895Y-112327762D01*
X180547895Y-111325372D01*
X180882025Y-111325372D01*
X180977490Y-111373105D01*
X181025223Y-111420837D01*
X181072956Y-111516303D01*
X181072956Y-111611769D01*
X181025223Y-111707235D01*
X180977490Y-111754967D01*
X180882025Y-111802700D01*
X180547895Y-111802700D01*
X181550285Y-111945899D02*
X182314010Y-111945899D01*
X182791339Y-112327762D02*
X182791339Y-111325372D01*
X183030003Y-111325372D01*
X183173202Y-111373105D01*
X183268667Y-111468570D01*
X183316400Y-111564036D01*
X183364133Y-111754967D01*
X183364133Y-111898166D01*
X183316400Y-112089097D01*
X183268667Y-112184563D01*
X183173202Y-112280029D01*
X183030003Y-112327762D01*
X182791339Y-112327762D01*
X183793729Y-112327762D02*
X183793729Y-111325372D01*
X184175592Y-111325372D01*
X184271057Y-111373105D01*
X184318790Y-111420837D01*
X184366523Y-111516303D01*
X184366523Y-111659502D01*
X184318790Y-111754967D01*
X184271057Y-111802700D01*
X184175592Y-111850433D01*
X183793729Y-111850433D01*
X184748386Y-112280029D02*
X184891585Y-112327762D01*
X185130249Y-112327762D01*
X185225715Y-112280029D01*
X185273447Y-112232296D01*
X185321180Y-112136830D01*
X185321180Y-112041365D01*
X185273447Y-111945899D01*
X185225715Y-111898166D01*
X185130249Y-111850433D01*
X184939317Y-111802700D01*
X184843852Y-111754967D01*
X184796119Y-111707235D01*
X184748386Y-111611769D01*
X184748386Y-111516303D01*
X184796119Y-111420837D01*
X184843852Y-111373105D01*
X184939317Y-111325372D01*
X185177982Y-111325372D01*
X185321180Y-111373105D01*
X185607577Y-111325372D02*
X186180372Y-111325372D01*
X185893975Y-112327762D02*
X185893975Y-111325372D01*
X186514502Y-111945899D02*
X187278227Y-111945899D01*
X187946487Y-111325372D02*
X188041953Y-111325372D01*
X188137419Y-111373105D01*
X188185152Y-111420837D01*
X188232885Y-111516303D01*
X188280617Y-111707235D01*
X188280617Y-111945899D01*
X188232885Y-112136830D01*
X188185152Y-112232296D01*
X188137419Y-112280029D01*
X188041953Y-112327762D01*
X187946487Y-112327762D01*
X187851022Y-112280029D01*
X187803289Y-112232296D01*
X187755556Y-112136830D01*
X187707823Y-111945899D01*
X187707823Y-111707235D01*
X187755556Y-111516303D01*
X187803289Y-111420837D01*
X187851022Y-111373105D01*
X187946487Y-111325372D01*
X188901145Y-111325372D02*
X188996610Y-111325372D01*
X189092076Y-111373105D01*
X189139809Y-111420837D01*
X189187542Y-111516303D01*
X189235275Y-111707235D01*
X189235275Y-111945899D01*
X189187542Y-112136830D01*
X189139809Y-112232296D01*
X189092076Y-112280029D01*
X188996610Y-112327762D01*
X188901145Y-112327762D01*
X188805679Y-112280029D01*
X188757946Y-112232296D01*
X188710213Y-112136830D01*
X188662480Y-111945899D01*
X188662480Y-111707235D01*
X188710213Y-111516303D01*
X188757946Y-111420837D01*
X188805679Y-111373105D01*
X188901145Y-111325372D01*
X190189932Y-112327762D02*
X189617137Y-112327762D01*
X189903535Y-112327762D02*
X189903535Y-111325372D01*
X189808069Y-111468570D01*
X189712603Y-111564036D01*
X189617137Y-111611769D01*
X166222534Y-95474862D02*
X166222534Y-94472472D01*
X166556664Y-95188465D01*
X166890794Y-94472472D01*
X166890794Y-95474862D01*
X167320390Y-95188465D02*
X167797718Y-95188465D01*
X167224924Y-95474862D02*
X167559054Y-94472472D01*
X167893184Y-95474862D01*
X168131848Y-94472472D02*
X168800108Y-95474862D01*
X168800108Y-94472472D02*
X168131848Y-95474862D01*
X169181971Y-95092999D02*
X169945697Y-95092999D01*
X170423025Y-95474862D02*
X170423025Y-94472472D01*
X170757155Y-95188465D01*
X171091285Y-94472472D01*
X171091285Y-95474862D01*
X171711812Y-94902067D02*
X171616347Y-94854335D01*
X171568614Y-94806602D01*
X171520881Y-94711136D01*
X171520881Y-94663403D01*
X171568614Y-94567937D01*
X171616347Y-94520205D01*
X171711812Y-94472472D01*
X171902744Y-94472472D01*
X171998210Y-94520205D01*
X172045942Y-94567937D01*
X172093675Y-94663403D01*
X172093675Y-94711136D01*
X172045942Y-94806602D01*
X171998210Y-94854335D01*
X171902744Y-94902067D01*
X171711812Y-94902067D01*
X171616347Y-94949800D01*
X171568614Y-94997533D01*
X171520881Y-95092999D01*
X171520881Y-95283930D01*
X171568614Y-95379396D01*
X171616347Y-95427129D01*
X171711812Y-95474862D01*
X171902744Y-95474862D01*
X171998210Y-95427129D01*
X172045942Y-95379396D01*
X172093675Y-95283930D01*
X172093675Y-95092999D01*
X172045942Y-94997533D01*
X171998210Y-94949800D01*
X171902744Y-94902067D01*
X173191531Y-95570327D02*
X173096065Y-95522595D01*
X173000600Y-95427129D01*
X172857401Y-95283930D01*
X172761935Y-95236197D01*
X172666470Y-95236197D01*
X172714202Y-95474862D02*
X172618737Y-95427129D01*
X172523271Y-95331663D01*
X172475538Y-95140732D01*
X172475538Y-94806602D01*
X172523271Y-94615670D01*
X172618737Y-94520205D01*
X172714202Y-94472472D01*
X172905134Y-94472472D01*
X173000600Y-94520205D01*
X173096065Y-94615670D01*
X173143798Y-94806602D01*
X173143798Y-95140732D01*
X173096065Y-95331663D01*
X173000600Y-95427129D01*
X172905134Y-95474862D01*
X172714202Y-95474862D01*
D13*
X140854133Y-123096280D02*
X140520800Y-122620090D01*
X140282704Y-123096280D02*
X140282704Y-122096280D01*
X140663657Y-122096280D01*
X140758895Y-122143900D01*
X140806514Y-122191519D01*
X140854133Y-122286757D01*
X140854133Y-122429614D01*
X140806514Y-122524852D01*
X140758895Y-122572471D01*
X140663657Y-122620090D01*
X140282704Y-122620090D01*
X141187466Y-122096280D02*
X141806514Y-122096280D01*
X141473180Y-122477233D01*
X141616038Y-122477233D01*
X141711276Y-122524852D01*
X141758895Y-122572471D01*
X141806514Y-122667709D01*
X141806514Y-122905804D01*
X141758895Y-123001042D01*
X141711276Y-123048661D01*
X141616038Y-123096280D01*
X141330323Y-123096280D01*
X141235085Y-123048661D01*
X141187466Y-123001042D01*
X165936633Y-141162042D02*
X165889014Y-141209661D01*
X165746157Y-141257280D01*
X165650919Y-141257280D01*
X165508061Y-141209661D01*
X165412823Y-141114423D01*
X165365204Y-141019185D01*
X165317585Y-140828709D01*
X165317585Y-140685852D01*
X165365204Y-140495376D01*
X165412823Y-140400138D01*
X165508061Y-140304900D01*
X165650919Y-140257280D01*
X165746157Y-140257280D01*
X165889014Y-140304900D01*
X165936633Y-140352519D01*
X166269966Y-140257280D02*
X166889014Y-140257280D01*
X166555680Y-140638233D01*
X166698538Y-140638233D01*
X166793776Y-140685852D01*
X166841395Y-140733471D01*
X166889014Y-140828709D01*
X166889014Y-141066804D01*
X166841395Y-141162042D01*
X166793776Y-141209661D01*
X166698538Y-141257280D01*
X166412823Y-141257280D01*
X166317585Y-141209661D01*
X166269966Y-141162042D01*
X140943666Y-71911380D02*
X140943666Y-72625666D01*
X140896047Y-72768523D01*
X140800809Y-72863761D01*
X140657952Y-72911380D01*
X140562714Y-72911380D01*
X141943666Y-72911380D02*
X141372238Y-72911380D01*
X141657952Y-72911380D02*
X141657952Y-71911380D01*
X141562714Y-72054238D01*
X141467476Y-72149476D01*
X141372238Y-72197095D01*
X140841433Y-128976380D02*
X140508100Y-128500190D01*
X140270004Y-128976380D02*
X140270004Y-127976380D01*
X140650957Y-127976380D01*
X140746195Y-128024000D01*
X140793814Y-128071619D01*
X140841433Y-128166857D01*
X140841433Y-128309714D01*
X140793814Y-128404952D01*
X140746195Y-128452571D01*
X140650957Y-128500190D01*
X140270004Y-128500190D01*
X141698576Y-128309714D02*
X141698576Y-128976380D01*
X141460480Y-127928761D02*
X141222385Y-128643047D01*
X141841433Y-128643047D01*
X140854133Y-127312680D02*
X140520800Y-126836490D01*
X140282704Y-127312680D02*
X140282704Y-126312680D01*
X140663657Y-126312680D01*
X140758895Y-126360300D01*
X140806514Y-126407919D01*
X140854133Y-126503157D01*
X140854133Y-126646014D01*
X140806514Y-126741252D01*
X140758895Y-126788871D01*
X140663657Y-126836490D01*
X140282704Y-126836490D01*
X141758895Y-126312680D02*
X141282704Y-126312680D01*
X141235085Y-126788871D01*
X141282704Y-126741252D01*
X141377942Y-126693633D01*
X141616038Y-126693633D01*
X141711276Y-126741252D01*
X141758895Y-126788871D01*
X141806514Y-126884109D01*
X141806514Y-127122204D01*
X141758895Y-127217442D01*
X141711276Y-127265061D01*
X141616038Y-127312680D01*
X141377942Y-127312680D01*
X141282704Y-127265061D01*
X141235085Y-127217442D01*
X165974733Y-142882880D02*
X165641400Y-142406690D01*
X165403304Y-142882880D02*
X165403304Y-141882880D01*
X165784257Y-141882880D01*
X165879495Y-141930500D01*
X165927114Y-141978119D01*
X165974733Y-142073357D01*
X165974733Y-142216214D01*
X165927114Y-142311452D01*
X165879495Y-142359071D01*
X165784257Y-142406690D01*
X165403304Y-142406690D01*
X166831876Y-141882880D02*
X166641400Y-141882880D01*
X166546161Y-141930500D01*
X166498542Y-141978119D01*
X166403304Y-142120976D01*
X166355685Y-142311452D01*
X166355685Y-142692404D01*
X166403304Y-142787642D01*
X166450923Y-142835261D01*
X166546161Y-142882880D01*
X166736638Y-142882880D01*
X166831876Y-142835261D01*
X166879495Y-142787642D01*
X166927114Y-142692404D01*
X166927114Y-142454309D01*
X166879495Y-142359071D01*
X166831876Y-142311452D01*
X166736638Y-142263833D01*
X166546161Y-142263833D01*
X166450923Y-142311452D01*
X166403304Y-142359071D01*
X166355685Y-142454309D01*
X140892233Y-125636280D02*
X140558900Y-125160090D01*
X140320804Y-125636280D02*
X140320804Y-124636280D01*
X140701757Y-124636280D01*
X140796995Y-124683900D01*
X140844614Y-124731519D01*
X140892233Y-124826757D01*
X140892233Y-124969614D01*
X140844614Y-125064852D01*
X140796995Y-125112471D01*
X140701757Y-125160090D01*
X140320804Y-125160090D01*
X141225566Y-124636280D02*
X141892233Y-124636280D01*
X141463661Y-125636280D01*
X180998904Y-49144180D02*
X180998904Y-48144180D01*
X181237000Y-48144180D01*
X181379857Y-48191800D01*
X181475095Y-48287038D01*
X181522714Y-48382276D01*
X181570333Y-48572752D01*
X181570333Y-48715609D01*
X181522714Y-48906085D01*
X181475095Y-49001323D01*
X181379857Y-49096561D01*
X181237000Y-49144180D01*
X180998904Y-49144180D01*
X182475095Y-48144180D02*
X181998904Y-48144180D01*
X181951285Y-48620371D01*
X181998904Y-48572752D01*
X182094142Y-48525133D01*
X182332238Y-48525133D01*
X182427476Y-48572752D01*
X182475095Y-48620371D01*
X182522714Y-48715609D01*
X182522714Y-48953704D01*
X182475095Y-49048942D01*
X182427476Y-49096561D01*
X182332238Y-49144180D01*
X182094142Y-49144180D01*
X181998904Y-49096561D01*
X181951285Y-49048942D01*
X192327304Y-49144180D02*
X192327304Y-48144180D01*
X192565400Y-48144180D01*
X192708257Y-48191800D01*
X192803495Y-48287038D01*
X192851114Y-48382276D01*
X192898733Y-48572752D01*
X192898733Y-48715609D01*
X192851114Y-48906085D01*
X192803495Y-49001323D01*
X192708257Y-49096561D01*
X192565400Y-49144180D01*
X192327304Y-49144180D01*
X193755876Y-48144180D02*
X193565400Y-48144180D01*
X193470161Y-48191800D01*
X193422542Y-48239419D01*
X193327304Y-48382276D01*
X193279685Y-48572752D01*
X193279685Y-48953704D01*
X193327304Y-49048942D01*
X193374923Y-49096561D01*
X193470161Y-49144180D01*
X193660638Y-49144180D01*
X193755876Y-49096561D01*
X193803495Y-49048942D01*
X193851114Y-48953704D01*
X193851114Y-48715609D01*
X193803495Y-48620371D01*
X193755876Y-48572752D01*
X193660638Y-48525133D01*
X193470161Y-48525133D01*
X193374923Y-48572752D01*
X193327304Y-48620371D01*
X193279685Y-48715609D01*
X186294733Y-52446180D02*
X185961400Y-51969990D01*
X185723304Y-52446180D02*
X185723304Y-51446180D01*
X186104257Y-51446180D01*
X186199495Y-51493800D01*
X186247114Y-51541419D01*
X186294733Y-51636657D01*
X186294733Y-51779514D01*
X186247114Y-51874752D01*
X186199495Y-51922371D01*
X186104257Y-51969990D01*
X185723304Y-51969990D01*
X187247114Y-52446180D02*
X186675685Y-52446180D01*
X186961400Y-52446180D02*
X186961400Y-51446180D01*
X186866161Y-51589038D01*
X186770923Y-51684276D01*
X186675685Y-51731895D01*
X191577933Y-52471580D02*
X191244600Y-51995390D01*
X191006504Y-52471580D02*
X191006504Y-51471580D01*
X191387457Y-51471580D01*
X191482695Y-51519200D01*
X191530314Y-51566819D01*
X191577933Y-51662057D01*
X191577933Y-51804914D01*
X191530314Y-51900152D01*
X191482695Y-51947771D01*
X191387457Y-51995390D01*
X191006504Y-51995390D01*
X191958885Y-51566819D02*
X192006504Y-51519200D01*
X192101742Y-51471580D01*
X192339838Y-51471580D01*
X192435076Y-51519200D01*
X192482695Y-51566819D01*
X192530314Y-51662057D01*
X192530314Y-51757295D01*
X192482695Y-51900152D01*
X191911266Y-52471580D01*
X192530314Y-52471580D01*
X184200742Y-58950780D02*
X183867409Y-58474590D01*
X183629314Y-58950780D02*
X183629314Y-57950780D01*
X184010266Y-57950780D01*
X184105504Y-57998400D01*
X184153123Y-58046019D01*
X184200742Y-58141257D01*
X184200742Y-58284114D01*
X184153123Y-58379352D01*
X184105504Y-58426971D01*
X184010266Y-58474590D01*
X183629314Y-58474590D01*
X185153123Y-58950780D02*
X184581695Y-58950780D01*
X184867409Y-58950780D02*
X184867409Y-57950780D01*
X184772171Y-58093638D01*
X184676933Y-58188876D01*
X184581695Y-58236495D01*
X185772171Y-57950780D02*
X185867409Y-57950780D01*
X185962647Y-57998400D01*
X186010266Y-58046019D01*
X186057885Y-58141257D01*
X186105504Y-58331733D01*
X186105504Y-58569828D01*
X186057885Y-58760304D01*
X186010266Y-58855542D01*
X185962647Y-58903161D01*
X185867409Y-58950780D01*
X185772171Y-58950780D01*
X185676933Y-58903161D01*
X185629314Y-58855542D01*
X185581695Y-58760304D01*
X185534076Y-58569828D01*
X185534076Y-58331733D01*
X185581695Y-58141257D01*
X185629314Y-58046019D01*
X185676933Y-57998400D01*
X185772171Y-57950780D01*
X189399942Y-58950780D02*
X189066609Y-58474590D01*
X188828514Y-58950780D02*
X188828514Y-57950780D01*
X189209466Y-57950780D01*
X189304704Y-57998400D01*
X189352323Y-58046019D01*
X189399942Y-58141257D01*
X189399942Y-58284114D01*
X189352323Y-58379352D01*
X189304704Y-58426971D01*
X189209466Y-58474590D01*
X188828514Y-58474590D01*
X190352323Y-58950780D02*
X189780895Y-58950780D01*
X190066609Y-58950780D02*
X190066609Y-57950780D01*
X189971371Y-58093638D01*
X189876133Y-58188876D01*
X189780895Y-58236495D01*
X190685657Y-57950780D02*
X191304704Y-57950780D01*
X190971371Y-58331733D01*
X191114228Y-58331733D01*
X191209466Y-58379352D01*
X191257085Y-58426971D01*
X191304704Y-58522209D01*
X191304704Y-58760304D01*
X191257085Y-58855542D01*
X191209466Y-58903161D01*
X191114228Y-58950780D01*
X190828514Y-58950780D01*
X190733276Y-58903161D01*
X190685657Y-58855542D01*
X182832619Y-54070238D02*
X182785000Y-54165476D01*
X182689761Y-54260714D01*
X182546904Y-54403571D01*
X182499285Y-54498809D01*
X182499285Y-54594047D01*
X182737380Y-54546428D02*
X182689761Y-54641666D01*
X182594523Y-54736904D01*
X182404047Y-54784523D01*
X182070714Y-54784523D01*
X181880238Y-54736904D01*
X181785000Y-54641666D01*
X181737380Y-54546428D01*
X181737380Y-54355952D01*
X181785000Y-54260714D01*
X181880238Y-54165476D01*
X182070714Y-54117857D01*
X182404047Y-54117857D01*
X182594523Y-54165476D01*
X182689761Y-54260714D01*
X182737380Y-54355952D01*
X182737380Y-54546428D01*
X182737380Y-53165476D02*
X182737380Y-53736904D01*
X182737380Y-53451190D02*
X181737380Y-53451190D01*
X181880238Y-53546428D01*
X181975476Y-53641666D01*
X182023095Y-53736904D01*
X188192019Y-54044838D02*
X188144400Y-54140076D01*
X188049161Y-54235314D01*
X187906304Y-54378171D01*
X187858685Y-54473409D01*
X187858685Y-54568647D01*
X188096780Y-54521028D02*
X188049161Y-54616266D01*
X187953923Y-54711504D01*
X187763447Y-54759123D01*
X187430114Y-54759123D01*
X187239638Y-54711504D01*
X187144400Y-54616266D01*
X187096780Y-54521028D01*
X187096780Y-54330552D01*
X187144400Y-54235314D01*
X187239638Y-54140076D01*
X187430114Y-54092457D01*
X187763447Y-54092457D01*
X187953923Y-54140076D01*
X188049161Y-54235314D01*
X188096780Y-54330552D01*
X188096780Y-54521028D01*
X187192019Y-53711504D02*
X187144400Y-53663885D01*
X187096780Y-53568647D01*
X187096780Y-53330552D01*
X187144400Y-53235314D01*
X187192019Y-53187695D01*
X187287257Y-53140076D01*
X187382495Y-53140076D01*
X187525352Y-53187695D01*
X188096780Y-53759123D01*
X188096780Y-53140076D01*
X183623104Y-61301380D02*
X184242152Y-61301380D01*
X183908819Y-61682333D01*
X184051676Y-61682333D01*
X184146914Y-61729952D01*
X184194533Y-61777571D01*
X184242152Y-61872809D01*
X184242152Y-62110904D01*
X184194533Y-62206142D01*
X184146914Y-62253761D01*
X184051676Y-62301380D01*
X183765961Y-62301380D01*
X183670723Y-62253761D01*
X183623104Y-62206142D01*
X184527866Y-61301380D02*
X184861200Y-62301380D01*
X185194533Y-61301380D01*
X185432628Y-61301380D02*
X186051676Y-61301380D01*
X185718342Y-61682333D01*
X185861200Y-61682333D01*
X185956438Y-61729952D01*
X186004057Y-61777571D01*
X186051676Y-61872809D01*
X186051676Y-62110904D01*
X186004057Y-62206142D01*
X185956438Y-62253761D01*
X185861200Y-62301380D01*
X185575485Y-62301380D01*
X185480247Y-62253761D01*
X185432628Y-62206142D01*
M02*
